VotoSerifGX-ExtendedLightDisplay.ufo
<glyph name="quotedbl" format="2">
  <advance width="213"/>
  <unicode hex="0022"/>
  <outline>
    <contour>
      <point x="52" y="479" type="line"/>
      <point x="61" y="479" type="line"/>
      <point x="83" y="714" type="line"/>
      <point x="30" y="714" type="line"/>
    </contour>
    <contour>
      <point x="152" y="479" type="line"/>
      <point x="161" y="479" type="line"/>
      <point x="183" y="714" type="line"/>
      <point x="130" y="714" type="line"/>
    </contour>
  </outline>
</glyph>
<glyph name="dollar" format="2">
  <advance width="680"/>
  <unicode hex="0024"/>
  <outline>
    <contour>
      <point x="337" y="-79" type="line"/>
      <point x="347" y="-79" type="line"/>
      <point x="347" y="35" type="line"/>
      <point x="472" y="28"/>
      <point x="572" y="96"/>
      <point x="572" y="189" type="curve" smooth="yes"/>
      <point x="572" y="289"/>
      <point x="512" y="343"/>
      <point x="347" y="387" type="curve"/>
      <point x="347" y="683" type="line"/>
      <point x="489" y="683"/>
      <point x="541" y="644"/>
      <point x="541" y="521" type="curve"/>
      <point x="556" y="521"/>
      <point x="557" y="535"/>
      <point x="557" y="564" type="curve" smooth="yes"/>
      <point x="557" y="618"/>
      <point x="500" y="693"/>
      <point x="347" y="693" type="curve"/>
      <point x="347" y="760" type="line"/>
      <point x="337" y="760" type="line"/>
      <point x="337" y="693" type="line"/>
      <point x="213" y="691"/>
      <point x="142" y="627"/>
      <point x="142" y="549" type="curve" smooth="yes"/>
      <point x="142" y="452"/>
      <point x="210" y="409"/>
      <point x="337" y="364" type="curve"/>
      <point x="337" y="45" type="line"/>
      <point x="123" y="45"/>
      <point x="115" y="150"/>
      <point x="115" y="215" type="curve"/>
      <point x="105" y="215"/>
      <point x="99" y="213"/>
      <point x="99" y="173" type="curve" smooth="yes"/>
      <point x="99" y="136"/>
      <point x="129" y="32"/>
      <point x="337" y="35" type="curve"/>
    </contour>
    <contour>
      <point x="347" y="45" type="curve"/>
      <point x="347" y="362" type="line"/>
      <point x="504" y="311"/>
      <point x="544" y="259"/>
      <point x="544" y="191" type="curve" smooth="yes"/>
      <point x="544" y="98"/>
      <point x="470" y="41"/>
    </contour>
    <contour>
      <point x="337" y="391" type="line"/>
      <point x="223" y="440"/>
      <point x="170" y="465"/>
      <point x="170" y="557" type="curve" smooth="yes"/>
      <point x="170" y="640"/>
      <point x="239" y="681"/>
      <point x="337" y="683" type="curve"/>
    </contour>
  </outline>
</glyph>
<glyph name="slash" format="2">
  <advance width="376"/>
  <unicode hex="002F"/>
  <outline>
    <contour>
      <point x="18" y="-121" type="line"/>
      <point x="30" y="-121" type="line"/>
      <point x="358" y="760" type="line"/>
      <point x="346" y="760" type="line"/>
    </contour>
  </outline>
</glyph>
<glyph name="zero" format="2">
  <advance width="693"/>
  <unicode hex="0030"/>
  <outline>
    <contour>
      <point x="348" y="-10" type="curve" smooth="yes"/>
      <point x="538" y="-10"/>
      <point x="619" y="121"/>
      <point x="619" y="358" type="curve" smooth="yes"/>
      <point x="619" y="614"/>
      <point x="544" y="724"/>
      <point x="349" y="724" type="curve" smooth="yes"/>
      <point x="157" y="724"/>
      <point x="75" y="616"/>
      <point x="75" y="359" type="curve" smooth="yes"/>
      <point x="75" y="96"/>
      <point x="155" y="-10"/>
    </contour>
    <contour>
      <point x="346" y="0" type="curve" smooth="yes"/>
      <point x="178" y="0"/>
      <point x="103" y="86"/>
      <point x="103" y="358" type="curve" smooth="yes"/>
      <point x="103" y="596"/>
      <point x="158" y="714"/>
      <point x="347" y="714" type="curve" smooth="yes"/>
      <point x="538" y="714"/>
      <point x="591" y="610"/>
      <point x="591" y="358" type="curve" smooth="yes"/>
      <point x="591" y="102"/>
      <point x="516" y="0"/>
    </contour>
  </outline>
</glyph>
<glyph name="five" format="2">
  <advance width="693"/>
  <unicode hex="0035"/>
  <outline>
    <contour>
      <point x="312" y="-10" type="curve" smooth="yes"/>
      <point x="489" y="-10"/>
      <point x="568" y="119"/>
      <point x="568" y="223" type="curve" smooth="yes"/>
      <point x="568" y="349"/>
      <point x="449" y="423"/>
      <point x="319" y="423" type="curve" smooth="yes"/>
      <point x="271" y="423"/>
      <point x="211" y="412"/>
      <point x="161" y="386" type="curve"/>
      <point x="198" y="684" type="line"/>
      <point x="460" y="684" type="line" smooth="yes"/>
      <point x="526" y="684"/>
      <point x="535" y="686"/>
      <point x="537" y="632" type="curve" smooth="yes"/>
      <point x="538" y="601" type="line"/>
      <point x="548" y="601" type="line"/>
      <point x="545" y="712" type="line"/>
      <point x="185" y="712" type="line"/>
      <point x="144" y="369" type="line"/>
      <point x="157" y="365" type="line"/>
      <point x="207" y="402"/>
      <point x="272" y="408"/>
      <point x="324" y="408" type="curve" smooth="yes"/>
      <point x="438" y="408"/>
      <point x="540" y="335"/>
      <point x="540" y="223" type="curve" smooth="yes"/>
      <point x="540" y="104"/>
      <point x="465" y="0"/>
      <point x="325" y="0" type="curve" smooth="yes"/>
      <point x="232" y="0"/>
      <point x="134" y="8"/>
      <point x="134" y="126" type="curve"/>
      <point x="119" y="124"/>
      <point x="108" y="123"/>
      <point x="108" y="95" type="curve" smooth="yes"/>
      <point x="108" y="22"/>
      <point x="200" y="-10"/>
    </contour>
  </outline>
</glyph>
<glyph name="semicolon" format="2">
  <advance width="262"/>
  <unicode hex="003B"/>
  <outline>
    <contour>
      <point x="50" y="-154" type="line"/>
      <point x="133" y="-130"/>
      <point x="168" y="-76"/>
      <point x="168" y="0" type="curve" smooth="yes"/>
      <point x="168" y="36"/>
      <point x="160" y="73"/>
      <point x="128" y="73" type="curve" smooth="yes"/>
      <point x="109" y="73"/>
      <point x="104" y="57"/>
      <point x="104" y="40" type="curve" smooth="yes"/>
      <point x="104" y="20"/>
      <point x="148" y="-6"/>
      <point x="148" y="-28" type="curve" smooth="yes"/>
      <point x="148" y="-72"/>
      <point x="113" y="-129"/>
      <point x="50" y="-142" type="curve"/>
    </contour>
    <contour>
      <point x="126" y="436" type="curve" smooth="yes"/>
      <point x="137" y="436"/>
      <point x="146" y="445"/>
      <point x="146" y="476" type="curve" smooth="yes"/>
      <point x="146" y="506"/>
      <point x="137" y="514"/>
      <point x="126" y="514" type="curve" smooth="yes"/>
      <point x="116" y="514"/>
      <point x="106" y="506"/>
      <point x="106" y="476" type="curve" smooth="yes"/>
      <point x="106" y="445"/>
      <point x="116" y="436"/>
    </contour>
  </outline>
</glyph>
<glyph name="at" format="2">
  <advance width="1145"/>
  <unicode hex="0040"/>
  <outline>
    <contour>
      <point x="476" y="-142" type="curve" smooth="yes"/>
      <point x="621" y="-142"/>
      <point x="725" y="-92"/>
      <point x="797" y="-47" type="curve"/>
      <point x="789" y="-39" type="line"/>
      <point x="712" y="-88"/>
      <point x="610" y="-132"/>
      <point x="476" y="-132" type="curve" smooth="yes"/>
      <point x="249" y="-132"/>
      <point x="135" y="-38"/>
      <point x="135" y="187" type="curve" smooth="yes"/>
      <point x="135" y="466"/>
      <point x="331" y="704"/>
      <point x="668" y="704" type="curve" smooth="yes"/>
      <point x="847" y="704"/>
      <point x="1023" y="591"/>
      <point x="1023" y="396" type="curve" smooth="yes"/>
      <point x="1023" y="229"/>
      <point x="898" y="87"/>
      <point x="801" y="87" type="curve" smooth="yes"/>
      <point x="734" y="87"/>
      <point x="704" y="118"/>
      <point x="704" y="174" type="curve" smooth="yes"/>
      <point x="704" y="203"/>
      <point x="704" y="227"/>
      <point x="726" y="303" type="curve" smooth="yes"/>
      <point x="798" y="520" type="line"/>
      <point x="790" y="520" type="line"/>
      <point x="762" y="499" type="line"/>
      <point x="729" y="520"/>
      <point x="669" y="529"/>
      <point x="635" y="529" type="curve" smooth="yes"/>
      <point x="493" y="529"/>
      <point x="341" y="433"/>
      <point x="341" y="226" type="curve" smooth="yes"/>
      <point x="341" y="119"/>
      <point x="410" y="77"/>
      <point x="492" y="77" type="curve" smooth="yes"/>
      <point x="587" y="77"/>
      <point x="651" y="168"/>
      <point x="672" y="212" type="curve"/>
      <point x="673" y="212" type="line"/>
      <point x="665" y="129"/>
      <point x="720" y="77"/>
      <point x="801" y="77" type="curve" smooth="yes"/>
      <point x="915" y="77"/>
      <point x="1051" y="210"/>
      <point x="1051" y="390" type="curve" smooth="yes"/>
      <point x="1051" y="576"/>
      <point x="886" y="714"/>
      <point x="660" y="714" type="curve" smooth="yes"/>
      <point x="366" y="714"/>
      <point x="107" y="527"/>
      <point x="107" y="181" type="curve" smooth="yes"/>
      <point x="107" y="-40"/>
      <point x="237" y="-142"/>
    </contour>
    <contour>
      <point x="494" y="86" type="curve" smooth="yes"/>
      <point x="423" y="86"/>
      <point x="369" y="132"/>
      <point x="369" y="224" type="curve" smooth="yes"/>
      <point x="369" y="412"/>
      <point x="483" y="519"/>
      <point x="639" y="519" type="curve" smooth="yes"/>
      <point x="686" y="519"/>
      <point x="733" y="501"/>
      <point x="754" y="479" type="curve"/>
      <point x="672" y="203" type="line" smooth="yes"/>
      <point x="654" y="152"/>
      <point x="576" y="86"/>
    </contour>
  </outline>
</glyph>
<glyph name="J" format="2">
  <advance width="429"/>
  <unicode hex="004A"/>
  <anchor x="97" y="-240" name="bottom"/>
  <anchor x="217" y="714" name="top"/>
  <anchor x="409" y="714" name="topright"/>
  <outline>
    <contour>
      <point x="36" y="-240" type="line"/>
      <point x="40" y="-240" type="line" smooth="yes"/>
      <point x="217" y="-240"/>
      <point x="246" y="-158"/>
      <point x="246" y="-17" type="curve" smooth="yes"/>
      <point x="246" y="616" type="line" smooth="yes"/>
      <point x="246" y="693"/>
      <point x="252" y="704"/>
      <point x="302" y="704" type="curve" smooth="yes"/>
      <point x="366" y="704" type="line"/>
      <point x="366" y="714" type="line"/>
      <point x="100" y="714" type="line"/>
      <point x="100" y="704" type="line"/>
      <point x="162" y="704" type="line" smooth="yes"/>
      <point x="212" y="704"/>
      <point x="218" y="693"/>
      <point x="218" y="616" type="curve" smooth="yes"/>
      <point x="218" y="-18" type="line" smooth="yes"/>
      <point x="218" y="-156"/>
      <point x="189" y="-230"/>
      <point x="51" y="-230" type="curve" smooth="yes"/>
      <point x="36" y="-230" type="line"/>
    </contour>
  </outline>
</glyph>
<glyph name="K" format="2">
  <advance width="813"/>
  <unicode hex="004B"/>
  <anchor x="406" y="0" name="bottom"/>
  <anchor x="406" y="714" name="top"/>
  <anchor x="793" y="714" name="topright"/>
  <outline>
    <contour>
      <point x="64" y="0" type="line"/>
      <point x="337" y="0" type="line"/>
      <point x="337" y="10" type="line"/>
      <point x="272" y="10" type="line" smooth="yes"/>
      <point x="223" y="10"/>
      <point x="216" y="21"/>
      <point x="216" y="94" type="curve" smooth="yes"/>
      <point x="216" y="241" type="line"/>
      <point x="353" y="376" type="line"/>
      <point x="648" y="119" type="line" smooth="yes"/>
      <point x="749" y="21"/>
      <point x="767" y="0"/>
      <point x="810" y="0" type="curve" smooth="yes"/>
      <point x="852" y="0" type="line"/>
      <point x="852" y="10" type="line"/>
      <point x="844" y="10" type="line" smooth="yes"/>
      <point x="794" y="10"/>
      <point x="797" y="14"/>
      <point x="669" y="151" type="curve" smooth="yes"/>
      <point x="374" y="392" type="line"/>
      <point x="604" y="627" type="line" smooth="yes"/>
      <point x="679" y="699"/>
      <point x="707" y="702"/>
      <point x="760" y="704" type="curve"/>
      <point x="760" y="714" type="line"/>
      <point x="565" y="714" type="line"/>
      <point x="565" y="704" type="line"/>
      <point x="616" y="704"/>
      <point x="639" y="708"/>
      <point x="639" y="690" type="curve" smooth="yes"/>
      <point x="639" y="673"/>
      <point x="630" y="666"/>
      <point x="572" y="609" type="curve" smooth="yes"/>
      <point x="216" y="258" type="line"/>
      <point x="216" y="615" type="line" smooth="yes"/>
      <point x="216" y="693"/>
      <point x="222" y="704"/>
      <point x="272" y="704" type="curve" smooth="yes"/>
      <point x="333" y="704" type="line"/>
      <point x="333" y="714" type="line"/>
      <point x="64" y="714" type="line"/>
      <point x="64" y="704" type="line"/>
      <point x="132" y="704" type="line" smooth="yes"/>
      <point x="182" y="704"/>
      <point x="188" y="693"/>
      <point x="188" y="615" type="curve" smooth="yes"/>
      <point x="188" y="98" type="line" smooth="yes"/>
      <point x="188" y="21"/>
      <point x="182" y="10"/>
      <point x="132" y="10" type="curve" smooth="yes"/>
      <point x="64" y="10" type="line"/>
    </contour>
  </outline>
</glyph>
<glyph name="L" format="2">
  <advance width="718"/>
  <unicode hex="004C"/>
  <anchor x="360" y="0" name="bottom"/>
  <anchor x="360" y="357" name="center"/>
  <anchor x="360" y="714" name="top"/>
  <anchor x="698" y="714" name="topright"/>
  <outline>
    <contour>
      <point x="64" y="0" type="line"/>
      <point x="642" y="0" type="line"/>
      <point x="652" y="205" type="line"/>
      <point x="642" y="205" type="line"/>
      <point x="635" y="79" type="line" smooth="yes"/>
      <point x="632" y="24"/>
      <point x="626" y="10"/>
      <point x="574" y="10" type="curve" smooth="yes"/>
      <point x="216" y="10" type="line"/>
      <point x="216" y="616" type="line" smooth="yes"/>
      <point x="216" y="693"/>
      <point x="222" y="704"/>
      <point x="272" y="704" type="curve" smooth="yes"/>
      <point x="330" y="704" type="line"/>
      <point x="330" y="714" type="line"/>
      <point x="64" y="714" type="line"/>
      <point x="64" y="704" type="line"/>
      <point x="132" y="704" type="line" smooth="yes"/>
      <point x="182" y="704"/>
      <point x="188" y="693"/>
      <point x="188" y="616" type="curve" smooth="yes"/>
      <point x="188" y="98" type="line" smooth="yes"/>
      <point x="188" y="21"/>
      <point x="182" y="10"/>
      <point x="132" y="10" type="curve" smooth="yes"/>
      <point x="64" y="10" type="line"/>
    </contour>
  </outline>
</glyph>
<glyph name="M" format="2">
  <advance width="1115"/>
  <unicode hex="004D"/>
  <anchor x="527" y="0" name="bottom"/>
  <anchor x="527" y="714" name="top"/>
  <anchor x="1065" y="714" name="topright"/>
  <outline>
    <contour>
      <point x="64" y="0" type="line"/>
      <point x="288" y="0" type="line"/>
      <point x="288" y="10" type="line"/>
      <point x="246" y="10" type="line" smooth="yes"/>
      <point x="196" y="10"/>
      <point x="190" y="21"/>
      <point x="190" y="98" type="curve" smooth="yes"/>
      <point x="190" y="650" type="line"/>
      <point x="493" y="0" type="line"/>
      <point x="514" y="0" type="line"/>
      <point x="835" y="656" type="line"/>
      <point x="835" y="98" type="line" smooth="yes"/>
      <point x="835" y="21"/>
      <point x="829" y="10"/>
      <point x="779" y="10" type="curve" smooth="yes"/>
      <point x="688" y="10" type="line"/>
      <point x="688" y="0" type="line"/>
      <point x="983" y="0" type="line"/>
      <point x="983" y="10" type="line"/>
      <point x="919" y="10" type="line" smooth="yes"/>
      <point x="869" y="10"/>
      <point x="863" y="21"/>
      <point x="863" y="98" type="curve" smooth="yes"/>
      <point x="863" y="616" type="line" smooth="yes"/>
      <point x="863" y="693"/>
      <point x="869" y="704"/>
      <point x="919" y="704" type="curve" smooth="yes"/>
      <point x="983" y="704" type="line"/>
      <point x="983" y="714" type="line"/>
      <point x="850" y="714" type="line"/>
      <point x="514" y="20" type="line"/>
      <point x="193" y="714" type="line"/>
      <point x="64" y="714" type="line"/>
      <point x="64" y="704" type="line"/>
      <point x="124" y="704" type="line" smooth="yes"/>
      <point x="174" y="704"/>
      <point x="180" y="693"/>
      <point x="180" y="616" type="curve" smooth="yes"/>
      <point x="180" y="98" type="line" smooth="yes"/>
      <point x="180" y="21"/>
      <point x="174" y="10"/>
      <point x="124" y="10" type="curve" smooth="yes"/>
      <point x="64" y="10" type="line"/>
    </contour>
  </outline>
</glyph>
<glyph name="T" format="2">
  <advance width="690"/>
  <unicode hex="0054"/>
  <anchor x="346" y="0" name="bottom"/>
  <anchor x="346" y="357" name="center"/>
  <anchor x="346" y="714" name="top"/>
  <anchor x="670" y="714" name="topright"/>
  <outline>
    <contour>
      <point x="176" y="0" type="line"/>
      <point x="507" y="0" type="line"/>
      <point x="507" y="10" type="line"/>
      <point x="412" y="10" type="line" smooth="yes"/>
      <point x="362" y="10"/>
      <point x="356" y="21"/>
      <point x="356" y="98" type="curve" smooth="yes"/>
      <point x="356" y="694" type="line"/>
      <point x="571" y="694" type="line" smooth="yes"/>
      <point x="623" y="694"/>
      <point x="631" y="680"/>
      <point x="633" y="625" type="curve" smooth="yes"/>
      <point x="636" y="563" type="line"/>
      <point x="646" y="563" type="line"/>
      <point x="639" y="714" type="line"/>
      <point x="48" y="714" type="line"/>
      <point x="41" y="563" type="line"/>
      <point x="51" y="563" type="line"/>
      <point x="54" y="625" type="line" smooth="yes"/>
      <point x="56" y="680"/>
      <point x="64" y="694"/>
      <point x="116" y="694" type="curve" smooth="yes"/>
      <point x="328" y="694" type="line"/>
      <point x="328" y="98" type="line" smooth="yes"/>
      <point x="328" y="21"/>
      <point x="322" y="10"/>
      <point x="272" y="10" type="curve" smooth="yes"/>
      <point x="176" y="10" type="line"/>
    </contour>
  </outline>
</glyph>
<glyph name="W" format="2">
  <advance width="1264"/>
  <unicode hex="0057"/>
  <anchor x="613" y="0" name="bottom"/>
  <anchor x="613" y="714" name="top"/>
  <anchor x="1184" y="714" name="topright"/>
  <outline>
    <contour>
      <point x="401" y="0" type="line"/>
      <point x="409" y="0" type="line"/>
      <point x="604" y="670" type="line"/>
      <point x="800" y="0" type="line"/>
      <point x="802" y="0" type="line"/>
      <point x="1058" y="655" type="line" smooth="yes"/>
      <point x="1076" y="699"/>
      <point x="1078" y="704"/>
      <point x="1124" y="704" type="curve" smooth="yes"/>
      <point x="1171" y="704" type="line"/>
      <point x="1171" y="714" type="line"/>
      <point x="943" y="714" type="line"/>
      <point x="943" y="704" type="line"/>
      <point x="992" y="704" type="line" smooth="yes"/>
      <point x="1044" y="704"/>
      <point x="1049" y="695"/>
      <point x="1049" y="676" type="curve" smooth="yes"/>
      <point x="1049" y="662"/>
      <point x="1041" y="640"/>
      <point x="1028" y="607" type="curve" smooth="yes"/>
      <point x="867" y="186" type="line" smooth="yes"/>
      <point x="849" y="149"/>
      <point x="818" y="54"/>
      <point x="816" y="63" type="curve"/>
      <point x="805" y="89"/>
      <point x="790" y="139"/>
      <point x="773" y="195" type="curve" smooth="yes"/>
      <point x="617" y="714" type="line"/>
      <point x="607" y="714" type="line"/>
      <point x="453" y="188" type="line" smooth="yes"/>
      <point x="436" y="130"/>
      <point x="426" y="94"/>
      <point x="414" y="45" type="curve"/>
      <point x="393" y="103"/>
      <point x="383" y="133"/>
      <point x="359" y="185" type="curve" smooth="yes"/>
      <point x="183" y="609" type="line" smooth="yes"/>
      <point x="166" y="647"/>
      <point x="158" y="663"/>
      <point x="158" y="676" type="curve" smooth="yes"/>
      <point x="158" y="695"/>
      <point x="163" y="704"/>
      <point x="215" y="704" type="curve" smooth="yes"/>
      <point x="286" y="704" type="line"/>
      <point x="286" y="714" type="line"/>
      <point x="28" y="714" type="line"/>
      <point x="28" y="704" type="line"/>
      <point x="63" y="704" type="line" smooth="yes"/>
      <point x="110" y="704"/>
      <point x="113" y="700"/>
      <point x="130" y="656" type="curve" smooth="yes"/>
    </contour>
  </outline>
</glyph>
<glyph name="X" format="2">
  <advance width="693"/>
  <unicode hex="0058"/>
  <anchor x="344" y="0" name="bottom"/>
  <anchor x="344" y="714" name="top"/>
  <anchor x="681" y="714" name="topright"/>
  <outline>
    <contour>
      <point x="8" y="0" type="line"/>
      <point x="237" y="0" type="line"/>
      <point x="237" y="10" type="line"/>
      <point x="179" y="10" type="line" smooth="yes"/>
      <point x="145" y="10"/>
      <point x="143" y="19"/>
      <point x="143" y="30" type="curve" smooth="yes"/>
      <point x="143" y="49"/>
      <point x="158" y="70"/>
      <point x="199" y="133" type="curve" smooth="yes"/>
      <point x="341" y="361" type="line"/>
      <point x="501" y="109" type="line" smooth="yes"/>
      <point x="527" y="72"/>
      <point x="540" y="55"/>
      <point x="540" y="34" type="curve" smooth="yes"/>
      <point x="540" y="20"/>
      <point x="538" y="10"/>
      <point x="509" y="10" type="curve" smooth="yes"/>
      <point x="467" y="10" type="line"/>
      <point x="467" y="0" type="line"/>
      <point x="697" y="0" type="line"/>
      <point x="697" y="10" type="line"/>
      <point x="653" y="10" type="line" smooth="yes"/>
      <point x="597" y="10"/>
      <point x="598" y="17"/>
      <point x="570" y="58" type="curve" smooth="yes"/>
      <point x="358" y="388" type="line"/>
      <point x="528" y="658" type="line" smooth="yes"/>
      <point x="554" y="698"/>
      <point x="555" y="704"/>
      <point x="609" y="704" type="curve" smooth="yes"/>
      <point x="655" y="704" type="line"/>
      <point x="655" y="714" type="line"/>
      <point x="450" y="714" type="line"/>
      <point x="450" y="704" type="line"/>
      <point x="485" y="704" type="line" smooth="yes"/>
      <point x="523" y="704"/>
      <point x="526" y="696"/>
      <point x="526" y="684" type="curve" smooth="yes"/>
      <point x="526" y="668"/>
      <point x="507" y="645"/>
      <point x="490" y="617" type="curve" smooth="yes"/>
      <point x="352" y="397" type="line"/>
      <point x="210" y="618" type="line" smooth="yes"/>
      <point x="190" y="648"/>
      <point x="180" y="659"/>
      <point x="180" y="682" type="curve" smooth="yes"/>
      <point x="180" y="694"/>
      <point x="183" y="704"/>
      <point x="220" y="704" type="curve" smooth="yes"/>
      <point x="246" y="704" type="line"/>
      <point x="246" y="714" type="line"/>
      <point x="15" y="714" type="line"/>
      <point x="15" y="704" type="line"/>
      <point x="73" y="704" type="line" smooth="yes"/>
      <point x="124" y="704"/>
      <point x="123" y="701"/>
      <point x="151" y="657" type="curve" smooth="yes"/>
      <point x="334" y="370" type="line"/>
      <point x="140" y="57" type="line" smooth="yes"/>
      <point x="112" y="13"/>
      <point x="112" y="10"/>
      <point x="72" y="10" type="curve" smooth="yes"/>
      <point x="8" y="10" type="line"/>
    </contour>
  </outline>
</glyph>
<glyph name="Z" format="2">
  <advance width="605"/>
  <unicode hex="005A"/>
  <anchor x="302" y="0" name="bottom"/>
  <anchor x="302" y="714" name="top"/>
  <anchor x="585" y="714" name="topright"/>
  <outline>
    <contour>
      <point x="34" y="0" type="line"/>
      <point x="548" y="0" type="line"/>
      <point x="555" y="131" type="line"/>
      <point x="545" y="131" type="line"/>
      <point x="541" y="83" type="line" smooth="yes"/>
      <point x="537" y="29"/>
      <point x="530" y="15"/>
      <point x="478" y="15" type="curve" smooth="yes"/>
      <point x="63" y="15" type="line"/>
      <point x="546" y="677" type="line"/>
      <point x="546" y="714" type="line"/>
      <point x="63" y="714" type="line"/>
      <point x="57" y="582" type="line"/>
      <point x="67" y="582" type="line"/>
      <point x="72" y="630" type="line" smooth="yes"/>
      <point x="77" y="685"/>
      <point x="81" y="699"/>
      <point x="133" y="699" type="curve" smooth="yes"/>
      <point x="525" y="699" type="line"/>
      <point x="34" y="22" type="line"/>
    </contour>
  </outline>
</glyph>
<glyph name="underscore" format="2">
  <advance width="571"/>
  <unicode hex="005F"/>
  <outline>
    <contour>
      <point x="-7" y="-89" type="line"/>
      <point x="581" y="-89" type="line"/>
      <point x="581" y="-69" type="line"/>
      <point x="-7" y="-69" type="line"/>
    </contour>
  </outline>
</glyph>
<glyph name="grave" format="2">
  <advance width="233"/>
  <unicode hex="0060"/>
  <outline>
    <contour>
      <point x="193" y="606" type="curve"/>
      <point x="193" y="606" type="line"/>
      <point x="193" y="616" type="line"/>
      <point x="169" y="637"/>
      <point x="108" y="721"/>
      <point x="76" y="766" type="curve"/>
      <point x="40" y="766" type="line"/>
      <point x="40" y="756" type="line"/>
      <point x="76" y="721"/>
      <point x="149" y="649"/>
    </contour>
  </outline>
</glyph>
<glyph name="a" format="2">
  <advance width="634"/>
  <unicode hex="0061"/>
  <anchor x="308" y="0" name="bottom"/>
  <anchor x="318" y="536" name="top"/>
  <anchor x="614" y="536" name="topright"/>
  <outline>
    <contour>
      <point x="243" y="-10" type="curve" smooth="yes"/>
      <point x="380" y="-10"/>
      <point x="441" y="92"/>
      <point x="463" y="118" type="curve"/>
      <point x="465" y="118" type="line"/>
      <point x="465" y="0" type="line"/>
      <point x="572" y="0" type="line"/>
      <point x="572" y="10" type="line"/>
      <point x="560" y="10" type="line" smooth="yes"/>
      <point x="490" y="10"/>
      <point x="493" y="31"/>
      <point x="493" y="107" type="curve" smooth="yes"/>
      <point x="493" y="406" type="line" smooth="yes"/>
      <point x="493" y="468"/>
      <point x="449" y="542"/>
      <point x="292" y="542" type="curve" smooth="yes"/>
      <point x="137" y="542"/>
      <point x="123" y="468"/>
      <point x="123" y="416" type="curve" smooth="yes"/>
      <point x="123" y="408"/>
      <point x="126" y="395"/>
      <point x="141" y="395" type="curve"/>
      <point x="141" y="476"/>
      <point x="159" y="532"/>
      <point x="295" y="532" type="curve" smooth="yes"/>
      <point x="456" y="532"/>
      <point x="465" y="449"/>
      <point x="465" y="371" type="curve" smooth="yes"/>
      <point x="465" y="292" type="line"/>
      <point x="362" y="289" type="line" smooth="yes"/>
      <point x="165" y="283"/>
      <point x="70" y="251"/>
      <point x="70" y="135" type="curve" smooth="yes"/>
      <point x="70" y="42"/>
      <point x="126" y="-10"/>
    </contour>
    <contour>
      <point x="253" y="5" type="curve" smooth="yes"/>
      <point x="148" y="5"/>
      <point x="98" y="73"/>
      <point x="98" y="132" type="curve" smooth="yes"/>
      <point x="98" y="215"/>
      <point x="162" y="272"/>
      <point x="357" y="279" type="curve" smooth="yes"/>
      <point x="465" y="282" type="line"/>
      <point x="465" y="149" type="line" smooth="yes"/>
      <point x="465" y="106"/>
      <point x="366" y="5"/>
    </contour>
  </outline>
</glyph>
<glyph name="f" format="2">
  <advance width="392"/>
  <unicode hex="0066"/>
  <anchor x="197" y="0" name="bottom"/>
  <anchor x="329" y="772" name="top"/>
  <anchor x="472" y="772" name="topright"/>
  <outline>
    <contour>
      <point x="45" y="0" type="line"/>
      <point x="347" y="0" type="line"/>
      <point x="347" y="10" type="line"/>
      <point x="276" y="10" type="line" smooth="yes"/>
      <point x="206" y="10"/>
      <point x="198" y="9"/>
      <point x="198" y="83" type="curve" smooth="yes"/>
      <point x="198" y="526" type="line"/>
      <point x="376" y="526" type="line"/>
      <point x="376" y="536" type="line"/>
      <point x="198" y="536" type="line"/>
      <point x="198" y="598" type="line" smooth="yes"/>
      <point x="198" y="695"/>
      <point x="259" y="762"/>
      <point x="351" y="762" type="curve" smooth="yes"/>
      <point x="437" y="762"/>
      <point x="459" y="721"/>
      <point x="459" y="651" type="curve"/>
      <point x="469" y="651"/>
      <point x="477" y="664"/>
      <point x="477" y="687" type="curve" smooth="yes"/>
      <point x="477" y="711"/>
      <point x="447" y="772"/>
      <point x="353" y="772" type="curve" smooth="yes"/>
      <point x="242" y="772"/>
      <point x="170" y="706"/>
      <point x="170" y="604" type="curve" smooth="yes"/>
      <point x="170" y="536" type="line"/>
      <point x="50" y="536" type="line"/>
      <point x="50" y="526" type="line"/>
      <point x="170" y="526" type="line"/>
      <point x="170" y="83" type="line" smooth="yes"/>
      <point x="170" y="9"/>
      <point x="162" y="10"/>
      <point x="92" y="10" type="curve" smooth="yes"/>
      <point x="45" y="10" type="line"/>
    </contour>
  </outline>
</glyph>
<glyph name="g" format="2">
  <advance width="629"/>
  <unicode hex="0067"/>
  <anchor x="314" y="-238" name="bottom"/>
  <anchor x="314" y="536" name="top"/>
  <anchor x="629" y="536" name="topright"/>
  <outline>
    <contour>
      <point x="288" y="-238" type="curve" smooth="yes"/>
      <point x="476" y="-238"/>
      <point x="563" y="-167"/>
      <point x="563" y="-63" type="curve" smooth="yes"/>
      <point x="563" y="41"/>
      <point x="494" y="71"/>
      <point x="392" y="71" type="curve" smooth="yes"/>
      <point x="283" y="71" type="line" smooth="yes"/>
      <point x="214" y="71"/>
      <point x="169" y="100"/>
      <point x="169" y="143" type="curve" smooth="yes"/>
      <point x="169" y="163"/>
      <point x="185" y="191"/>
      <point x="219" y="211" type="curve"/>
      <point x="244" y="202"/>
      <point x="274" y="196"/>
      <point x="311" y="196" type="curve" smooth="yes"/>
      <point x="437" y="196"/>
      <point x="504" y="271"/>
      <point x="504" y="366" type="curve" smooth="yes"/>
      <point x="504" y="406"/>
      <point x="470" y="476"/>
      <point x="456" y="490" type="curve"/>
      <point x="504" y="525"/>
      <point x="534" y="539"/>
      <point x="555" y="539" type="curve" smooth="yes"/>
      <point x="572" y="539"/>
      <point x="584" y="527"/>
      <point x="584" y="477" type="curve"/>
      <point x="597" y="477"/>
      <point x="609" y="495"/>
      <point x="609" y="518" type="curve" smooth="yes"/>
      <point x="609" y="548"/>
      <point x="585" y="557"/>
      <point x="559" y="557" type="curve" smooth="yes"/>
      <point x="533" y="557"/>
      <point x="510" y="551"/>
      <point x="448" y="496" type="curve"/>
      <point x="416" y="522"/>
      <point x="369" y="542"/>
      <point x="309" y="542" type="curve" smooth="yes"/>
      <point x="177" y="542"/>
      <point x="106" y="451"/>
      <point x="106" y="387" type="curve" smooth="yes"/>
      <point x="106" y="334"/>
      <point x="121" y="261"/>
      <point x="207" y="217" type="curve"/>
      <point x="168" y="196"/>
      <point x="144" y="160"/>
      <point x="144" y="137" type="curve" smooth="yes"/>
      <point x="144" y="94"/>
      <point x="181" y="63"/>
      <point x="241" y="55" type="curve"/>
      <point x="191" y="70"/>
      <point x="65" y="25"/>
      <point x="65" y="-67" type="curve" smooth="yes"/>
      <point x="65" y="-170"/>
      <point x="142" y="-238"/>
    </contour>
    <contour>
      <point x="295" y="-228" type="curve" smooth="yes"/>
      <point x="130" y="-228"/>
      <point x="93" y="-152"/>
      <point x="93" y="-72" type="curve" smooth="yes"/>
      <point x="93" y="39"/>
      <point x="180" y="46"/>
      <point x="280" y="46" type="curve" smooth="yes"/>
      <point x="400" y="46" type="line" smooth="yes"/>
      <point x="472" y="46"/>
      <point x="535" y="38"/>
      <point x="535" y="-65" type="curve" smooth="yes"/>
      <point x="535" y="-186"/>
      <point x="448" y="-228"/>
    </contour>
    <contour>
      <point x="306" y="206" type="curve" smooth="yes"/>
      <point x="215" y="206"/>
      <point x="134" y="244"/>
      <point x="134" y="364" type="curve" smooth="yes"/>
      <point x="134" y="487"/>
      <point x="209" y="532"/>
      <point x="308" y="532" type="curve" smooth="yes"/>
      <point x="413" y="532"/>
      <point x="476" y="480"/>
      <point x="476" y="365" type="curve" smooth="yes"/>
      <point x="476" y="231"/>
      <point x="406" y="206"/>
    </contour>
  </outline>
</glyph>
<glyph name="i" format="2">
  <advance width="341"/>
  <unicode hex="0069"/>
  <anchor x="170" y="0" name="bottom"/>
  <anchor x="176" y="738" name="top"/>
  <anchor x="281" y="738" name="topright"/>
  <outline>
    <contour>
      <point x="40" y="0" type="line"/>
      <point x="334" y="0" type="line"/>
      <point x="334" y="10" type="line"/>
      <point x="287" y="10" type="line" smooth="yes"/>
      <point x="201" y="10"/>
      <point x="199" y="12"/>
      <point x="199" y="82" type="curve" smooth="yes"/>
      <point x="199" y="536" type="line"/>
      <point x="69" y="536" type="line"/>
      <point x="69" y="526" type="line"/>
      <point x="99" y="526" type="line" smooth="yes"/>
      <point x="161" y="526"/>
      <point x="171" y="526"/>
      <point x="171" y="449" type="curve" smooth="yes"/>
      <point x="171" y="82" type="line" smooth="yes"/>
      <point x="171" y="12"/>
      <point x="169" y="10"/>
      <point x="84" y="10" type="curve" smooth="yes"/>
      <point x="40" y="10" type="line"/>
    </contour>
    <contour>
      <point x="180" y="658" type="curve" smooth="yes"/>
      <point x="194" y="658"/>
      <point x="198" y="666"/>
      <point x="198" y="698" type="curve" smooth="yes"/>
      <point x="198" y="729"/>
      <point x="194" y="738"/>
      <point x="180" y="738" type="curve" smooth="yes"/>
      <point x="169" y="738"/>
      <point x="161" y="729"/>
      <point x="161" y="698" type="curve" smooth="yes"/>
      <point x="161" y="666"/>
      <point x="169" y="658"/>
    </contour>
  </outline>
</glyph>
<glyph name="j" format="2">
  <advance width="357"/>
  <unicode hex="006A"/>
  <anchor x="108" y="-240" name="bottom"/>
  <anchor x="193" y="738" name="top"/>
  <anchor x="292" y="738" name="topright"/>
  <outline>
    <contour>
      <point x="40" y="-240" type="line"/>
      <point x="63" y="-240" type="line" smooth="yes"/>
      <point x="159" y="-240"/>
      <point x="217" y="-173"/>
      <point x="217" y="2" type="curve" smooth="yes"/>
      <point x="217" y="536" type="line"/>
      <point x="86" y="536" type="line"/>
      <point x="86" y="526" type="line"/>
      <point x="111" y="526" type="line" smooth="yes"/>
      <point x="181" y="526"/>
      <point x="189" y="528"/>
      <point x="189" y="446" type="curve" smooth="yes"/>
      <point x="189" y="19" type="line" smooth="yes"/>
      <point x="189" y="-174"/>
      <point x="140" y="-230"/>
      <point x="57" y="-230" type="curve" smooth="yes"/>
      <point x="40" y="-230" type="line"/>
    </contour>
    <contour>
      <point x="198" y="658" type="curve" smooth="yes"/>
      <point x="212" y="658"/>
      <point x="216" y="666"/>
      <point x="216" y="698" type="curve" smooth="yes"/>
      <point x="216" y="729"/>
      <point x="212" y="738"/>
      <point x="198" y="738" type="curve" smooth="yes"/>
      <point x="185" y="738"/>
      <point x="180" y="729"/>
      <point x="180" y="698" type="curve" smooth="yes"/>
      <point x="180" y="666"/>
      <point x="185" y="658"/>
    </contour>
  </outline>
</glyph>
<glyph name="k" format="2">
  <advance width="637"/>
  <unicode hex="006B"/>
  <anchor x="319" y="0" name="bottom"/>
  <anchor x="319" y="760" name="top"/>
  <anchor x="637" y="760" name="topright"/>
  <outline>
    <contour>
      <point x="26" y="0" type="line"/>
      <point x="285" y="0" type="line"/>
      <point x="285" y="10" type="line"/>
      <point x="268" y="10" type="line" smooth="yes"/>
      <point x="178" y="10"/>
      <point x="176" y="12"/>
      <point x="176" y="82" type="curve" smooth="yes"/>
      <point x="176" y="192" type="line"/>
      <point x="292" y="293" type="line"/>
      <point x="423" y="119" type="line" smooth="yes"/>
      <point x="503" y="6"/>
      <point x="510" y="0"/>
      <point x="586" y="0" type="curve" smooth="yes"/>
      <point x="608" y="0" type="line"/>
      <point x="608" y="10" type="line"/>
      <point x="607" y="10" type="line" smooth="yes"/>
      <point x="552" y="10"/>
      <point x="517" y="44"/>
      <point x="430" y="174" type="curve" smooth="yes"/>
      <point x="310" y="306" type="line"/>
      <point x="443" y="411" type="line" smooth="yes"/>
      <point x="560" y="526"/>
      <point x="566" y="526"/>
      <point x="629" y="526" type="curve"/>
      <point x="629" y="536" type="line"/>
      <point x="459" y="536" type="line"/>
      <point x="459" y="526" type="line"/>
      <point x="485" y="526"/>
      <point x="505" y="526"/>
      <point x="505" y="508" type="curve" smooth="yes"/>
      <point x="505" y="495"/>
      <point x="495" y="493"/>
      <point x="391" y="404" type="curve" smooth="yes"/>
      <point x="176" y="210" type="line"/>
      <point x="176" y="280"/>
      <point x="176" y="309"/>
      <point x="176" y="375" type="curve" smooth="yes"/>
      <point x="176" y="760" type="line"/>
      <point x="26" y="760" type="line"/>
      <point x="26" y="750" type="line"/>
      <point x="81" y="750" type="line" smooth="yes"/>
      <point x="140" y="750"/>
      <point x="148" y="748"/>
      <point x="148" y="670" type="curve" smooth="yes"/>
      <point x="148" y="82" type="line" smooth="yes"/>
      <point x="148" y="12"/>
      <point x="146" y="10"/>
      <point x="61" y="10" type="curve" smooth="yes"/>
      <point x="26" y="10" type="line"/>
    </contour>
  </outline>
</glyph>
<glyph name="p" format="2">
  <advance width="705"/>
  <unicode hex="0070"/>
  <anchor x="352" y="-240" name="bottom"/>
  <anchor x="352" y="536" name="top"/>
  <anchor x="665" y="536" name="topright"/>
  <outline>
    <contour>
      <point x="30" y="-240" type="line"/>
      <point x="323" y="-240" type="line"/>
      <point x="323" y="-230" type="line"/>
      <point x="250" y="-230" type="line" smooth="yes"/>
      <point x="190" y="-230"/>
      <point x="182" y="-228"/>
      <point x="182" y="-150" type="curve" smooth="yes"/>
      <point x="182" y="-12" type="line" smooth="yes"/>
      <point x="182" y="86"/>
      <point x="181" y="173"/>
      <point x="180" y="178" type="curve"/>
      <point x="182" y="178" type="line"/>
      <point x="204" y="63"/>
      <point x="285" y="-10"/>
      <point x="384" y="-10" type="curve" smooth="yes"/>
      <point x="532" y="-10"/>
      <point x="623" y="80"/>
      <point x="623" y="276" type="curve" smooth="yes"/>
      <point x="623" y="451"/>
      <point x="554" y="546"/>
      <point x="386" y="546" type="curve" smooth="yes"/>
      <point x="276" y="546"/>
      <point x="196" y="463"/>
      <point x="183" y="379" type="curve"/>
      <point x="181" y="379" type="line"/>
      <point x="181" y="536" type="line"/>
      <point x="-1" y="536" type="line"/>
      <point x="-1" y="526" type="line"/>
      <point x="72" y="526" type="line" smooth="yes"/>
      <point x="149" y="526"/>
      <point x="154" y="524"/>
      <point x="154" y="453" type="curve" smooth="yes"/>
      <point x="154" y="-150" type="line" smooth="yes"/>
      <point x="154" y="-228"/>
      <point x="146" y="-230"/>
      <point x="87" y="-230" type="curve" smooth="yes"/>
      <point x="30" y="-230" type="line"/>
    </contour>
    <contour>
      <point x="390" y="10" type="curve" smooth="yes"/>
      <point x="241" y="10"/>
      <point x="182" y="111"/>
      <point x="182" y="282" type="curve" smooth="yes"/>
      <point x="182" y="408"/>
      <point x="223" y="526"/>
      <point x="388" y="526" type="curve" smooth="yes"/>
      <point x="546" y="526"/>
      <point x="595" y="433"/>
      <point x="595" y="266" type="curve" smooth="yes"/>
      <point x="595" y="90"/>
      <point x="512" y="10"/>
    </contour>
  </outline>
</glyph>
<glyph name="z" format="2">
  <advance width="603"/>
  <unicode hex="007A"/>
  <anchor x="314" y="0" name="bottom"/>
  <anchor x="314" y="536" name="top"/>
  <anchor x="565" y="536" name="topright"/>
  <outline>
    <contour>
      <point x="88" y="0" type="line"/>
      <point x="530" y="0" type="line"/>
      <point x="535" y="138" type="line"/>
      <point x="525" y="138" type="line"/>
      <point x="523" y="85" type="line" smooth="yes"/>
      <point x="521" y="29"/>
      <point x="514" y="15"/>
      <point x="462" y="15" type="curve" smooth="yes"/>
      <point x="127" y="15" type="line"/>
      <point x="536" y="534" type="line"/>
      <point x="536" y="536" type="line"/>
      <point x="109" y="536" type="line"/>
      <point x="101" y="420" type="line"/>
      <point x="111" y="420" type="line"/>
      <point x="113" y="452" type="line" smooth="yes"/>
      <point x="116" y="507"/>
      <point x="124" y="521"/>
      <point x="176" y="521" type="curve" smooth="yes"/>
      <point x="493" y="521" type="line"/>
      <point x="88" y="2" type="line"/>
    </contour>
  </outline>
</glyph>
<glyph name="sterling" format="2">
  <advance width="695"/>
  <unicode hex="00A3"/>
  <outline>
    <contour>
      <point x="525" y="-12" type="curve" smooth="yes"/>
      <point x="561" y="-12"/>
      <point x="604" y="-13"/>
      <point x="674" y="55" type="curve"/>
      <point x="660" y="58" type="line"/>
      <point x="602" y="-1"/>
      <point x="558" y="-1"/>
      <point x="545" y="-1" type="curve" smooth="yes"/>
      <point x="518" y="-1"/>
      <point x="472" y="30"/>
      <point x="415" y="52" type="curve" smooth="yes"/>
      <point x="370" y="69"/>
      <point x="335" y="74"/>
      <point x="302" y="74" type="curve" smooth="yes"/>
      <point x="258" y="74"/>
      <point x="244" y="66"/>
      <point x="174" y="35" type="curve"/>
      <point x="173" y="37" type="line"/>
      <point x="242" y="63"/>
      <point x="283" y="172"/>
      <point x="283" y="205" type="curve" smooth="yes"/>
      <point x="283" y="248"/>
      <point x="261" y="334"/>
      <point x="243" y="362" type="curve"/>
      <point x="417" y="362" type="line"/>
      <point x="417" y="362" type="line"/>
      <point x="243" y="362" type="line"/>
      <point x="243" y="346"/>
      <point x="190" y="442"/>
      <point x="190" y="537" type="curve" smooth="yes"/>
      <point x="190" y="647"/>
      <point x="267" y="712"/>
      <point x="377" y="712" type="curve" smooth="yes"/>
      <point x="521" y="712"/>
      <point x="548" y="637"/>
      <point x="548" y="573" type="curve"/>
      <point x="558" y="573"/>
      <point x="574" y="589"/>
      <point x="574" y="613" type="curve" smooth="yes"/>
      <point x="574" y="682"/>
      <point x="491" y="722"/>
      <point x="376" y="722" type="curve" smooth="yes"/>
      <point x="263" y="722"/>
      <point x="162" y="653"/>
      <point x="162" y="533" type="curve" smooth="yes"/>
      <point x="162" y="478"/>
      <point x="189" y="417"/>
      <point x="216" y="362" type="curve"/>
      <point x="99" y="362" type="line"/>
      <point x="99" y="362" type="line"/>
      <point x="218" y="362" type="line"/>
      <point x="232" y="329"/>
      <point x="255" y="255"/>
      <point x="255" y="213" type="curve" smooth="yes"/>
      <point x="255" y="120"/>
      <point x="199" y="66"/>
      <point x="156" y="41" type="curve" smooth="yes"/>
      <point x="128" y="24" type="line"/>
      <point x="128" y="6" type="line"/>
      <point x="157" y="19" type="line" smooth="yes"/>
      <point x="197" y="36"/>
      <point x="229" y="40"/>
      <point x="303" y="40" type="curve" smooth="yes"/>
      <point x="335" y="40"/>
      <point x="374" y="29"/>
      <point x="413" y="13" type="curve" smooth="yes"/>
      <point x="443" y="1"/>
      <point x="483" y="-12"/>
    </contour>
  </outline>
</glyph>
<glyph name="twosuperior" format="2">
  <advance width="497"/>
  <unicode hex="00B2"/>
  <outline>
    <contour>
      <point x="71" y="388" type="line"/>
      <point x="402" y="388" type="line"/>
      <point x="407" y="477" type="line"/>
      <point x="397" y="477" type="line"/>
      <point x="396" y="440" type="line" smooth="yes"/>
      <point x="396" y="403"/>
      <point x="395" y="408"/>
      <point x="322" y="408" type="curve" smooth="yes"/>
      <point x="111" y="408" type="line"/>
      <point x="303" y="581" type="line" smooth="yes"/>
      <point x="408" y="678"/>
      <point x="397" y="687"/>
      <point x="397" y="713" type="curve" smooth="yes"/>
      <point x="397" y="779"/>
      <point x="348" y="827"/>
      <point x="244" y="827" type="curve" smooth="yes"/>
      <point x="126" y="827"/>
      <point x="97" y="757"/>
      <point x="97" y="745" type="curve" smooth="yes"/>
      <point x="97" y="732"/>
      <point x="102" y="724"/>
      <point x="125" y="724" type="curve"/>
      <point x="125" y="759"/>
      <point x="143" y="817"/>
      <point x="242" y="817" type="curve" smooth="yes"/>
      <point x="318" y="817"/>
      <point x="369" y="775"/>
      <point x="369" y="704" type="curve" smooth="yes"/>
      <point x="369" y="665"/>
      <point x="368" y="657"/>
      <point x="269" y="568" type="curve" smooth="yes"/>
      <point x="71" y="401" type="line"/>
    </contour>
  </outline>
</glyph>
<glyph name="threesuperior" format="2">
  <advance width="497"/>
  <unicode hex="00B3"/>
  <outline>
    <contour>
      <point x="243" y="382" type="curve" smooth="yes"/>
      <point x="367" y="382"/>
      <point x="429" y="453"/>
      <point x="429" y="517" type="curve" smooth="yes"/>
      <point x="429" y="561"/>
      <point x="405" y="607"/>
      <point x="310" y="619" type="curve"/>
      <point x="310" y="624" type="line"/>
      <point x="370" y="645"/>
      <point x="408" y="655"/>
      <point x="408" y="713" type="curve" smooth="yes"/>
      <point x="408" y="762"/>
      <point x="373" y="827"/>
      <point x="246" y="827" type="curve" smooth="yes"/>
      <point x="162" y="827"/>
      <point x="88" y="768"/>
      <point x="88" y="723" type="curve" smooth="yes"/>
      <point x="88" y="703"/>
      <point x="96" y="698"/>
      <point x="108" y="700" type="curve"/>
      <point x="108" y="782"/>
      <point x="184" y="817"/>
      <point x="245" y="817" type="curve" smooth="yes"/>
      <point x="342" y="817"/>
      <point x="380" y="782"/>
      <point x="380" y="708" type="curve" smooth="yes"/>
      <point x="380" y="671"/>
      <point x="348" y="624"/>
      <point x="232" y="624" type="curve" smooth="yes"/>
      <point x="181" y="624" type="line"/>
      <point x="181" y="614" type="line"/>
      <point x="224" y="614" type="line" smooth="yes"/>
      <point x="351" y="614"/>
      <point x="401" y="576"/>
      <point x="401" y="523" type="curve" smooth="yes"/>
      <point x="401" y="430"/>
      <point x="342" y="392"/>
      <point x="248" y="392" type="curve" smooth="yes"/>
      <point x="148" y="392"/>
      <point x="112" y="424"/>
      <point x="112" y="520" type="curve"/>
      <point x="86" y="520"/>
      <point x="82" y="509"/>
      <point x="82" y="486" type="curve" smooth="yes"/>
      <point x="82" y="422"/>
      <point x="146" y="382"/>
    </contour>
  </outline>
</glyph>
<glyph name="ordmasculine" format="2">
  <advance width="424"/>
  <unicode hex="00BA"/>
  <outline>
    <contour>
      <point x="210" y="380" type="curve" smooth="yes"/>
      <point x="297" y="380"/>
      <point x="384" y="436"/>
      <point x="384" y="550" type="curve" smooth="yes"/>
      <point x="384" y="666"/>
      <point x="295" y="721"/>
      <point x="212" y="721" type="curve" smooth="yes"/>
      <point x="124" y="721"/>
      <point x="41" y="664"/>
      <point x="41" y="550" type="curve" smooth="yes"/>
      <point x="41" y="435"/>
      <point x="130" y="380"/>
    </contour>
    <contour>
      <point x="210" y="390" type="curve" smooth="yes"/>
      <point x="115" y="390"/>
      <point x="63" y="468"/>
      <point x="63" y="550" type="curve" smooth="yes"/>
      <point x="63" y="630"/>
      <point x="115" y="711"/>
      <point x="209" y="711" type="curve" smooth="yes"/>
      <point x="308" y="711"/>
      <point x="362" y="630"/>
      <point x="362" y="550" type="curve" smooth="yes"/>
      <point x="362" y="468"/>
      <point x="309" y="390"/>
    </contour>
  </outline>
</glyph>
<glyph name="thorn" format="2">
  <advance width="706"/>
  <unicode hex="00FE"/>
  <anchor x="353" y="-240" name="bottom"/>
  <anchor x="353" y="760" name="top"/>
  <outline>
    <contour>
      <point x="30" y="-240" type="line"/>
      <point x="323" y="-240" type="line"/>
      <point x="323" y="-230" type="line"/>
      <point x="256" y="-230" type="line" smooth="yes"/>
      <point x="188" y="-230"/>
      <point x="182" y="-228"/>
      <point x="182" y="-150" type="curve" smooth="yes"/>
      <point x="182" y="-12" type="line" smooth="yes"/>
      <point x="182" y="86"/>
      <point x="182" y="103"/>
      <point x="181" y="170" type="curve"/>
      <point x="184" y="170" type="line"/>
      <point x="207" y="65"/>
      <point x="285" y="-10"/>
      <point x="384" y="-10" type="curve" smooth="yes"/>
      <point x="532" y="-10"/>
      <point x="623" y="80"/>
      <point x="623" y="276" type="curve" smooth="yes"/>
      <point x="623" y="451"/>
      <point x="554" y="546"/>
      <point x="386" y="546" type="curve" smooth="yes"/>
      <point x="276" y="546"/>
      <point x="203" y="467"/>
      <point x="185" y="390" type="curve"/>
      <point x="183" y="390" type="line"/>
      <point x="182" y="387"/>
      <point x="182" y="510"/>
      <point x="182" y="547" type="curve" smooth="yes"/>
      <point x="182" y="760" type="line"/>
      <point x="14" y="760" type="line"/>
      <point x="14" y="750" type="line"/>
      <point x="96" y="750" type="line" smooth="yes"/>
      <point x="141" y="750"/>
      <point x="154" y="748"/>
      <point x="154" y="671" type="curve" smooth="yes"/>
      <point x="154" y="-150" type="line" smooth="yes"/>
      <point x="154" y="-228"/>
      <point x="144" y="-230"/>
      <point x="89" y="-230" type="curve" smooth="yes"/>
      <point x="30" y="-230" type="line"/>
    </contour>
    <contour>
      <point x="391" y="10" type="curve" smooth="yes"/>
      <point x="241" y="10"/>
      <point x="182" y="111"/>
      <point x="182" y="282" type="curve" smooth="yes"/>
      <point x="182" y="408"/>
      <point x="223" y="526"/>
      <point x="388" y="526" type="curve" smooth="yes"/>
      <point x="546" y="526"/>
      <point x="595" y="433"/>
      <point x="595" y="266" type="curve" smooth="yes"/>
      <point x="595" y="90"/>
      <point x="512" y="10"/>
    </contour>
  </outline>
</glyph>
<glyph name="dcroat" format="2">
  <advance width="701"/>
  <unicode hex="0111"/>
  <anchor x="350" y="0" name="bottom"/>
  <anchor x="350" y="760" name="top"/>
  <outline>
    <contour>
      <point x="324" y="-10" type="curve" smooth="yes"/>
      <point x="425" y="-10"/>
      <point x="511" y="62"/>
      <point x="538" y="166" type="curve"/>
      <point x="540" y="166" type="line"/>
      <point x="540" y="0" type="line"/>
      <point x="681" y="0" type="line"/>
      <point x="681" y="10" type="line"/>
      <point x="659" y="10" type="line" smooth="yes"/>
      <point x="567" y="10"/>
      <point x="568" y="11"/>
      <point x="568" y="92" type="curve" smooth="yes"/>
      <point x="568" y="621" type="line"/>
      <point x="672" y="621" type="line"/>
      <point x="672" y="631" type="line"/>
      <point x="568" y="631" type="line"/>
      <point x="568" y="760" type="line"/>
      <point x="423" y="760" type="line"/>
      <point x="423" y="750" type="line"/>
      <point x="468" y="750" type="line" smooth="yes"/>
      <point x="532" y="750"/>
      <point x="540" y="747"/>
      <point x="540" y="678" type="curve" smooth="yes"/>
      <point x="540" y="631" type="line"/>
      <point x="295" y="631" type="line"/>
      <point x="295" y="621" type="line"/>
      <point x="540" y="621" type="line"/>
      <point x="540" y="526" type="line" smooth="yes"/>
      <point x="540" y="511"/>
      <point x="540" y="372"/>
      <point x="542" y="357" type="curve"/>
      <point x="540" y="357" type="line"/>
      <point x="517" y="467"/>
      <point x="434" y="526"/>
      <point x="310" y="526" type="curve" smooth="yes"/>
      <point x="140" y="526"/>
      <point x="83" y="394"/>
      <point x="83" y="261" type="curve" smooth="yes"/>
      <point x="83" y="116"/>
      <point x="176" y="-10"/>
    </contour>
    <contour>
      <point x="323" y="10" type="curve" smooth="yes"/>
      <point x="205" y="6"/>
      <point x="111" y="114"/>
      <point x="111" y="257" type="curve" smooth="yes"/>
      <point x="111" y="389"/>
      <point x="156" y="506"/>
      <point x="308" y="506" type="curve" smooth="yes"/>
      <point x="490" y="506"/>
      <point x="541" y="424"/>
      <point x="541" y="259" type="curve" smooth="yes"/>
      <point x="541" y="116"/>
      <point x="471" y="14"/>
    </contour>
  </outline>
</glyph>
<glyph name="eogonek" format="2">
  <advance width="599"/>
  <unicode hex="0119"/>
  <anchor x="300" y="-194" name="bottom"/>
  <anchor x="300" y="536" name="top"/>
  <outline>
    <contour>
      <point x="370" y="-216" type="curve" smooth="yes"/>
      <point x="395" y="-216"/>
      <point x="422" y="-208"/>
      <point x="444" y="-199" type="curve"/>
      <point x="444" y="-188" type="line"/>
      <point x="410" y="-199"/>
      <point x="400" y="-202"/>
      <point x="368" y="-202" type="curve" smooth="yes"/>
      <point x="305" y="-202"/>
      <point x="272" y="-168"/>
      <point x="272" y="-116" type="curve" smooth="yes"/>
      <point x="272" y="-76"/>
      <point x="320" y="-29"/>
      <point x="405" y="-2" type="curve" smooth="yes"/>
      <point x="481" y="21"/>
      <point x="519" y="63"/>
      <point x="519" y="91" type="curve" smooth="yes"/>
      <point x="519" y="99"/>
      <point x="517" y="102"/>
      <point x="515" y="107" type="curve"/>
      <point x="480" y="36"/>
      <point x="423" y="0"/>
      <point x="329" y="0" type="curve" smooth="yes"/>
      <point x="201" y="0"/>
      <point x="106" y="94"/>
      <point x="110" y="275" type="curve"/>
      <point x="534" y="275" type="line"/>
      <point x="534" y="289" type="line" smooth="yes"/>
      <point x="534" y="451"/>
      <point x="445" y="542"/>
      <point x="317" y="542" type="curve" smooth="yes"/>
      <point x="164" y="542"/>
      <point x="80" y="452"/>
      <point x="80" y="262" type="curve" smooth="yes"/>
      <point x="80" y="85"/>
      <point x="176" y="-10"/>
      <point x="326" y="-10" type="curve" smooth="yes"/>
      <point x="332" y="-10"/>
      <point x="339" y="-10"/>
      <point x="345" y="-9" type="curve"/>
      <point x="273" y="-38"/>
      <point x="248" y="-84"/>
      <point x="248" y="-113" type="curve" smooth="yes"/>
      <point x="248" y="-178"/>
      <point x="287" y="-216"/>
    </contour>
    <contour>
      <point x="112" y="285" type="line"/>
      <point x="122" y="420"/>
      <point x="169" y="532"/>
      <point x="315" y="532" type="curve" smooth="yes"/>
      <point x="432" y="532"/>
      <point x="506" y="418"/>
      <point x="506" y="285" type="curve"/>
    </contour>
  </outline>
</glyph>
<glyph name="hbar" format="2">
  <advance width="733"/>
  <unicode hex="0127"/>
  <anchor x="367" y="0" name="bottom"/>
  <anchor x="367" y="760" name="top"/>
  <outline>
    <contour>
      <point x="20" y="0" type="line"/>
      <point x="297" y="0" type="line"/>
      <point x="297" y="10" type="line"/>
      <point x="264" y="10" type="line" smooth="yes"/>
      <point x="178" y="10"/>
      <point x="176" y="12"/>
      <point x="176" y="82" type="curve" smooth="yes"/>
      <point x="176" y="319" type="line" smooth="yes"/>
      <point x="176" y="437"/>
      <point x="269" y="511"/>
      <point x="395" y="511" type="curve" smooth="yes"/>
      <point x="503" y="511"/>
      <point x="556" y="468"/>
      <point x="556" y="340" type="curve" smooth="yes"/>
      <point x="556" y="0" type="line"/>
      <point x="703" y="0" type="line"/>
      <point x="703" y="10" type="line"/>
      <point x="677" y="10" type="line" smooth="yes"/>
      <point x="587" y="10"/>
      <point x="584" y="9"/>
      <point x="584" y="84" type="curve" smooth="yes"/>
      <point x="584" y="344" type="line" smooth="yes"/>
      <point x="584" y="480"/>
      <point x="518" y="526"/>
      <point x="389" y="526" type="curve" smooth="yes"/>
      <point x="291" y="526"/>
      <point x="211" y="475"/>
      <point x="177" y="380" type="curve"/>
      <point x="175" y="380" type="line"/>
      <point x="177" y="436"/>
      <point x="176" y="439"/>
      <point x="176" y="453" type="curve" smooth="yes"/>
      <point x="176" y="621" type="line"/>
      <point x="405" y="621" type="line"/>
      <point x="405" y="631" type="line"/>
      <point x="176" y="631" type="line"/>
      <point x="176" y="760" type="line"/>
      <point x="37" y="760" type="line"/>
      <point x="37" y="750" type="line"/>
      <point x="71" y="750" type="line" smooth="yes"/>
      <point x="141" y="750"/>
      <point x="148" y="751"/>
      <point x="148" y="670" type="curve" smooth="yes"/>
      <point x="148" y="631" type="line"/>
      <point x="30" y="631" type="line"/>
      <point x="30" y="621" type="line"/>
      <point x="148" y="621" type="line"/>
      <point x="148" y="82" type="line" smooth="yes"/>
      <point x="148" y="12"/>
      <point x="146" y="10"/>
      <point x="61" y="10" type="curve" smooth="yes"/>
      <point x="20" y="10" type="line"/>
    </contour>
  </outline>
</glyph>
<glyph name="Lslash" format="2">
  <advance width="718"/>
  <unicode hex="0141"/>
  <anchor x="360" y="0" name="bottom"/>
  <anchor x="360" y="714" name="top"/>
  <outline>
    <contour>
      <point x="64" y="0" type="line"/>
      <point x="642" y="0" type="line"/>
      <point x="652" y="205" type="line"/>
      <point x="642" y="205" type="line"/>
      <point x="635" y="87" type="line" smooth="yes"/>
      <point x="630" y="18"/>
      <point x="612" y="10"/>
      <point x="488" y="10" type="curve" smooth="yes"/>
      <point x="214" y="10" type="line"/>
      <point x="214" y="330" type="line"/>
      <point x="425" y="430" type="line"/>
      <point x="425" y="440" type="line"/>
      <point x="214" y="340" type="line"/>
      <point x="214" y="614" type="line" smooth="yes"/>
      <point x="214" y="693"/>
      <point x="220" y="704"/>
      <point x="270" y="704" type="curve" smooth="yes"/>
      <point x="330" y="704" type="line"/>
      <point x="330" y="714" type="line"/>
      <point x="64" y="714" type="line"/>
      <point x="64" y="704" type="line"/>
      <point x="134" y="704" type="line" smooth="yes"/>
      <point x="180" y="704"/>
      <point x="188" y="693"/>
      <point x="188" y="614" type="curve" smooth="yes"/>
      <point x="188" y="329" type="line"/>
      <point x="47" y="261" type="line"/>
      <point x="47" y="251" type="line"/>
      <point x="188" y="319" type="line"/>
      <point x="188" y="98" type="line" smooth="yes"/>
      <point x="188" y="21"/>
      <point x="180" y="10"/>
      <point x="136" y="10" type="curve" smooth="yes"/>
      <point x="64" y="10" type="line"/>
    </contour>
  </outline>
</glyph>
<glyph name="oe" format="2">
  <advance width="1061"/>
  <unicode hex="0153"/>
  <anchor x="531" y="0" name="bottom"/>
  <anchor x="531" y="536" name="top"/>
  <outline>
    <contour>
      <point x="325" y="-10" type="curve" smooth="yes"/>
      <point x="454" y="-10"/>
      <point x="531" y="52"/>
      <point x="557" y="169" type="curve"/>
      <point x="584" y="53"/>
      <point x="669" y="-10"/>
      <point x="789" y="-10" type="curve" smooth="yes"/>
      <point x="916" y="-10"/>
      <point x="981" y="56"/>
      <point x="981" y="92" type="curve" smooth="yes"/>
      <point x="981" y="99"/>
      <point x="980" y="108"/>
      <point x="966" y="111" type="curve"/>
      <point x="944" y="41"/>
      <point x="890" y="0"/>
      <point x="791" y="0" type="curve" smooth="yes"/>
      <point x="658" y="0"/>
      <point x="570" y="98"/>
      <point x="573" y="289" type="curve"/>
      <point x="996" y="289" type="line"/>
      <point x="996" y="286" type="line" smooth="yes"/>
      <point x="996" y="438"/>
      <point x="914" y="542"/>
      <point x="779" y="542" type="curve" smooth="yes"/>
      <point x="655" y="542"/>
      <point x="584" y="479"/>
      <point x="558" y="371" type="curve"/>
      <point x="531" y="485"/>
      <point x="456" y="542"/>
      <point x="333" y="542" type="curve" smooth="yes"/>
      <point x="170" y="542"/>
      <point x="82" y="452"/>
      <point x="82" y="267" type="curve" smooth="yes"/>
      <point x="82" y="78"/>
      <point x="179" y="-10"/>
    </contour>
    <contour>
      <point x="324" y="0" type="curve" smooth="yes"/>
      <point x="180" y="0"/>
      <point x="112" y="99"/>
      <point x="110" y="267" type="curve" smooth="yes"/>
      <point x="108" y="449"/>
      <point x="177" y="532"/>
      <point x="335" y="532" type="curve" smooth="yes"/>
      <point x="473" y="532"/>
      <point x="542" y="457"/>
      <point x="542" y="267" type="curve" smooth="yes"/>
      <point x="542" y="113"/>
      <point x="487" y="0"/>
    </contour>
    <contour>
      <point x="576" y="299" type="line"/>
      <point x="587" y="442"/>
      <point x="627" y="532"/>
      <point x="779" y="532" type="curve" smooth="yes"/>
      <point x="891" y="532"/>
      <point x="968" y="452"/>
      <point x="968" y="299" type="curve"/>
    </contour>
  </outline>
</glyph>
<glyph name="uni018A" format="2">
  <advance width="861"/>
  <unicode hex="018A"/>
  <anchor x="428" y="0" name="bottom"/>
  <anchor x="428" y="714" name="top"/>
  <outline>
    <contour>
      <point x="93" y="0" type="line"/>
      <point x="433" y="0" type="line" smooth="yes"/>
      <point x="672" y="0"/>
      <point x="784" y="122"/>
      <point x="784" y="341" type="curve" smooth="yes"/>
      <point x="784" y="562"/>
      <point x="662" y="714"/>
      <point x="424" y="714" type="curve" smooth="yes"/>
      <point x="162" y="714" type="line" smooth="yes"/>
      <point x="70" y="714"/>
      <point x="26" y="685"/>
      <point x="26" y="633" type="curve" smooth="yes"/>
      <point x="26" y="598"/>
      <point x="49" y="576"/>
      <point x="61" y="576" type="curve" smooth="yes"/>
      <point x="76" y="576"/>
      <point x="80" y="581"/>
      <point x="86" y="585" type="curve"/>
      <point x="76" y="595"/>
      <point x="56" y="608"/>
      <point x="56" y="635" type="curve" smooth="yes"/>
      <point x="56" y="700"/>
      <point x="102" y="704"/>
      <point x="166" y="704" type="curve" smooth="yes"/>
      <point x="201" y="704"/>
      <point x="217" y="705"/>
      <point x="217" y="732" type="curve" smooth="yes"/>
      <point x="217" y="96" type="line" smooth="yes"/>
      <point x="217" y="25"/>
      <point x="213" y="10"/>
      <point x="165" y="10" type="curve" smooth="yes"/>
      <point x="93" y="10" type="line"/>
    </contour>
    <contour>
      <point x="245" y="10" type="line"/>
      <point x="245" y="704" type="line"/>
      <point x="406" y="704" type="line" smooth="yes"/>
      <point x="657" y="704"/>
      <point x="756" y="562"/>
      <point x="756" y="341" type="curve" smooth="yes"/>
      <point x="756" y="121"/>
      <point x="661" y="10"/>
      <point x="405" y="10" type="curve" smooth="yes"/>
    </contour>
  </outline>
</glyph>
<glyph name="florin" format="2">
  <advance width="695"/>
  <unicode hex="0192"/>
  <anchor x="298" y="-240" name="bottom"/>
  <anchor x="362" y="724" name="top"/>
  <outline>
    <contour>
      <point x="134" y="-240" type="curve" smooth="yes"/>
      <point x="220" y="-240"/>
      <point x="272" y="-190"/>
      <point x="272" y="-13" type="curve" smooth="yes"/>
      <point x="272" y="422" type="line"/>
      <point x="406" y="422" type="line"/>
      <point x="406" y="432" type="line"/>
      <point x="272" y="432" type="line"/>
      <point x="272" y="570" type="line" smooth="yes"/>
      <point x="272" y="675"/>
      <point x="304" y="714"/>
      <point x="372" y="714" type="curve" smooth="yes"/>
      <point x="432" y="714"/>
      <point x="452" y="666"/>
      <point x="454" y="613" type="curve"/>
      <point x="470" y="614"/>
      <point x="476" y="627"/>
      <point x="476" y="639" type="curve" smooth="yes"/>
      <point x="476" y="684"/>
      <point x="430" y="724"/>
      <point x="375" y="724" type="curve" smooth="yes"/>
      <point x="283" y="724"/>
      <point x="244" y="668"/>
      <point x="244" y="569" type="curve" smooth="yes"/>
      <point x="244" y="432" type="line"/>
      <point x="141" y="432" type="line"/>
      <point x="141" y="422" type="line"/>
      <point x="244" y="422" type="line"/>
      <point x="244" y="-13" type="line" smooth="yes"/>
      <point x="244" y="-168"/>
      <point x="211" y="-230"/>
      <point x="130" y="-230" type="curve" smooth="yes"/>
      <point x="124" y="-230"/>
      <point x="116" y="-229"/>
      <point x="107" y="-227" type="curve"/>
      <point x="107" y="-237" type="line"/>
      <point x="114" y="-239"/>
      <point x="125" y="-240"/>
    </contour>
  </outline>
</glyph>
<glyph name="uni0193" format="2">
  <advance width="789"/>
  <unicode hex="0193"/>
  <anchor x="394" y="0" name="bottom"/>
  <anchor x="394" y="714" name="top"/>
  <outline>
    <contour>
      <point x="458" y="-10" type="curve" smooth="yes"/>
      <point x="556" y="-10"/>
      <point x="625" y="1"/>
      <point x="688" y="25" type="curve"/>
      <point x="688" y="257" type="line" smooth="yes"/>
      <point x="688" y="317"/>
      <point x="696" y="311"/>
      <point x="705" y="311" type="curve" smooth="yes"/>
      <point x="781" y="311" type="line"/>
      <point x="781" y="321" type="line"/>
      <point x="555" y="321" type="line"/>
      <point x="555" y="311" type="line"/>
      <point x="632" y="311" type="line" smooth="yes"/>
      <point x="650" y="311"/>
      <point x="660" y="313"/>
      <point x="660" y="264" type="curve" smooth="yes"/>
      <point x="660" y="26" type="line"/>
      <point x="615" y="11"/>
      <point x="539" y="0"/>
      <point x="478" y="0" type="curve" smooth="yes"/>
      <point x="217" y="0"/>
      <point x="102" y="148"/>
      <point x="102" y="358" type="curve" smooth="yes"/>
      <point x="102" y="637"/>
      <point x="239" y="714"/>
      <point x="457" y="714" type="curve" smooth="yes"/>
      <point x="627" y="714"/>
      <point x="665" y="654"/>
      <point x="665" y="567" type="curve"/>
      <point x="676" y="567"/>
      <point x="690" y="580"/>
      <point x="690" y="605" type="curve" smooth="yes"/>
      <point x="690" y="687" type="line" smooth="yes"/>
      <point x="690" y="772"/>
      <point x="709" y="809"/>
      <point x="754" y="809" type="curve" smooth="yes"/>
      <point x="775" y="809"/>
      <point x="794" y="804"/>
      <point x="814" y="798" type="curve"/>
      <point x="816" y="806"/>
      <point x="819" y="814"/>
      <point x="819" y="814" type="curve" smooth="yes"/>
      <point x="819" y="825"/>
      <point x="782" y="832"/>
      <point x="762" y="832" type="curve" smooth="yes"/>
      <point x="707" y="832"/>
      <point x="680" y="792"/>
      <point x="680" y="697" type="curve" smooth="yes"/>
      <point x="680" y="635" type="line"/>
      <point x="663" y="696"/>
      <point x="570" y="724"/>
      <point x="465" y="724" type="curve" smooth="yes"/>
      <point x="249" y="724"/>
      <point x="74" y="656"/>
      <point x="74" y="358" type="curve" smooth="yes"/>
      <point x="74" y="153"/>
      <point x="202" y="-10"/>
    </contour>
  </outline>
</glyph>
<glyph name="uni0197" format="2">
  <advance width="397"/>
  <unicode hex="0197"/>
  <anchor x="199" y="0" name="bottom"/>
  <anchor x="199" y="714" name="top"/>
  <outline>
    <contour>
      <point x="64" y="0" type="line"/>
      <point x="330" y="0" type="line"/>
      <point x="330" y="10" type="line"/>
      <point x="274" y="10" type="line" smooth="yes"/>
      <point x="218" y="10"/>
      <point x="214" y="21"/>
      <point x="214" y="98" type="curve" smooth="yes"/>
      <point x="214" y="368" type="line"/>
      <point x="295" y="368" type="line"/>
      <point x="295" y="378" type="line"/>
      <point x="214" y="378" type="line"/>
      <point x="214" y="614" type="line" smooth="yes"/>
      <point x="214" y="693"/>
      <point x="216" y="704"/>
      <point x="276" y="704" type="curve" smooth="yes"/>
      <point x="330" y="704" type="line"/>
      <point x="330" y="714" type="line"/>
      <point x="64" y="714" type="line"/>
      <point x="64" y="704" type="line"/>
      <point x="134" y="704" type="line" smooth="yes"/>
      <point x="178" y="704"/>
      <point x="186" y="693"/>
      <point x="186" y="614" type="curve" smooth="yes"/>
      <point x="186" y="378" type="line"/>
      <point x="102" y="378" type="line"/>
      <point x="102" y="368" type="line"/>
      <point x="186" y="368" type="line"/>
      <point x="186" y="98" type="line" smooth="yes"/>
      <point x="186" y="21"/>
      <point x="182" y="10"/>
      <point x="128" y="10" type="curve" smooth="yes"/>
      <point x="64" y="10" type="line"/>
    </contour>
  </outline>
</glyph>
<glyph name="uni0199" format="2">
  <advance width="637"/>
  <unicode hex="0199"/>
  <anchor x="319" y="0" name="bottom"/>
  <anchor x="319" y="766" name="top"/>
  <outline>
    <contour>
      <point x="26" y="0" type="line"/>
      <point x="285" y="0" type="line"/>
      <point x="285" y="10" type="line"/>
      <point x="268" y="10" type="line" smooth="yes"/>
      <point x="178" y="10"/>
      <point x="176" y="12"/>
      <point x="176" y="82" type="curve" smooth="yes"/>
      <point x="176" y="192" type="line"/>
      <point x="292" y="292" type="line"/>
      <point x="423" y="119" type="line" smooth="yes"/>
      <point x="502" y="6"/>
      <point x="510" y="0"/>
      <point x="586" y="0" type="curve" smooth="yes"/>
      <point x="608" y="0" type="line"/>
      <point x="608" y="10" type="line"/>
      <point x="607" y="10" type="line" smooth="yes"/>
      <point x="563" y="10"/>
      <point x="523" y="30"/>
      <point x="457" y="118" type="curve" smooth="yes"/>
      <point x="310" y="306" type="line"/>
      <point x="447" y="416" type="line" smooth="yes"/>
      <point x="556" y="521"/>
      <point x="567" y="526"/>
      <point x="629" y="526" type="curve"/>
      <point x="629" y="536" type="line"/>
      <point x="459" y="536" type="line"/>
      <point x="459" y="526" type="line"/>
      <point x="484" y="526"/>
      <point x="504" y="526"/>
      <point x="504" y="508" type="curve" smooth="yes"/>
      <point x="504" y="495"/>
      <point x="495" y="494"/>
      <point x="390" y="403" type="curve" smooth="yes"/>
      <point x="175" y="209" type="line"/>
      <point x="176" y="279"/>
      <point x="176" y="309"/>
      <point x="176" y="375" type="curve" smooth="yes"/>
      <point x="176" y="666" type="line" smooth="yes"/>
      <point x="176" y="749"/>
      <point x="237" y="756"/>
      <point x="266" y="756" type="curve" smooth="yes"/>
      <point x="286" y="756"/>
      <point x="332" y="765"/>
      <point x="352" y="712" type="curve"/>
      <point x="363" y="718"/>
      <point x="365" y="711"/>
      <point x="365" y="715" type="curve" smooth="yes"/>
      <point x="365" y="737"/>
      <point x="332" y="766"/>
      <point x="271" y="766" type="curve" smooth="yes"/>
      <point x="188" y="766"/>
      <point x="148" y="710"/>
      <point x="148" y="659" type="curve" smooth="yes"/>
      <point x="148" y="82" type="line" smooth="yes"/>
      <point x="148" y="12"/>
      <point x="146" y="10"/>
      <point x="61" y="10" type="curve" smooth="yes"/>
      <point x="26" y="10" type="line"/>
    </contour>
  </outline>
</glyph>
<glyph name="uni01A2" format="2">
  <advance width="1223"/>
  <unicode hex="01A2"/>
  <anchor x="611" y="0" name="bottom"/>
  <anchor x="611" y="714" name="top"/>
  <outline>
    <contour>
      <point x="954" y="-240" type="line"/>
      <point x="1204" y="-240" type="line"/>
      <point x="1204" y="-230" type="line"/>
      <point x="1120" y="-230" type="line" smooth="yes"/>
      <point x="1102" y="-230"/>
      <point x="1090" y="-225"/>
      <point x="1090" y="-168" type="curve" smooth="yes"/>
      <point x="1090" y="566" type="line" smooth="yes"/>
      <point x="1090" y="682"/>
      <point x="1025" y="724"/>
      <point x="915" y="724" type="curve" smooth="yes"/>
      <point x="799" y="724"/>
      <point x="721" y="653"/>
      <point x="717" y="537" type="curve"/>
      <point x="674" y="661"/>
      <point x="570" y="725"/>
      <point x="404" y="725" type="curve" smooth="yes"/>
      <point x="203" y="725"/>
      <point x="72" y="605"/>
      <point x="72" y="359" type="curve" smooth="yes"/>
      <point x="72" y="115"/>
      <point x="185" y="-10"/>
      <point x="408" y="-10" type="curve" smooth="yes"/>
      <point x="652" y="-10"/>
      <point x="745" y="131"/>
      <point x="741" y="354" type="curve" smooth="yes"/>
      <point x="739" y="494" type="line" smooth="yes"/>
      <point x="737" y="638"/>
      <point x="808" y="714"/>
      <point x="911" y="714" type="curve" smooth="yes"/>
      <point x="1006" y="714"/>
      <point x="1062" y="672"/>
      <point x="1062" y="544" type="curve" smooth="yes"/>
      <point x="1062" y="-170" type="line" smooth="yes"/>
      <point x="1062" y="-225"/>
      <point x="1050" y="-230"/>
      <point x="1048" y="-230" type="curve" smooth="yes"/>
      <point x="954" y="-230" type="line"/>
    </contour>
    <contour>
      <point x="408" y="0" type="curve" smooth="yes"/>
      <point x="200" y="0"/>
      <point x="100" y="124"/>
      <point x="100" y="358" type="curve" smooth="yes"/>
      <point x="100" y="594"/>
      <point x="213" y="715"/>
      <point x="405" y="715" type="curve" smooth="yes"/>
      <point x="626" y="715"/>
      <point x="713" y="548"/>
      <point x="713" y="373" type="curve" smooth="yes"/>
      <point x="713" y="338" type="line" smooth="yes"/>
      <point x="713" y="130"/>
      <point x="630" y="0"/>
    </contour>
  </outline>
</glyph>
<glyph name="uni01A3" format="2">
  <advance width="917"/>
  <unicode hex="01A3"/>
  <anchor x="459" y="-240" name="bottom"/>
  <anchor x="459" y="536" name="top"/>
  <outline>
    <contour>
      <point x="743" y="-240" type="line"/>
      <point x="890" y="-240" type="line"/>
      <point x="890" y="-229" type="line"/>
      <point x="805" y="-229" type="line" smooth="yes"/>
      <point x="784" y="-229"/>
      <point x="771" y="-227"/>
      <point x="771" y="-149" type="curve" smooth="yes"/>
      <point x="771" y="383" type="line" smooth="yes"/>
      <point x="771" y="509"/>
      <point x="746" y="542"/>
      <point x="651" y="542" type="curve" smooth="yes"/>
      <point x="600" y="542"/>
      <point x="535" y="526"/>
      <point x="527" y="414" type="curve"/>
      <point x="525" y="414" type="line"/>
      <point x="489" y="503"/>
      <point x="419" y="542"/>
      <point x="321" y="542" type="curve" smooth="yes"/>
      <point x="163" y="542"/>
      <point x="82" y="445"/>
      <point x="82" y="267" type="curve" smooth="yes"/>
      <point x="82" y="85"/>
      <point x="173" y="-10"/>
      <point x="313" y="-10" type="curve" smooth="yes"/>
      <point x="472" y="-10"/>
      <point x="548" y="87"/>
      <point x="548" y="272" type="curve" smooth="yes"/>
      <point x="548" y="382" type="line" smooth="yes"/>
      <point x="548" y="558"/>
      <point x="624" y="532"/>
      <point x="649" y="532" type="curve" smooth="yes"/>
      <point x="731" y="532"/>
      <point x="743" y="504"/>
      <point x="743" y="359" type="curve" smooth="yes"/>
    </contour>
    <contour>
      <point x="313" y="0" type="curve" smooth="yes"/>
      <point x="169" y="0"/>
      <point x="112" y="104"/>
      <point x="110" y="267" type="curve" smooth="yes"/>
      <point x="108" y="442"/>
      <point x="170" y="532"/>
      <point x="323" y="532" type="curve" smooth="yes"/>
      <point x="457" y="532"/>
      <point x="520" y="451"/>
      <point x="520" y="267" type="curve" smooth="yes"/>
      <point x="520" y="127"/>
      <point x="473" y="0"/>
    </contour>
  </outline>
</glyph>
<glyph name="uni01A4" format="2">
  <advance width="718"/>
  <unicode hex="01A4"/>
  <anchor x="359" y="0" name="bottom"/>
  <anchor x="359" y="714" name="top"/>
  <outline>
    <contour>
      <point x="91" y="0" type="line"/>
      <point x="391" y="0" type="line"/>
      <point x="391" y="10" type="line"/>
      <point x="300" y="10" type="line" smooth="yes"/>
      <point x="250" y="10"/>
      <point x="244" y="21"/>
      <point x="244" y="98" type="curve" smooth="yes"/>
      <point x="244" y="284" type="line"/>
      <point x="374" y="284" type="line" smooth="yes"/>
      <point x="582" y="284"/>
      <point x="656" y="367"/>
      <point x="656" y="509" type="curve" smooth="yes"/>
      <point x="656" y="631"/>
      <point x="586" y="714"/>
      <point x="408" y="714" type="curve" smooth="yes"/>
      <point x="161" y="714" type="line" smooth="yes"/>
      <point x="69" y="714"/>
      <point x="25" y="685"/>
      <point x="25" y="633" type="curve" smooth="yes"/>
      <point x="25" y="600"/>
      <point x="45" y="576"/>
      <point x="60" y="576" type="curve" smooth="yes"/>
      <point x="74" y="576"/>
      <point x="80" y="581"/>
      <point x="85" y="584" type="curve"/>
      <point x="74" y="594"/>
      <point x="53" y="614"/>
      <point x="55" y="638" type="curve" smooth="yes"/>
      <point x="58" y="701"/>
      <point x="87" y="704"/>
      <point x="163" y="704" type="curve" smooth="yes"/>
      <point x="206" y="704"/>
      <point x="216" y="709"/>
      <point x="216" y="703" type="curve" smooth="yes"/>
      <point x="216" y="97" type="line" smooth="yes"/>
      <point x="216" y="21"/>
      <point x="210" y="10"/>
      <point x="160" y="10" type="curve" smooth="yes"/>
      <point x="91" y="10" type="line"/>
    </contour>
    <contour>
      <point x="244" y="294" type="line"/>
      <point x="244" y="704" type="line"/>
      <point x="408" y="704" type="line" smooth="yes"/>
      <point x="562" y="704"/>
      <point x="628" y="634"/>
      <point x="628" y="509" type="curve" smooth="yes"/>
      <point x="628" y="367"/>
      <point x="570" y="294"/>
      <point x="369" y="294" type="curve" smooth="yes"/>
    </contour>
  </outline>
</glyph>
<glyph name="uni01A7" format="2">
  <advance width="603"/>
  <unicode hex="01A7"/>
  <anchor x="301" y="0" name="bottom"/>
  <anchor x="301" y="714" name="top"/>
  <outline>
    <contour>
      <point x="277" y="-10" type="curve" smooth="yes"/>
      <point x="437" y="-10"/>
      <point x="501" y="84"/>
      <point x="501" y="102" type="curve" smooth="yes"/>
      <point x="501" y="110"/>
      <point x="494" y="120"/>
      <point x="479" y="118" type="curve"/>
      <point x="450" y="61"/>
      <point x="417" y="0"/>
      <point x="276" y="0" type="curve" smooth="yes"/>
      <point x="150" y="0"/>
      <point x="89" y="75"/>
      <point x="89" y="173" type="curve" smooth="yes"/>
      <point x="89" y="257"/>
      <point x="138" y="305"/>
      <point x="284" y="360" type="curve" smooth="yes"/>
      <point x="445" y="426"/>
      <point x="500" y="482"/>
      <point x="500" y="567" type="curve" smooth="yes"/>
      <point x="500" y="661"/>
      <point x="414" y="724"/>
      <point x="301" y="724" type="curve" smooth="yes"/>
      <point x="174" y="724"/>
      <point x="82" y="657"/>
      <point x="82" y="625" type="curve" smooth="yes"/>
      <point x="82" y="573"/>
      <point x="106" y="577"/>
      <point x="112" y="577" type="curve"/>
      <point x="112" y="675"/>
      <point x="195" y="714"/>
      <point x="299" y="714" type="curve" smooth="yes"/>
      <point x="411" y="714"/>
      <point x="472" y="663"/>
      <point x="472" y="565" type="curve" smooth="yes"/>
      <point x="472" y="478"/>
      <point x="397" y="428"/>
      <point x="281" y="388" type="curve" smooth="yes"/>
      <point x="162" y="346"/>
      <point x="61" y="289"/>
      <point x="61" y="174" type="curve" smooth="yes"/>
      <point x="61" y="80"/>
      <point x="139" y="-10"/>
    </contour>
  </outline>
</glyph>
<glyph name="uni01AC" format="2">
  <advance width="736"/>
  <unicode hex="01AC"/>
  <anchor x="368" y="0" name="bottom"/>
  <anchor x="368" y="714" name="top"/>
  <outline>
    <contour>
      <point x="223" y="0" type="line"/>
      <point x="554" y="0" type="line"/>
      <point x="554" y="10" type="line"/>
      <point x="459" y="10" type="line" smooth="yes"/>
      <point x="409" y="10"/>
      <point x="403" y="21"/>
      <point x="403" y="98" type="curve" smooth="yes"/>
      <point x="403" y="694" type="line"/>
      <point x="615" y="694" type="line" smooth="yes"/>
      <point x="655" y="694"/>
      <point x="673" y="694"/>
      <point x="679" y="609" type="curve" smooth="yes"/>
      <point x="683" y="563" type="line"/>
      <point x="693" y="563" type="line"/>
      <point x="685" y="714" type="line"/>
      <point x="138" y="714" type="line" smooth="yes"/>
      <point x="62" y="714"/>
      <point x="24" y="680"/>
      <point x="24" y="632" type="curve" smooth="yes"/>
      <point x="24" y="584"/>
      <point x="42" y="567"/>
      <point x="60" y="567" type="curve" smooth="yes"/>
      <point x="72" y="567"/>
      <point x="80" y="573"/>
      <point x="81" y="577" type="curve"/>
      <point x="69" y="586"/>
      <point x="52" y="606"/>
      <point x="52" y="633" type="curve" smooth="yes"/>
      <point x="52" y="680"/>
      <point x="92" y="694"/>
      <point x="143" y="694" type="curve" smooth="yes"/>
      <point x="375" y="694" type="line"/>
      <point x="375" y="98" type="line" smooth="yes"/>
      <point x="375" y="21"/>
      <point x="369" y="10"/>
      <point x="313" y="10" type="curve" smooth="yes"/>
      <point x="223" y="10" type="line"/>
    </contour>
  </outline>
</glyph>
<glyph name="uni01B2" format="2">
  <advance width="804"/>
  <unicode hex="01B2"/>
  <anchor x="403" y="0" name="bottom"/>
  <anchor x="403" y="714" name="top"/>
  <outline>
    <contour>
      <point x="344" y="-10" type="curve" smooth="yes"/>
      <point x="606" y="-10"/>
      <point x="730" y="182"/>
      <point x="730" y="502" type="curve" smooth="yes"/>
      <point x="730" y="601"/>
      <point x="706" y="727"/>
      <point x="581" y="727" type="curve" smooth="yes"/>
      <point x="555" y="727"/>
      <point x="531" y="722"/>
      <point x="531" y="697" type="curve"/>
      <point x="651" y="697"/>
      <point x="707" y="627"/>
      <point x="707" y="506" type="curve" smooth="yes"/>
      <point x="707" y="103"/>
      <point x="562" y="5"/>
      <point x="347" y="5" type="curve" smooth="yes"/>
      <point x="247" y="5"/>
      <point x="165" y="62"/>
      <point x="165" y="160" type="curve" smooth="yes"/>
      <point x="165" y="614" type="line" smooth="yes"/>
      <point x="165" y="692"/>
      <point x="168" y="704"/>
      <point x="227" y="704" type="curve" smooth="yes"/>
      <point x="282" y="704" type="line"/>
      <point x="282" y="714" type="line"/>
      <point x="16" y="714" type="line"/>
      <point x="16" y="704" type="line"/>
      <point x="83" y="704" type="line" smooth="yes"/>
      <point x="131" y="704"/>
      <point x="137" y="693"/>
      <point x="137" y="611" type="curve" smooth="yes"/>
      <point x="137" y="168" type="line" smooth="yes"/>
      <point x="137" y="43"/>
      <point x="238" y="-10"/>
    </contour>
  </outline>
</glyph>
<glyph name="uni01C0" format="2">
  <advance width="460"/>
  <unicode hex="01C0"/>
  <anchor x="230" y="0" name="bottom"/>
  <anchor x="230" y="760" name="top"/>
  <outline>
    <contour>
      <point x="220" y="0" type="line"/>
      <point x="240" y="0" type="line"/>
      <point x="240" y="760" type="line"/>
      <point x="220" y="760" type="line"/>
    </contour>
  </outline>
</glyph>
<glyph name="uni01E4" format="2">
  <advance width="789"/>
  <unicode hex="01E4"/>
  <anchor x="394" y="0" name="bottom"/>
  <anchor x="394" y="714" name="top"/>
  <outline>
    <contour>
      <point x="458" y="-10" type="curve" smooth="yes"/>
      <point x="556" y="-10"/>
      <point x="625" y="1"/>
      <point x="688" y="25" type="curve"/>
      <point x="688" y="182" type="line"/>
      <point x="813" y="182" type="line"/>
      <point x="813" y="192" type="line"/>
      <point x="688" y="192" type="line"/>
      <point x="688" y="213" type="line" smooth="yes"/>
      <point x="688" y="297"/>
      <point x="692" y="311"/>
      <point x="747" y="311" type="curve" smooth="yes"/>
      <point x="781" y="311" type="line"/>
      <point x="781" y="321" type="line"/>
      <point x="555" y="321" type="line"/>
      <point x="555" y="311" type="line"/>
      <point x="610" y="311" type="line" smooth="yes"/>
      <point x="656" y="311"/>
      <point x="660" y="267"/>
      <point x="660" y="182" type="curve" smooth="yes"/>
      <point x="660" y="192" type="line"/>
      <point x="518" y="192" type="line"/>
      <point x="518" y="182" type="line"/>
      <point x="660" y="182" type="line"/>
      <point x="660" y="25" type="line"/>
      <point x="615" y="8"/>
      <point x="539" y="0"/>
      <point x="478" y="0" type="curve" smooth="yes"/>
      <point x="217" y="0"/>
      <point x="102" y="148"/>
      <point x="102" y="358" type="curve" smooth="yes"/>
      <point x="102" y="579"/>
      <point x="249" y="714"/>
      <point x="457" y="714" type="curve" smooth="yes"/>
      <point x="627" y="714"/>
      <point x="664" y="684"/>
      <point x="664" y="567" type="curve"/>
      <point x="682" y="567"/>
      <point x="690" y="580"/>
      <point x="690" y="605" type="curve" smooth="yes"/>
      <point x="690" y="673"/>
      <point x="643" y="724"/>
      <point x="465" y="724" type="curve" smooth="yes"/>
      <point x="229" y="724"/>
      <point x="74" y="568"/>
      <point x="74" y="358" type="curve" smooth="yes"/>
      <point x="74" y="153"/>
      <point x="202" y="-10"/>
    </contour>
  </outline>
</glyph>
<glyph name="uni0238" format="2">
  <advance width="1074"/>
  <unicode hex="0238"/>
  <anchor x="537" y="0" name="bottom"/>
  <anchor x="537" y="760" name="top"/>
  <outline>
    <contour>
      <point x="326" y="-10" type="curve" smooth="yes"/>
      <point x="360" y="-10"/>
      <point x="512" y="-28"/>
      <point x="537" y="236" type="curve"/>
      <point x="560" y="-33"/>
      <point x="707" y="-10"/>
      <point x="747" y="-10" type="curve" smooth="yes"/>
      <point x="895" y="-10"/>
      <point x="995" y="105"/>
      <point x="995" y="268" type="curve" smooth="yes"/>
      <point x="995" y="442"/>
      <point x="943" y="546"/>
      <point x="774" y="546" type="curve" smooth="yes"/>
      <point x="661" y="546"/>
      <point x="583" y="482"/>
      <point x="550" y="353" type="curve"/>
      <point x="548" y="353" type="line"/>
      <point x="549" y="433"/>
      <point x="551" y="526"/>
      <point x="551" y="559" type="curve" smooth="yes"/>
      <point x="551" y="760" type="line"/>
      <point x="408" y="760" type="line"/>
      <point x="408" y="750" type="line"/>
      <point x="452" y="750" type="line" smooth="yes"/>
      <point x="515" y="750"/>
      <point x="523" y="747"/>
      <point x="523" y="670" type="curve" smooth="yes"/>
      <point x="523" y="556" type="line" smooth="yes"/>
      <point x="523" y="497"/>
      <point x="527" y="429"/>
      <point x="525" y="358" type="curve"/>
      <point x="523" y="358" type="line"/>
      <point x="493" y="478"/>
      <point x="413" y="546"/>
      <point x="297" y="546" type="curve" smooth="yes"/>
      <point x="143" y="546"/>
      <point x="80" y="461"/>
      <point x="80" y="267" type="curve" smooth="yes"/>
      <point x="80" y="97"/>
      <point x="181" y="-10"/>
    </contour>
    <contour>
      <point x="314" y="2" type="curve" smooth="yes"/>
      <point x="177" y="2"/>
      <point x="108" y="121"/>
      <point x="108" y="273" type="curve" smooth="yes"/>
      <point x="108" y="457"/>
      <point x="165" y="526"/>
      <point x="307" y="526" type="curve" smooth="yes"/>
      <point x="449" y="526"/>
      <point x="525" y="424"/>
      <point x="525" y="273" type="curve" smooth="yes"/>
      <point x="525" y="117"/>
      <point x="473" y="2"/>
    </contour>
    <contour>
      <point x="759" y="2" type="curve" smooth="yes"/>
      <point x="593" y="2"/>
      <point x="549" y="119"/>
      <point x="549" y="273" type="curve" smooth="yes"/>
      <point x="549" y="428"/>
      <point x="626" y="526"/>
      <point x="768" y="526" type="curve" smooth="yes"/>
      <point x="917" y="526"/>
      <point x="967" y="441"/>
      <point x="967" y="274" type="curve" smooth="yes"/>
      <point x="967" y="128"/>
      <point x="894" y="2"/>
    </contour>
  </outline>
</glyph>
<glyph name="uni023B" format="2">
  <advance width="673"/>
  <unicode hex="023B"/>
  <anchor x="376" y="-111" name="bottom"/>
  <anchor x="376" y="714" name="top"/>
  <anchor x="653" y="714" name="topright"/>
  <outline>
    <contour>
      <point x="197" y="-111" type="line"/>
      <point x="209" y="-111" type="line"/>
      <point x="539" y="760" type="line"/>
      <point x="527" y="760" type="line"/>
    </contour>
    <component base="C"/>
  </outline>
</glyph>
<glyph name="uni024F" format="2">
  <advance width="675"/>
  <unicode hex="024F"/>
  <anchor x="337" y="-240" name="bottom"/>
  <anchor x="337" y="536" name="top"/>
  <anchor x="665" y="536" name="topright"/>
  <outline>
    <contour>
      <point x="21" y="328" type="line"/>
      <point x="657" y="328" type="line"/>
      <point x="657" y="338" type="line"/>
      <point x="21" y="338" type="line"/>
    </contour>
    <component base="y" xOffset="-2"/>
  </outline>
</glyph>
<glyph name="uni0254" format="2">
  <advance width="540"/>
  <unicode hex="0254"/>
  <anchor x="270" y="0" name="bottom"/>
  <anchor x="270" y="536" name="top"/>
  <outline>
    <contour>
      <point x="220" y="-10" type="curve" smooth="yes"/>
      <point x="363" y="-10"/>
      <point x="460" y="61"/>
      <point x="460" y="270" type="curve" smooth="yes"/>
      <point x="460" y="472"/>
      <point x="348" y="542"/>
      <point x="218" y="542" type="curve" smooth="yes"/>
      <point x="113" y="542"/>
      <point x="40" y="494"/>
      <point x="40" y="430" type="curve" smooth="yes"/>
      <point x="40" y="399"/>
      <point x="57" y="385"/>
      <point x="87" y="390" type="curve"/>
      <point x="76" y="468"/>
      <point x="115" y="532"/>
      <point x="222" y="532" type="curve" smooth="yes"/>
      <point x="324" y="532"/>
      <point x="432" y="468"/>
      <point x="432" y="268" type="curve" smooth="yes"/>
      <point x="432" y="78"/>
      <point x="357" y="0"/>
      <point x="228" y="0" type="curve" smooth="yes"/>
      <point x="120" y="0"/>
      <point x="61" y="71"/>
      <point x="61" y="126" type="curve"/>
      <point x="50" y="126"/>
      <point x="41" y="112"/>
      <point x="41" y="100" type="curve" smooth="yes"/>
      <point x="41" y="45"/>
      <point x="108" y="-10"/>
    </contour>
  </outline>
</glyph>
<glyph name="uni0256" format="2">
  <advance width="701"/>
  <unicode hex="0256"/>
  <anchor x="350" y="-240" name="bottom"/>
  <anchor x="350" y="760" name="top"/>
  <outline>
    <contour>
      <point x="629" y="-240" type="curve" smooth="yes"/>
      <point x="664" y="-240"/>
      <point x="690" y="-240"/>
      <point x="730" y="-230" type="curve"/>
      <point x="730" y="-220" type="line"/>
      <point x="699" y="-229"/>
      <point x="672" y="-230"/>
      <point x="645" y="-230" type="curve" smooth="yes"/>
      <point x="559" y="-230"/>
      <point x="568" y="-142"/>
      <point x="568" y="-97" type="curve" smooth="yes"/>
      <point x="568" y="760" type="line"/>
      <point x="423" y="760" type="line"/>
      <point x="423" y="750" type="line"/>
      <point x="468" y="750" type="line" smooth="yes"/>
      <point x="532" y="750"/>
      <point x="540" y="747"/>
      <point x="540" y="678" type="curve" smooth="yes"/>
      <point x="540" y="542" type="line" smooth="yes"/>
      <point x="540" y="521"/>
      <point x="540" y="388"/>
      <point x="542" y="373" type="curve"/>
      <point x="540" y="373" type="line"/>
      <point x="517" y="483"/>
      <point x="434" y="542"/>
      <point x="310" y="542" type="curve" smooth="yes"/>
      <point x="140" y="542"/>
      <point x="83" y="410"/>
      <point x="83" y="267" type="curve" smooth="yes"/>
      <point x="83" y="116"/>
      <point x="176" y="-10"/>
      <point x="324" y="-10" type="curve" smooth="yes"/>
      <point x="425" y="-10"/>
      <point x="511" y="62"/>
      <point x="538" y="166" type="curve"/>
      <point x="540" y="166" type="line"/>
      <point x="540" y="96"/>
      <point x="540" y="23"/>
      <point x="540" y="-47" type="curve" smooth="yes"/>
      <point x="540" y="-131" type="line" smooth="yes"/>
      <point x="540" y="-212"/>
      <point x="589" y="-240"/>
    </contour>
    <contour>
      <point x="323" y="10" type="curve" smooth="yes"/>
      <point x="205" y="6"/>
      <point x="111" y="114"/>
      <point x="111" y="263" type="curve" smooth="yes"/>
      <point x="111" y="405"/>
      <point x="156" y="522"/>
      <point x="308" y="522" type="curve" smooth="yes"/>
      <point x="490" y="522"/>
      <point x="541" y="440"/>
      <point x="541" y="265" type="curve" smooth="yes"/>
      <point x="541" y="116"/>
      <point x="471" y="14"/>
    </contour>
  </outline>
</glyph>
<glyph name="uni025F" format="2">
  <advance width="355"/>
  <unicode hex="025F"/>
  <anchor x="177" y="-240" name="bottom"/>
  <anchor x="177" y="536" name="top"/>
  <outline>
    <contour>
      <point x="40" y="-240" type="line"/>
      <point x="63" y="-240" type="line" smooth="yes"/>
      <point x="159" y="-240"/>
      <point x="217" y="-173"/>
      <point x="217" y="2" type="curve" smooth="yes"/>
      <point x="217" y="343" type="line"/>
      <point x="319" y="343" type="line"/>
      <point x="319" y="353" type="line"/>
      <point x="217" y="353" type="line"/>
      <point x="217" y="536" type="line"/>
      <point x="86" y="536" type="line"/>
      <point x="86" y="526" type="line"/>
      <point x="111" y="526" type="line" smooth="yes"/>
      <point x="181" y="526"/>
      <point x="189" y="528"/>
      <point x="189" y="446" type="curve" smooth="yes"/>
      <point x="189" y="353" type="line"/>
      <point x="79" y="353" type="line"/>
      <point x="79" y="343" type="line"/>
      <point x="189" y="343" type="line"/>
      <point x="189" y="19" type="line" smooth="yes"/>
      <point x="189" y="-174"/>
      <point x="140" y="-230"/>
      <point x="57" y="-230" type="curve" smooth="yes"/>
      <point x="40" y="-230" type="line"/>
    </contour>
  </outline>
</glyph>
<glyph name="uni0260" format="2">
  <advance width="701"/>
  <unicode hex="0260"/>
  <anchor x="350" y="-238" name="bottom"/>
  <anchor x="350" y="766" name="top"/>
  <outline>
    <contour>
      <point x="301" y="-238" type="curve" smooth="yes"/>
      <point x="392" y="-238"/>
      <point x="568" y="-235"/>
      <point x="568" y="-62" type="curve" smooth="yes"/>
      <point x="568" y="697" type="line" smooth="yes"/>
      <point x="568" y="748"/>
      <point x="614" y="756"/>
      <point x="659" y="756" type="curve" smooth="yes"/>
      <point x="684" y="756"/>
      <point x="724" y="767"/>
      <point x="748" y="710" type="curve"/>
      <point x="754" y="712"/>
      <point x="757" y="712"/>
      <point x="757" y="715" type="curve" smooth="yes"/>
      <point x="757" y="742"/>
      <point x="720" y="766"/>
      <point x="661" y="766" type="curve" smooth="yes"/>
      <point x="556" y="766"/>
      <point x="540" y="708"/>
      <point x="540" y="693" type="curve" smooth="yes"/>
      <point x="540" y="542" type="line" smooth="yes"/>
      <point x="540" y="483"/>
      <point x="540" y="422"/>
      <point x="538" y="389" type="curve"/>
      <point x="536" y="389" type="line"/>
      <point x="517" y="473"/>
      <point x="444" y="548"/>
      <point x="340" y="548" type="curve" smooth="yes"/>
      <point x="158" y="548"/>
      <point x="81" y="440"/>
      <point x="81" y="263" type="curve" smooth="yes"/>
      <point x="81" y="86"/>
      <point x="166" y="-10"/>
      <point x="320" y="-10" type="curve" smooth="yes"/>
      <point x="451" y="-10"/>
      <point x="525" y="104"/>
      <point x="540" y="186" type="curve"/>
      <point x="542" y="186" type="line"/>
      <point x="540" y="193"/>
      <point x="540" y="147"/>
      <point x="540" y="96" type="curve" smooth="yes"/>
      <point x="540" y="-21" type="line" smooth="yes"/>
      <point x="540" y="-81"/>
      <point x="535" y="-228"/>
      <point x="301" y="-228" type="curve" smooth="yes"/>
      <point x="176" y="-228"/>
      <point x="151" y="-155"/>
      <point x="151" y="-115" type="curve"/>
      <point x="135" y="-115"/>
      <point x="117" y="-117"/>
      <point x="117" y="-135" type="curve" smooth="yes"/>
      <point x="117" y="-197"/>
      <point x="201" y="-238"/>
    </contour>
    <contour>
      <point x="321" y="10" type="curve" smooth="yes"/>
      <point x="171" y="10"/>
      <point x="109" y="94"/>
      <point x="109" y="263" type="curve" smooth="yes"/>
      <point x="109" y="429"/>
      <point x="172" y="528"/>
      <point x="342" y="528" type="curve" smooth="yes"/>
      <point x="492" y="528"/>
      <point x="539" y="422"/>
      <point x="539" y="269" type="curve" smooth="yes"/>
      <point x="539" y="42"/>
      <point x="411" y="10"/>
    </contour>
  </outline>
</glyph>
<glyph name="uni0262" format="2">
  <advance width="717"/>
  <unicode hex="0262"/>
  <anchor x="359" y="0" name="bottom"/>
  <anchor x="359" y="536" name="top"/>
  <outline>
    <contour>
      <point x="358" y="-9" type="curve" smooth="yes"/>
      <point x="389" y="-9"/>
      <point x="492" y="-6"/>
      <point x="564" y="29" type="curve"/>
      <point x="564" y="231" type="line" smooth="yes"/>
      <point x="564" y="235"/>
      <point x="588" y="245"/>
      <point x="613" y="245" type="curve" smooth="yes"/>
      <point x="675" y="245" type="line"/>
      <point x="675" y="255" type="line"/>
      <point x="415" y="255" type="line"/>
      <point x="415" y="245" type="line"/>
      <point x="491" y="245" type="line" smooth="yes"/>
      <point x="512" y="245"/>
      <point x="536" y="251"/>
      <point x="536" y="255" type="curve" smooth="yes"/>
      <point x="536" y="37" type="line"/>
      <point x="501" y="21"/>
      <point x="461" y="1"/>
      <point x="357" y="1" type="curve" smooth="yes"/>
      <point x="172" y="1"/>
      <point x="110" y="114"/>
      <point x="110" y="278" type="curve" smooth="yes"/>
      <point x="110" y="432"/>
      <point x="202" y="532"/>
      <point x="374" y="532" type="curve" smooth="yes"/>
      <point x="507" y="532"/>
      <point x="543" y="451"/>
      <point x="544" y="412" type="curve"/>
      <point x="576" y="412"/>
      <point x="576" y="427"/>
      <point x="576" y="423" type="curve" smooth="yes"/>
      <point x="576" y="514"/>
      <point x="460" y="542"/>
      <point x="380" y="542" type="curve" smooth="yes"/>
      <point x="181" y="542"/>
      <point x="82" y="421"/>
      <point x="82" y="278" type="curve" smooth="yes"/>
      <point x="82" y="92"/>
      <point x="169" y="-9"/>
    </contour>
  </outline>
</glyph>
<glyph name="uni0265" format="2">
  <advance width="733"/>
  <unicode hex="0265"/>
  <anchor x="375" y="-240" name="bottom"/>
  <anchor x="375" y="536" name="top"/>
  <outline>
    <contour>
      <point x="567" y="-224" type="line"/>
      <point x="706" y="-224" type="line"/>
      <point x="706" y="-214" type="line"/>
      <point x="672" y="-214" type="line" smooth="yes"/>
      <point x="602" y="-214"/>
      <point x="595" y="-215"/>
      <point x="595" y="-134" type="curve" smooth="yes"/>
      <point x="595" y="454" type="line" smooth="yes"/>
      <point x="595" y="524"/>
      <point x="597" y="526"/>
      <point x="682" y="526" type="curve" smooth="yes"/>
      <point x="723" y="526" type="line"/>
      <point x="723" y="536" type="line"/>
      <point x="446" y="536" type="line"/>
      <point x="446" y="526" type="line"/>
      <point x="479" y="526" type="line" smooth="yes"/>
      <point x="565" y="526"/>
      <point x="567" y="524"/>
      <point x="567" y="454" type="curve" smooth="yes"/>
      <point x="567" y="201" type="line" smooth="yes"/>
      <point x="567" y="83"/>
      <point x="474" y="9"/>
      <point x="348" y="9" type="curve" smooth="yes"/>
      <point x="240" y="9"/>
      <point x="187" y="52"/>
      <point x="187" y="180" type="curve" smooth="yes"/>
      <point x="187" y="536" type="line"/>
      <point x="40" y="536" type="line"/>
      <point x="40" y="526" type="line"/>
      <point x="66" y="526" type="line" smooth="yes"/>
      <point x="156" y="526"/>
      <point x="159" y="527"/>
      <point x="159" y="452" type="curve" smooth="yes"/>
      <point x="159" y="176" type="line" smooth="yes"/>
      <point x="159" y="40"/>
      <point x="225" y="-6"/>
      <point x="354" y="-6" type="curve" smooth="yes"/>
      <point x="452" y="-6"/>
      <point x="532" y="45"/>
      <point x="566" y="140" type="curve"/>
      <point x="568" y="140" type="line"/>
      <point x="567" y="113"/>
      <point x="567" y="89"/>
      <point x="567" y="67" type="curve" smooth="yes"/>
    </contour>
  </outline>
</glyph>
<glyph name="uni026B" format="2">
  <advance width="383"/>
  <unicode hex="026B"/>
  <anchor x="191" y="0" name="bottom"/>
  <anchor x="191" y="760" name="top"/>
  <anchor x="228" y="760" name="topright"/>
  <anchor x="183" y="268" name="center"/>
  <outline>
    <contour>
      <point x="6" y="327" type="curve"/>
      <point x="16" y="327" type="line"/>
      <point x="17" y="380"/>
      <point x="58" y="382"/>
      <point x="85" y="382" type="curve" smooth="yes"/>
      <point x="151" y="382"/>
      <point x="217" y="350"/>
      <point x="286" y="350" type="curve" smooth="yes"/>
      <point x="325" y="350"/>
      <point x="371" y="373"/>
      <point x="373" y="446" type="curve"/>
      <point x="363" y="446" type="line"/>
      <point x="361" y="383"/>
      <point x="330" y="378"/>
      <point x="302" y="378" type="curve" smooth="yes"/>
      <point x="234" y="378"/>
      <point x="161" y="410"/>
      <point x="102" y="410" type="curve" smooth="yes"/>
      <point x="50" y="410"/>
      <point x="5" y="398"/>
    </contour>
    <component base="l" xOffset="29"/>
  </outline>
</glyph>
<glyph name="uni0272" format="2">
  <advance width="761"/>
  <unicode hex="0272"/>
  <anchor x="377" y="-238" name="bottom"/>
  <anchor x="377" y="536" name="top"/>
  <outline>
    <contour>
      <point x="76" y="-238" type="curve" smooth="yes"/>
      <point x="154" y="-238"/>
      <point x="197" y="-185"/>
      <point x="197" y="-189" type="curve" smooth="yes"/>
      <point x="197" y="355" type="line" smooth="yes"/>
      <point x="197" y="389"/>
      <point x="214" y="527"/>
      <point x="409" y="527" type="curve" smooth="yes"/>
      <point x="538" y="527"/>
      <point x="583" y="461"/>
      <point x="583" y="386" type="curve" smooth="yes"/>
      <point x="583" y="0" type="line"/>
      <point x="727" y="0" type="line"/>
      <point x="727" y="10" type="line"/>
      <point x="701" y="10" type="line" smooth="yes"/>
      <point x="613" y="10"/>
      <point x="611" y="12"/>
      <point x="611" y="82" type="curve" smooth="yes"/>
      <point x="611" y="351" type="line" smooth="yes"/>
      <point x="611" y="478"/>
      <point x="549" y="542"/>
      <point x="409" y="542" type="curve" smooth="yes"/>
      <point x="319" y="542"/>
      <point x="230" y="503"/>
      <point x="200" y="423" type="curve"/>
      <point x="198" y="423" type="line"/>
      <point x="198" y="536" type="line"/>
      <point x="51" y="536" type="line"/>
      <point x="51" y="526" type="line"/>
      <point x="102" y="526" type="line" smooth="yes"/>
      <point x="161" y="526"/>
      <point x="169" y="521"/>
      <point x="169" y="453" type="curve" smooth="yes"/>
      <point x="169" y="-200" type="line" smooth="yes"/>
      <point x="169" y="-230"/>
      <point x="104" y="-228"/>
      <point x="74" y="-228" type="curve" smooth="yes"/>
      <point x="58" y="-228"/>
      <point x="6" y="-238"/>
      <point x="-14" y="-182" type="curve"/>
      <point x="-15" y="-186"/>
      <point x="-20" y="-181"/>
      <point x="-20" y="-188" type="curve" smooth="yes"/>
      <point x="-20" y="-212"/>
      <point x="14" y="-238"/>
    </contour>
  </outline>
</glyph>
<glyph name="uni0273" format="2">
  <advance width="761"/>
  <unicode hex="0273"/>
  <anchor x="381" y="-240" name="bottom"/>
  <anchor x="381" y="536" name="top"/>
  <outline>
    <contour>
      <point x="691" y="-240" type="curve" smooth="yes"/>
      <point x="724" y="-240"/>
      <point x="750" y="-237"/>
      <point x="773" y="-231" type="curve"/>
      <point x="773" y="-222" type="line"/>
      <point x="751" y="-227"/>
      <point x="728" y="-230"/>
      <point x="691" y="-230" type="curve" smooth="yes"/>
      <point x="642" y="-230"/>
      <point x="615" y="-208"/>
      <point x="615" y="-158" type="curve" smooth="yes"/>
      <point x="615" y="351" type="line" smooth="yes"/>
      <point x="615" y="478"/>
      <point x="553" y="542"/>
      <point x="413" y="542" type="curve" smooth="yes"/>
      <point x="323" y="542"/>
      <point x="234" y="503"/>
      <point x="204" y="423" type="curve"/>
      <point x="202" y="423" type="line"/>
      <point x="202" y="536" type="line"/>
      <point x="55" y="536" type="line"/>
      <point x="55" y="526" type="line"/>
      <point x="106" y="526" type="line" smooth="yes"/>
      <point x="165" y="526"/>
      <point x="173" y="521"/>
      <point x="173" y="453" type="curve" smooth="yes"/>
      <point x="173" y="82" type="line" smooth="yes"/>
      <point x="173" y="12"/>
      <point x="171" y="10"/>
      <point x="86" y="10" type="curve" smooth="yes"/>
      <point x="48" y="10" type="line"/>
      <point x="48" y="0" type="line"/>
      <point x="315" y="0" type="line"/>
      <point x="315" y="10" type="line"/>
      <point x="289" y="10" type="line" smooth="yes"/>
      <point x="203" y="10"/>
      <point x="201" y="12"/>
      <point x="201" y="82" type="curve" smooth="yes"/>
      <point x="201" y="355" type="line" smooth="yes"/>
      <point x="201" y="389"/>
      <point x="218" y="527"/>
      <point x="413" y="527" type="curve" smooth="yes"/>
      <point x="542" y="527"/>
      <point x="587" y="461"/>
      <point x="587" y="386" type="curve" smooth="yes"/>
      <point x="587" y="-148" type="line" smooth="yes"/>
      <point x="587" y="-204"/>
      <point x="617" y="-240"/>
    </contour>
  </outline>
</glyph>
<glyph name="uni027A" format="2">
  <advance width="442"/>
  <unicode hex="027A"/>
  <anchor x="222" y="0" name="bottom"/>
  <anchor x="222" y="760" name="top"/>
  <outline>
    <contour>
      <point x="123" y="-8" type="curve" smooth="yes"/>
      <point x="209" y="-8"/>
      <point x="269" y="87"/>
      <point x="291" y="162" type="curve"/>
      <point x="291" y="162" type="line"/>
      <point x="291" y="0" type="line"/>
      <point x="437" y="0" type="line"/>
      <point x="437" y="10" type="line"/>
      <point x="364" y="10" type="line" smooth="yes"/>
      <point x="320" y="10"/>
      <point x="320" y="13"/>
      <point x="320" y="82" type="curve" smooth="yes"/>
      <point x="320" y="760" type="line"/>
      <point x="158" y="760" type="line"/>
      <point x="158" y="750" type="line"/>
      <point x="229" y="750" type="line" smooth="yes"/>
      <point x="294" y="750"/>
      <point x="292" y="747"/>
      <point x="292" y="670" type="curve" smooth="yes"/>
      <point x="292" y="222" type="line" smooth="yes"/>
      <point x="292" y="135"/>
      <point x="219" y="7"/>
      <point x="129" y="7" type="curve" smooth="yes"/>
      <point x="81" y="7"/>
      <point x="51" y="21"/>
      <point x="51" y="93" type="curve"/>
      <point x="25" y="93"/>
      <point x="19" y="80"/>
      <point x="19" y="68" type="curve" smooth="yes"/>
      <point x="19" y="25"/>
      <point x="65" y="-8"/>
    </contour>
  </outline>
</glyph>
<glyph name="rlongleg" format="2">
  <advance width="492"/>
  <unicode hex="027C"/>
  <anchor x="247" y="-240" name="bottom"/>
  <anchor x="247" y="536" name="top"/>
  <outline>
    <contour>
      <point x="62" y="-240" type="line"/>
      <point x="324" y="-240" type="line"/>
      <point x="324" y="-230" type="line"/>
      <point x="265" y="-230" type="line" smooth="yes"/>
      <point x="208" y="-230"/>
      <point x="200" y="-227"/>
      <point x="200" y="-150" type="curve" smooth="yes"/>
      <point x="200" y="320" type="line" smooth="yes"/>
      <point x="200" y="423"/>
      <point x="273" y="529"/>
      <point x="363" y="529" type="curve" smooth="yes"/>
      <point x="419" y="529"/>
      <point x="447" y="499"/>
      <point x="447" y="443" type="curve"/>
      <point x="469" y="443"/>
      <point x="473" y="456"/>
      <point x="473" y="468" type="curve" smooth="yes"/>
      <point x="473" y="511"/>
      <point x="427" y="544"/>
      <point x="369" y="544" type="curve" smooth="yes"/>
      <point x="283" y="544"/>
      <point x="219" y="445"/>
      <point x="201" y="390" type="curve"/>
      <point x="199" y="390" type="line"/>
      <point x="193" y="536" type="line"/>
      <point x="55" y="536" type="line"/>
      <point x="55" y="526" type="line"/>
      <point x="88" y="526" type="line" smooth="yes"/>
      <point x="170" y="526"/>
      <point x="172" y="523"/>
      <point x="172" y="454" type="curve" smooth="yes"/>
      <point x="172" y="-150" type="line" smooth="yes"/>
      <point x="172" y="-227"/>
      <point x="164" y="-230"/>
      <point x="105" y="-230" type="curve" smooth="yes"/>
      <point x="62" y="-230" type="line"/>
    </contour>
  </outline>
</glyph>
<glyph name="uni027D" format="2">
  <advance width="492"/>
  <unicode hex="027D"/>
  <anchor x="247" y="-241" name="bottom"/>
  <anchor x="247" y="536" name="top"/>
  <outline>
    <contour>
      <point x="272" y="-241" type="curve" smooth="yes"/>
      <point x="307" y="-241"/>
      <point x="336" y="-238"/>
      <point x="357" y="-231" type="curve"/>
      <point x="357" y="-221" type="line"/>
      <point x="333" y="-228"/>
      <point x="313" y="-231"/>
      <point x="278" y="-231" type="curve" smooth="yes"/>
      <point x="218" y="-231"/>
      <point x="200" y="-195"/>
      <point x="200" y="-136" type="curve" smooth="yes"/>
      <point x="200" y="320" type="line" smooth="yes"/>
      <point x="200" y="423"/>
      <point x="273" y="529"/>
      <point x="363" y="529" type="curve" smooth="yes"/>
      <point x="419" y="529"/>
      <point x="447" y="499"/>
      <point x="447" y="443" type="curve"/>
      <point x="469" y="443"/>
      <point x="473" y="456"/>
      <point x="473" y="468" type="curve" smooth="yes"/>
      <point x="473" y="511"/>
      <point x="427" y="544"/>
      <point x="369" y="544" type="curve" smooth="yes"/>
      <point x="283" y="544"/>
      <point x="219" y="445"/>
      <point x="201" y="390" type="curve"/>
      <point x="199" y="390" type="line"/>
      <point x="193" y="536" type="line"/>
      <point x="55" y="536" type="line"/>
      <point x="55" y="526" type="line"/>
      <point x="88" y="526" type="line" smooth="yes"/>
      <point x="170" y="526"/>
      <point x="172" y="523"/>
      <point x="172" y="454" type="curve" smooth="yes"/>
      <point x="172" y="-110" type="line" smooth="yes"/>
      <point x="172" y="-197"/>
      <point x="198" y="-241"/>
    </contour>
  </outline>
</glyph>
<glyph name="eshcurl" format="2">
  <advance width="374"/>
  <unicode hex="0286"/>
  <anchor x="187" y="-240" name="bottom"/>
  <anchor x="187" y="766" name="top"/>
  <outline>
    <contour>
      <point x="88" y="-240" type="curve" smooth="yes"/>
      <point x="142" y="-240"/>
      <point x="203" y="-220"/>
      <point x="203" y="-67" type="curve"/>
      <point x="247" y="-98"/>
      <point x="273" y="-146"/>
      <point x="289" y="-213" type="curve"/>
      <point x="299" y="-210" type="line"/>
      <point x="279" y="-127"/>
      <point x="247" y="-85"/>
      <point x="203" y="-54" type="curve"/>
      <point x="203" y="-48"/>
      <point x="203" y="-41"/>
      <point x="203" y="-35" type="curve" smooth="yes"/>
      <point x="203" y="596" type="line" smooth="yes"/>
      <point x="203" y="675"/>
      <point x="204" y="756"/>
      <point x="295" y="756" type="curve" smooth="yes"/>
      <point x="351" y="756"/>
      <point x="369" y="733"/>
      <point x="369" y="642" type="curve"/>
      <point x="397" y="642"/>
      <point x="400" y="666"/>
      <point x="400" y="683" type="curve" smooth="yes"/>
      <point x="400" y="716"/>
      <point x="385" y="766"/>
      <point x="301" y="766" type="curve" smooth="yes"/>
      <point x="241" y="766"/>
      <point x="175" y="749"/>
      <point x="175" y="637" type="curve" smooth="yes"/>
      <point x="175" y="-41" type="line"/>
      <point x="151" y="-31"/>
      <point x="131" y="-29"/>
      <point x="106" y="-29" type="curve" smooth="yes"/>
      <point x="33" y="-29"/>
      <point x="-14" y="-67"/>
      <point x="-14" y="-131" type="curve" smooth="yes"/>
      <point x="-14" y="-198"/>
      <point x="26" y="-240"/>
    </contour>
    <contour>
      <point x="91" y="-235" type="curve" smooth="yes"/>
      <point x="33" y="-235"/>
      <point x="-4" y="-195"/>
      <point x="-4" y="-129" type="curve" smooth="yes"/>
      <point x="-4" y="-75"/>
      <point x="36" y="-39"/>
      <point x="99" y="-39" type="curve" smooth="yes"/>
      <point x="129" y="-39"/>
      <point x="153" y="-43"/>
      <point x="175" y="-55" type="curve"/>
      <point x="175" y="-136" type="line" smooth="yes"/>
      <point x="175" y="-228"/>
      <point x="130" y="-235"/>
    </contour>
  </outline>
</glyph>
<glyph name="uni0291" format="2">
  <advance width="639"/>
  <unicode hex="0291"/>
  <anchor x="332" y="0" name="bottom"/>
  <anchor x="332" y="536" name="top"/>
  <outline>
    <contour>
      <point x="333" y="-55" type="line"/>
      <point x="336" y="-32"/>
      <point x="338" y="-22"/>
      <point x="343" y="0" type="curve"/>
      <point x="400" y="0" type="line" smooth="yes"/>
      <point x="532" y="0"/>
      <point x="593" y="23"/>
      <point x="593" y="95" type="curve" smooth="yes"/>
      <point x="593" y="144"/>
      <point x="557" y="176"/>
      <point x="499" y="176" type="curve" smooth="yes"/>
      <point x="423" y="176"/>
      <point x="351" y="92"/>
      <point x="334" y="15" type="curve"/>
      <point x="127" y="15" type="line"/>
      <point x="536" y="534" type="line"/>
      <point x="536" y="536" type="line"/>
      <point x="109" y="536" type="line"/>
      <point x="101" y="420" type="line"/>
      <point x="111" y="420" type="line"/>
      <point x="113" y="452" type="line" smooth="yes"/>
      <point x="116" y="507"/>
      <point x="124" y="521"/>
      <point x="176" y="521" type="curve" smooth="yes"/>
      <point x="493" y="521" type="line"/>
      <point x="88" y="2" type="line"/>
      <point x="88" y="0" type="line"/>
      <point x="331" y="0" type="line"/>
      <point x="326" y="-20"/>
      <point x="324" y="-33"/>
      <point x="321" y="-55" type="curve"/>
    </contour>
    <contour>
      <point x="346" y="15" type="line"/>
      <point x="363" y="83"/>
      <point x="425" y="166"/>
      <point x="499" y="166" type="curve" smooth="yes"/>
      <point x="551" y="166"/>
      <point x="583" y="138"/>
      <point x="583" y="95" type="curve" smooth="yes"/>
      <point x="583" y="34"/>
      <point x="536" y="15"/>
      <point x="409" y="15" type="curve" smooth="yes"/>
    </contour>
  </outline>
</glyph>
<glyph name="ezhcurl" format="2">
  <advance width="537"/>
  <unicode hex="0293"/>
  <anchor x="269" y="-238" name="bottom"/>
  <anchor x="269" y="536" name="top"/>
  <outline>
    <contour>
      <point x="266" y="-238" type="curve" smooth="yes"/>
      <point x="361" y="-238"/>
      <point x="438" y="-208"/>
      <point x="482" y="-150" type="curve"/>
      <point x="499" y="-166"/>
      <point x="508" y="-172"/>
      <point x="522" y="-187" type="curve"/>
      <point x="530" y="-181" type="line"/>
      <point x="517" y="-168"/>
      <point x="509" y="-160"/>
      <point x="488" y="-141" type="curve"/>
      <point x="508" y="-108"/>
      <point x="520" y="-69"/>
      <point x="520" y="-21" type="curve" smooth="yes"/>
      <point x="520" y="79"/>
      <point x="488" y="212"/>
      <point x="238" y="220" type="curve"/>
      <point x="512" y="522" type="line"/>
      <point x="512" y="536" type="line"/>
      <point x="85" y="536" type="line"/>
      <point x="82" y="409" type="line"/>
      <point x="92" y="409" type="line"/>
      <point x="103" y="510" type="line" smooth="yes"/>
      <point x="105" y="513"/>
      <point x="112" y="511"/>
      <point x="122" y="511" type="curve" smooth="yes"/>
      <point x="490" y="511" type="line"/>
      <point x="200" y="188" type="line"/>
      <point x="200" y="178" type="line"/>
      <point x="234" y="178" type="line" smooth="yes"/>
      <point x="414" y="178"/>
      <point x="492" y="95"/>
      <point x="492" y="-4" type="curve" smooth="yes"/>
      <point x="492" y="-51"/>
      <point x="483" y="-90"/>
      <point x="467" y="-124" type="curve"/>
      <point x="389" y="-63"/>
      <point x="304" y="-32"/>
      <point x="221" y="-32" type="curve" smooth="yes"/>
      <point x="111" y="-32"/>
      <point x="46" y="-64"/>
      <point x="46" y="-118" type="curve" smooth="yes"/>
      <point x="46" y="-192"/>
      <point x="130" y="-238"/>
    </contour>
    <contour>
      <point x="267" y="-228" type="curve" smooth="yes"/>
      <point x="135" y="-228"/>
      <point x="56" y="-187"/>
      <point x="56" y="-119" type="curve" smooth="yes"/>
      <point x="56" y="-71"/>
      <point x="118" y="-42"/>
      <point x="220" y="-42" type="curve" smooth="yes"/>
      <point x="312" y="-42"/>
      <point x="394" y="-83"/>
      <point x="462" y="-130" type="curve"/>
      <point x="422" y="-197"/>
      <point x="348" y="-228"/>
    </contour>
  </outline>
</glyph>
<glyph name="uni029F" format="2">
  <advance width="579"/>
  <unicode hex="029F"/>
  <anchor x="289" y="0" name="bottom"/>
  <anchor x="289" y="536" name="top"/>
  <outline>
    <contour>
      <point x="54" y="0" type="line"/>
      <point x="540" y="0" type="line"/>
      <point x="545" y="105" type="line"/>
      <point x="535" y="105" type="line"/>
      <point x="524" y="-9" type="line" smooth="yes"/>
      <point x="522" y="8"/>
      <point x="520" y="10"/>
      <point x="528" y="10" type="curve" smooth="yes"/>
      <point x="201" y="10" type="line"/>
      <point x="201" y="454" type="line" smooth="yes"/>
      <point x="201" y="520"/>
      <point x="209" y="526"/>
      <point x="242" y="526" type="curve" smooth="yes"/>
      <point x="307" y="526" type="line"/>
      <point x="307" y="536" type="line"/>
      <point x="59" y="536" type="line"/>
      <point x="59" y="526" type="line"/>
      <point x="114" y="526" type="line" smooth="yes"/>
      <point x="161" y="526"/>
      <point x="173" y="522"/>
      <point x="173" y="454" type="curve" smooth="yes"/>
      <point x="173" y="82" type="line" smooth="yes"/>
      <point x="173" y="12"/>
      <point x="169" y="10"/>
      <point x="90" y="10" type="curve" smooth="yes"/>
      <point x="54" y="10" type="line"/>
    </contour>
  </outline>
</glyph>
<glyph name="qhook" format="2">
  <advance width="705"/>
  <unicode hex="02A0"/>
  <anchor x="352" y="-240" name="bottom"/>
  <anchor x="352" y="766" name="top"/>
  <outline>
    <contour>
      <point x="429" y="-240" type="line"/>
      <point x="659" y="-240" type="line"/>
      <point x="659" y="-230" type="line"/>
      <point x="638" y="-230" type="line" smooth="yes"/>
      <point x="575" y="-230"/>
      <point x="567" y="-228"/>
      <point x="567" y="-150" type="curve"/>
      <point x="567" y="687" type="line" smooth="yes"/>
      <point x="567" y="726"/>
      <point x="594" y="756"/>
      <point x="627" y="756" type="curve" smooth="yes"/>
      <point x="638" y="756"/>
      <point x="668" y="773"/>
      <point x="688" y="744" type="curve"/>
      <point x="690" y="746"/>
      <point x="693" y="742"/>
      <point x="693" y="745" type="curve" smooth="yes"/>
      <point x="693" y="760"/>
      <point x="658" y="766"/>
      <point x="633" y="766" type="curve" smooth="yes"/>
      <point x="580" y="766"/>
      <point x="540" y="736"/>
      <point x="540" y="693" type="curve" smooth="yes"/>
      <point x="540" y="528" type="line" smooth="yes"/>
      <point x="540" y="473"/>
      <point x="542" y="418"/>
      <point x="540" y="389" type="curve"/>
      <point x="536" y="389" type="line"/>
      <point x="517" y="473"/>
      <point x="444" y="548"/>
      <point x="340" y="548" type="curve" smooth="yes"/>
      <point x="158" y="548"/>
      <point x="81" y="440"/>
      <point x="81" y="263" type="curve" smooth="yes"/>
      <point x="81" y="86"/>
      <point x="166" y="-10"/>
      <point x="320" y="-10" type="curve" smooth="yes"/>
      <point x="451" y="-10"/>
      <point x="525" y="104"/>
      <point x="540" y="186" type="curve"/>
      <point x="542" y="186" type="line"/>
      <point x="539" y="180"/>
      <point x="539" y="37"/>
      <point x="539" y="-35" type="curve" smooth="yes"/>
      <point x="539" y="-150" type="line" smooth="yes"/>
      <point x="539" y="-228"/>
      <point x="531" y="-230"/>
      <point x="472" y="-230" type="curve" smooth="yes"/>
      <point x="429" y="-230" type="line"/>
    </contour>
    <contour>
      <point x="321" y="10" type="curve" smooth="yes"/>
      <point x="171" y="10"/>
      <point x="109" y="94"/>
      <point x="109" y="263" type="curve" smooth="yes"/>
      <point x="109" y="429"/>
      <point x="172" y="528"/>
      <point x="342" y="528" type="curve" smooth="yes"/>
      <point x="492" y="528"/>
      <point x="539" y="422"/>
      <point x="539" y="269" type="curve" smooth="yes"/>
      <point x="539" y="42"/>
      <point x="411" y="10"/>
    </contour>
  </outline>
</glyph>
<glyph name="uni02A2" format="2">
  <advance width="561"/>
  <unicode hex="02A2"/>
  <anchor x="281" y="0" name="bottom"/>
  <anchor x="281" y="762" name="top"/>
  <outline>
    <contour>
      <point x="188" y="0" type="line"/>
      <point x="486" y="0" type="line"/>
      <point x="486" y="10" type="line"/>
      <point x="455" y="10" type="line" smooth="yes"/>
      <point x="364" y="10"/>
      <point x="352" y="22"/>
      <point x="352" y="91" type="curve" smooth="yes"/>
      <point x="352" y="203" type="line"/>
      <point x="500" y="203" type="line"/>
      <point x="500" y="213" type="line"/>
      <point x="352" y="213" type="line"/>
      <point x="352" y="369" type="line"/>
      <point x="99" y="460"/>
      <point x="85" y="503"/>
      <point x="85" y="582" type="curve" smooth="yes"/>
      <point x="85" y="680"/>
      <point x="159" y="752"/>
      <point x="279" y="752" type="curve" smooth="yes"/>
      <point x="398" y="752"/>
      <point x="471" y="696"/>
      <point x="472" y="611" type="curve"/>
      <point x="482" y="613"/>
      <point x="494" y="613"/>
      <point x="494" y="642" type="curve" smooth="yes"/>
      <point x="494" y="713"/>
      <point x="395" y="762"/>
      <point x="279" y="762" type="curve" smooth="yes"/>
      <point x="130" y="762"/>
      <point x="57" y="690"/>
      <point x="57" y="566" type="curve" smooth="yes"/>
      <point x="57" y="472"/>
      <point x="93" y="416"/>
      <point x="324" y="333" type="curve"/>
      <point x="324" y="213" type="line"/>
      <point x="201" y="213" type="line"/>
      <point x="201" y="203" type="line"/>
      <point x="324" y="203" type="line"/>
      <point x="324" y="91" type="line" smooth="yes"/>
      <point x="324" y="22"/>
      <point x="314" y="10"/>
      <point x="226" y="10" type="curve" smooth="yes"/>
      <point x="188" y="10" type="line"/>
    </contour>
  </outline>
</glyph>
<glyph name="uni02A4" format="2">
  <advance width="1094"/>
  <unicode hex="02A4"/>
  <anchor x="548" y="-238" name="bottom"/>
  <anchor x="548" y="760" name="top"/>
  <outline>
    <contour>
      <point x="822" y="-238" type="curve" smooth="yes"/>
      <point x="968" y="-238"/>
      <point x="1075" y="-129"/>
      <point x="1075" y="-13" type="curve" smooth="yes"/>
      <point x="1075" y="79"/>
      <point x="1039" y="201"/>
      <point x="791" y="205" type="curve"/>
      <point x="1067" y="522" type="line"/>
      <point x="1067" y="536" type="line"/>
      <point x="568" y="536" type="line"/>
      <point x="568" y="760" type="line"/>
      <point x="423" y="760" type="line"/>
      <point x="423" y="750" type="line"/>
      <point x="468" y="750" type="line" smooth="yes"/>
      <point x="532" y="750"/>
      <point x="540" y="747"/>
      <point x="540" y="678" type="curve" smooth="yes"/>
      <point x="540" y="542" type="line" smooth="yes"/>
      <point x="540" y="521"/>
      <point x="540" y="388"/>
      <point x="542" y="373" type="curve"/>
      <point x="540" y="373" type="line"/>
      <point x="517" y="483"/>
      <point x="434" y="542"/>
      <point x="310" y="542" type="curve" smooth="yes"/>
      <point x="140" y="542"/>
      <point x="83" y="410"/>
      <point x="83" y="267" type="curve" smooth="yes"/>
      <point x="83" y="116"/>
      <point x="176" y="-10"/>
      <point x="324" y="-10" type="curve" smooth="yes"/>
      <point x="425" y="-10"/>
      <point x="511" y="62"/>
      <point x="538" y="166" type="curve"/>
      <point x="540" y="166" type="line"/>
      <point x="540" y="0" type="line"/>
      <point x="681" y="0" type="line"/>
      <point x="681" y="10" type="line"/>
      <point x="659" y="10" type="line" smooth="yes"/>
      <point x="567" y="10"/>
      <point x="568" y="11"/>
      <point x="568" y="92" type="curve" smooth="yes"/>
      <point x="568" y="514" type="line"/>
      <point x="1047" y="514" type="line"/>
      <point x="755" y="176" type="line"/>
      <point x="755" y="163" type="line"/>
      <point x="800" y="163" type="line" smooth="yes"/>
      <point x="969" y="163"/>
      <point x="1047" y="80"/>
      <point x="1047" y="-5" type="curve" smooth="yes"/>
      <point x="1047" y="-124"/>
      <point x="944" y="-228"/>
      <point x="819" y="-228" type="curve" smooth="yes"/>
      <point x="703" y="-228"/>
      <point x="630" y="-177"/>
      <point x="629" y="-69" type="curve"/>
      <point x="602" y="-69"/>
      <point x="592" y="-70"/>
      <point x="592" y="-96" type="curve" smooth="yes"/>
      <point x="592" y="-177"/>
      <point x="680" y="-238"/>
    </contour>
    <contour>
      <point x="323" y="10" type="curve" smooth="yes"/>
      <point x="205" y="6"/>
      <point x="111" y="114"/>
      <point x="111" y="263" type="curve" smooth="yes"/>
      <point x="111" y="405"/>
      <point x="156" y="522"/>
      <point x="308" y="522" type="curve" smooth="yes"/>
      <point x="490" y="522"/>
      <point x="541" y="440"/>
      <point x="541" y="265" type="curve" smooth="yes"/>
      <point x="541" y="116"/>
      <point x="471" y="14"/>
    </contour>
  </outline>
</glyph>
<glyph name="uni02A7" format="2">
  <advance width="489"/>
  <unicode hex="02A7"/>
  <anchor x="245" y="-238" name="bottom"/>
  <anchor x="245" y="766" name="top"/>
  <outline>
    <contour>
      <point x="187" y="-238" type="curve" smooth="yes"/>
      <point x="257" y="-238"/>
      <point x="319" y="-222"/>
      <point x="319" y="-71" type="curve" smooth="yes"/>
      <point x="319" y="554" type="line" smooth="yes"/>
      <point x="319" y="728"/>
      <point x="346" y="756"/>
      <point x="419" y="756" type="curve" smooth="yes"/>
      <point x="465" y="756"/>
      <point x="485" y="738"/>
      <point x="485" y="642" type="curve"/>
      <point x="513" y="642"/>
      <point x="516" y="666"/>
      <point x="516" y="682" type="curve" smooth="yes"/>
      <point x="516" y="739"/>
      <point x="479" y="766"/>
      <point x="419" y="766" type="curve" smooth="yes"/>
      <point x="338" y="766"/>
      <point x="291" y="721"/>
      <point x="291" y="577" type="curve" smooth="yes"/>
      <point x="291" y="536" type="line"/>
      <point x="145" y="536" type="line"/>
      <point x="145" y="657" type="line"/>
      <point x="135" y="657" type="line"/>
      <point x="136" y="588"/>
      <point x="128" y="559"/>
      <point x="109" y="547" type="curve"/>
      <point x="90" y="534"/>
      <point x="60" y="534"/>
      <point x="21" y="536" type="curve"/>
      <point x="21" y="526" type="line"/>
      <point x="117" y="526" type="line"/>
      <point x="117" y="141" type="line" smooth="yes"/>
      <point x="117" y="34"/>
      <point x="151" y="-10"/>
      <point x="237" y="-10" type="curve" smooth="yes"/>
      <point x="256" y="-10"/>
      <point x="271" y="-10"/>
      <point x="291" y="-9" type="curve"/>
      <point x="291" y="-43" type="line" smooth="yes"/>
      <point x="291" y="-131"/>
      <point x="293" y="-228"/>
      <point x="186" y="-228" type="curve" smooth="yes"/>
      <point x="136" y="-228"/>
      <point x="121" y="-194"/>
      <point x="121" y="-118" type="curve"/>
      <point x="97" y="-118"/>
      <point x="90" y="-143"/>
      <point x="90" y="-164" type="curve" smooth="yes"/>
      <point x="90" y="-190"/>
      <point x="106" y="-238"/>
    </contour>
    <contour>
      <point x="237" y="0" type="curve" smooth="yes"/>
      <point x="167" y="0"/>
      <point x="145" y="37"/>
      <point x="145" y="139" type="curve" smooth="yes"/>
      <point x="145" y="526" type="line"/>
      <point x="291" y="526" type="line"/>
      <point x="291" y="1" type="line"/>
      <point x="277" y="1"/>
      <point x="259" y="0"/>
    </contour>
  </outline>
</glyph>
<glyph name="uni02AB" format="2">
  <advance width="677"/>
  <unicode hex="02AB"/>
  <anchor x="339" y="0" name="bottom"/>
  <anchor x="339" y="760" name="top"/>
  <outline>
    <contour>
      <point x="7" y="0" type="line"/>
      <point x="592" y="0" type="line"/>
      <point x="597" y="138" type="line"/>
      <point x="587" y="138" type="line"/>
      <point x="585" y="85" type="line" smooth="yes"/>
      <point x="583" y="29"/>
      <point x="576" y="15"/>
      <point x="524" y="15" type="curve" smooth="yes"/>
      <point x="189" y="15" type="line"/>
      <point x="598" y="534" type="line"/>
      <point x="598" y="536" type="line"/>
      <point x="169" y="536" type="line"/>
      <point x="169" y="760" type="line"/>
      <point x="7" y="760" type="line"/>
      <point x="7" y="750" type="line"/>
      <point x="74" y="750" type="line" smooth="yes"/>
      <point x="134" y="750"/>
      <point x="141" y="746"/>
      <point x="141" y="672" type="curve" smooth="yes"/>
      <point x="141" y="84" type="line" smooth="yes"/>
      <point x="141" y="14"/>
      <point x="137" y="10"/>
      <point x="64" y="10" type="curve" smooth="yes"/>
      <point x="7" y="10" type="line"/>
    </contour>
    <contour>
      <point x="169" y="35" type="line"/>
      <point x="169" y="521" type="line"/>
      <point x="555" y="521" type="line"/>
    </contour>
  </outline>
</glyph>
<glyph name="uni02AF" format="2">
  <advance width="775"/>
  <unicode hex="02AF"/>
  <anchor x="388" y="-240" name="bottom"/>
  <anchor x="388" y="536" name="top"/>
  <outline>
    <contour>
      <point x="700" y="-240" type="curve" smooth="yes"/>
      <point x="739" y="-240"/>
      <point x="759" y="-237"/>
      <point x="786" y="-231" type="curve"/>
      <point x="786" y="-218" type="line"/>
      <point x="764" y="-226"/>
      <point x="741" y="-230"/>
      <point x="708" y="-230" type="curve" smooth="yes"/>
      <point x="665" y="-230"/>
      <point x="628" y="-218"/>
      <point x="628" y="-98" type="curve" smooth="yes"/>
      <point x="628" y="454" type="line" smooth="yes"/>
      <point x="628" y="524"/>
      <point x="630" y="526"/>
      <point x="715" y="526" type="curve" smooth="yes"/>
      <point x="756" y="526" type="line"/>
      <point x="756" y="536" type="line"/>
      <point x="479" y="536" type="line"/>
      <point x="479" y="526" type="line"/>
      <point x="512" y="526" type="line" smooth="yes"/>
      <point x="598" y="526"/>
      <point x="600" y="524"/>
      <point x="600" y="454" type="curve" smooth="yes"/>
      <point x="600" y="201" type="line" smooth="yes"/>
      <point x="600" y="83"/>
      <point x="507" y="9"/>
      <point x="381" y="9" type="curve" smooth="yes"/>
      <point x="273" y="9"/>
      <point x="220" y="52"/>
      <point x="220" y="180" type="curve" smooth="yes"/>
      <point x="220" y="458" type="line" smooth="yes"/>
      <point x="220" y="486"/>
      <point x="197" y="547"/>
      <point x="107" y="547" type="curve" smooth="yes"/>
      <point x="49" y="547"/>
      <point x="11" y="524"/>
      <point x="11" y="491" type="curve" smooth="yes"/>
      <point x="11" y="483"/>
      <point x="14" y="483"/>
      <point x="17" y="481" type="curve"/>
      <point x="29" y="536"/>
      <point x="85" y="537"/>
      <point x="108" y="537" type="curve" smooth="yes"/>
      <point x="144" y="537"/>
      <point x="192" y="526"/>
      <point x="192" y="484" type="curve" smooth="yes"/>
      <point x="192" y="176" type="line" smooth="yes"/>
      <point x="192" y="40"/>
      <point x="258" y="-6"/>
      <point x="387" y="-6" type="curve" smooth="yes"/>
      <point x="485" y="-6"/>
      <point x="565" y="45"/>
      <point x="599" y="140" type="curve"/>
      <point x="601" y="140" type="line"/>
      <point x="600" y="113"/>
      <point x="600" y="89"/>
      <point x="600" y="67" type="curve" smooth="yes"/>
      <point x="600" y="-108" type="line" smooth="yes"/>
      <point x="600" y="-204"/>
      <point x="628" y="-240"/>
    </contour>
  </outline>
</glyph>
<glyph name="uni02B9" format="2">
  <advance width="106"/>
  <unicode hex="02B9"/>
  <outline>
    <contour>
      <point x="18" y="503" type="curve"/>
      <point x="23" y="503" type="line"/>
      <point x="44" y="551"/>
      <point x="65" y="625"/>
      <point x="84" y="703" type="curve"/>
      <point x="73" y="714" type="line"/>
      <point x="50" y="714" type="line"/>
      <point x="39" y="650"/>
      <point x="25" y="560"/>
    </contour>
  </outline>
</glyph>
<glyph name="uni02BF" format="2">
  <advance width="190"/>
  <unicode hex="02BF"/>
  <outline>
    <contour>
      <point x="160" y="583" type="curve"/>
      <point x="160" y="593" type="line"/>
      <point x="75" y="593"/>
      <point x="42" y="641"/>
      <point x="42" y="692" type="curve" smooth="yes"/>
      <point x="42" y="737"/>
      <point x="75" y="779"/>
      <point x="160" y="779" type="curve"/>
      <point x="160" y="789" type="line"/>
      <point x="70" y="789"/>
      <point x="30" y="749"/>
      <point x="30" y="692" type="curve" smooth="yes"/>
      <point x="30" y="627"/>
      <point x="70" y="583"/>
    </contour>
  </outline>
</glyph>
<glyph name="uni02C1" format="2">
  <advance width="300"/>
  <unicode hex="02C1"/>
  <outline>
    <contour>
      <point x="159" y="500" type="line"/>
      <point x="169" y="500" type="line"/>
      <point x="166" y="584" type="line"/>
      <point x="106" y="607"/>
      <point x="76" y="635"/>
      <point x="76" y="672" type="curve" smooth="yes"/>
      <point x="76" y="724"/>
      <point x="121" y="750"/>
      <point x="165" y="750" type="curve" smooth="yes"/>
      <point x="219" y="750"/>
      <point x="242" y="732"/>
      <point x="242" y="674" type="curve"/>
      <point x="272" y="674"/>
      <point x="272" y="689"/>
      <point x="272" y="695" type="curve" smooth="yes"/>
      <point x="272" y="731"/>
      <point x="232" y="760"/>
      <point x="169" y="760" type="curve" smooth="yes"/>
      <point x="91" y="760"/>
      <point x="52" y="721"/>
      <point x="52" y="669" type="curve" smooth="yes"/>
      <point x="52" y="604"/>
      <point x="97" y="576"/>
      <point x="161" y="559" type="curve"/>
    </contour>
  </outline>
</glyph>
<glyph name="uni02D5" format="2">
  <advance width="300"/>
  <unicode hex="02D5"/>
  <outline>
    <contour>
      <point x="140" y="196" type="line"/>
      <point x="160" y="196" type="line"/>
      <point x="160" y="326" type="line"/>
      <point x="256" y="326" type="line"/>
      <point x="256" y="346" type="line"/>
      <point x="44" y="346" type="line"/>
      <point x="44" y="326" type="line"/>
      <point x="140" y="326" type="line"/>
    </contour>
  </outline>
</glyph>
<glyph name="dotaccent" format="2">
  <advance width="117"/>
  <unicode hex="02D9"/>
  <outline>
    <contour>
      <point x="59" y="658" type="curve" smooth="yes"/>
      <point x="69" y="658"/>
      <point x="77" y="663"/>
      <point x="77" y="698" type="curve" smooth="yes"/>
      <point x="77" y="731"/>
      <point x="69" y="738"/>
      <point x="59" y="738" type="curve" smooth="yes"/>
      <point x="50" y="738"/>
      <point x="40" y="731"/>
      <point x="40" y="698" type="curve" smooth="yes"/>
      <point x="40" y="663"/>
      <point x="50" y="658"/>
    </contour>
  </outline>
</glyph>
<glyph name="ogonek" format="2">
  <advance width="276"/>
  <unicode hex="02DB"/>
  <outline>
    <contour>
      <point x="162" y="-216" type="curve" smooth="yes"/>
      <point x="187" y="-216"/>
      <point x="214" y="-208"/>
      <point x="236" y="-199" type="curve"/>
      <point x="236" y="-188" type="line"/>
      <point x="202" y="-199"/>
      <point x="192" y="-202"/>
      <point x="160" y="-202" type="curve" smooth="yes"/>
      <point x="97" y="-202"/>
      <point x="64" y="-168"/>
      <point x="64" y="-116" type="curve" smooth="yes"/>
      <point x="64" y="-74"/>
      <point x="108" y="-26"/>
      <point x="199" y="0" type="curve"/>
      <point x="168" y="0" type="line"/>
      <point x="71" y="-27"/>
      <point x="40" y="-82"/>
      <point x="40" y="-113" type="curve" smooth="yes"/>
      <point x="40" y="-178"/>
      <point x="79" y="-216"/>
    </contour>
  </outline>
</glyph>
<glyph name="hungarumlaut" format="2">
  <advance width="406"/>
  <unicode hex="02DD"/>
  <outline>
    <contour>
      <point x="40" y="606" type="line"/>
      <point x="40" y="606" type="line"/>
      <point x="87" y="657"/>
      <point x="145" y="717"/>
      <point x="181" y="756" type="curve"/>
      <point x="181" y="766" type="line"/>
      <point x="145" y="766" type="line"/>
      <point x="111" y="717"/>
      <point x="68" y="652"/>
      <point x="40" y="618" type="curve"/>
    </contour>
    <contour>
      <point x="226" y="606" type="line"/>
      <point x="226" y="606" type="line"/>
      <point x="271" y="657"/>
      <point x="330" y="717"/>
      <point x="366" y="756" type="curve"/>
      <point x="366" y="766" type="line"/>
      <point x="330" y="766" type="line"/>
      <point x="296" y="717"/>
      <point x="253" y="652"/>
      <point x="226" y="618" type="curve"/>
    </contour>
  </outline>
</glyph>
<glyph name="uni02F4" format="2">
  <advance width="233"/>
  <unicode hex="02F4"/>
  <outline>
    <contour>
      <point x="165" y="291" type="curve"/>
      <point x="173" y="291" type="line"/>
      <point x="173" y="304" type="line"/>
      <point x="137" y="354"/>
      <point x="102" y="403"/>
      <point x="76" y="451" type="curve"/>
      <point x="40" y="451" type="line"/>
      <point x="40" y="440" type="line"/>
      <point x="72" y="398"/>
      <point x="118" y="345"/>
    </contour>
  </outline>
</glyph>
<glyph name="hookpalatalizedbelowcomb" format="2">
  <unicode hex="0321"/>
  <anchor x="45" y="0" name="_bottom"/>
  <anchor x="45" y="-199" name="bottom"/>
  <outline>
    <contour>
      <point x="-104" y="-199" type="curve" smooth="yes"/>
      <point x="-45" y="-199"/>
      <point x="-13" y="-162"/>
      <point x="-13" y="-102" type="curve" smooth="yes"/>
      <point x="-13" y="11" type="line"/>
      <point x="-23" y="11" type="line"/>
      <point x="-23" y="-93" type="line" smooth="yes"/>
      <point x="-23" y="-142"/>
      <point x="-50" y="-172"/>
      <point x="-94" y="-172" type="curve" smooth="yes"/>
      <point x="-125" y="-172"/>
      <point x="-149" y="-163"/>
      <point x="-163" y="-137" type="curve"/>
      <point x="-171" y="-139"/>
      <point x="-177" y="-143"/>
      <point x="-177" y="-150" type="curve" smooth="yes"/>
      <point x="-177" y="-175"/>
      <point x="-145" y="-199"/>
    </contour>
  </outline>
</glyph>
<glyph name="commaaccent" format="2">
  <unicode hex="0326"/>
  <anchor x="1" y="0" name="_bottom"/>
  <anchor x="1" y="-221" name="bottom"/>
  <outline>
    <contour>
      <point x="-43" y="-221" type="line"/>
      <point x="-35" y="-221" type="line"/>
      <point x="-14" y="-174"/>
      <point x="20" y="-97"/>
      <point x="38" y="-73" type="curve"/>
      <point x="38" y="-61" type="line"/>
      <point x="8" y="-61" type="line"/>
      <point x="0" y="-98"/>
      <point x="-28" y="-193"/>
      <point x="-43" y="-213" type="curve"/>
    </contour>
  </outline>
</glyph>
<glyph name="ogonekcomb" format="2">
  <unicode hex="0328"/>
  <anchor x="5" y="0" name="_bottom"/>
  <outline>
    <contour>
      <point x="29" y="-216" type="curve" smooth="yes"/>
      <point x="54" y="-216"/>
      <point x="81" y="-208"/>
      <point x="103" y="-199" type="curve"/>
      <point x="103" y="-188" type="line"/>
      <point x="69" y="-199"/>
      <point x="59" y="-202"/>
      <point x="27" y="-202" type="curve" smooth="yes"/>
      <point x="-36" y="-202"/>
      <point x="-69" y="-168"/>
      <point x="-69" y="-116" type="curve" smooth="yes"/>
      <point x="-69" y="-74"/>
      <point x="-23" y="-25"/>
      <point x="66" y="0" type="curve"/>
      <point x="35" y="0" type="line"/>
      <point x="-60" y="-26"/>
      <point x="-93" y="-82"/>
      <point x="-93" y="-113" type="curve" smooth="yes"/>
      <point x="-93" y="-175"/>
      <point x="-51" y="-216"/>
    </contour>
  </outline>
</glyph>
<glyph name="caronbelowcomb" format="2">
  <unicode hex="032C"/>
  <anchor x="-3" y="0" name="_bottom"/>
  <anchor x="-3" y="-232" name="bottom"/>
  <outline>
    <contour>
      <point x="-21" y="-232" type="curve"/>
      <point x="12" y="-232" type="line"/>
      <point x="36" y="-187"/>
      <point x="84" y="-123"/>
      <point x="120" y="-81" type="curve"/>
      <point x="120" y="-72" type="line"/>
      <point x="118" y="-72" type="line"/>
      <point x="63" y="-122"/>
      <point x="35" y="-154"/>
      <point x="-4" y="-207" type="curve"/>
      <point x="-41" y="-154"/>
      <point x="-71" y="-122"/>
      <point x="-126" y="-72" type="curve"/>
      <point x="-128" y="-72" type="line"/>
      <point x="-128" y="-81" type="line"/>
      <point x="-92" y="-123"/>
      <point x="-43" y="-187"/>
    </contour>
  </outline>
</glyph>
<glyph name="brevebelowcomb" format="2">
  <unicode hex="032E"/>
  <anchor x="1" y="0" name="_bottom"/>
  <anchor x="1" y="-194" name="bottom"/>
  <outline>
    <contour>
      <point x="-2" y="-194" type="curve" smooth="yes"/>
      <point x="77" y="-194"/>
      <point x="137" y="-142"/>
      <point x="140" y="-85" type="curve"/>
      <point x="131" y="-85" type="line"/>
      <point x="116" y="-129"/>
      <point x="61" y="-160"/>
      <point x="-2" y="-160" type="curve" smooth="yes"/>
      <point x="-47" y="-160"/>
      <point x="-114" y="-131"/>
      <point x="-130" y="-85" type="curve"/>
      <point x="-138" y="-85" type="line"/>
      <point x="-135" y="-141"/>
      <point x="-76" y="-194"/>
    </contour>
  </outline>
</glyph>
<glyph name="breveinvertedbelowcomb" format="2">
  <unicode hex="032F"/>
  <anchor x="-1" y="0" name="_bottom"/>
  <anchor x="-1" y="-192" name="bottom"/>
  <outline>
    <contour>
      <point x="-140" y="-192" type="curve"/>
      <point x="-132" y="-192" type="line"/>
      <point x="-117" y="-146"/>
      <point x="-67" y="-117"/>
      <point x="-4" y="-117" type="curve" smooth="yes"/>
      <point x="60" y="-117"/>
      <point x="116" y="-148"/>
      <point x="130" y="-192" type="curve"/>
      <point x="138" y="-192" type="line"/>
      <point x="135" y="-135"/>
      <point x="75" y="-83"/>
      <point x="-4" y="-83" type="curve" smooth="yes"/>
      <point x="-78" y="-83"/>
      <point x="-137" y="-136"/>
    </contour>
  </outline>
</glyph>
<glyph name="strokeshortoverlaycomb" format="2">
  <unicode hex="0335"/>
  <anchor x="2" y="291" name="_center"/>
  <outline>
    <contour>
      <point x="-181" y="281" type="line"/>
      <point x="184" y="281" type="line"/>
      <point x="184" y="301" type="line"/>
      <point x="-181" y="301" type="line"/>
    </contour>
  </outline>
</glyph>
<glyph name="ringhalfrightbelowcomb" format="2">
  <unicode hex="0339"/>
  <anchor x="1" y="0" name="_bottom"/>
  <anchor x="1" y="-224" name="bottom"/>
  <outline>
    <contour>
      <point x="-52" y="-224" type="line"/>
      <point x="19" y="-224"/>
      <point x="53" y="-187"/>
      <point x="53" y="-131" type="curve" smooth="yes"/>
      <point x="53" y="-80"/>
      <point x="19" y="-42"/>
      <point x="-52" y="-42" type="curve"/>
      <point x="-52" y="-52" type="line"/>
      <point x="16" y="-49"/>
      <point x="51" y="-93"/>
      <point x="51" y="-131" type="curve" smooth="yes"/>
      <point x="51" y="-171"/>
      <point x="16" y="-217"/>
      <point x="-52" y="-214" type="curve"/>
    </contour>
  </outline>
</glyph>
<glyph name="seagullbelowcomb" format="2">
  <unicode hex="033C"/>
  <anchor x="-1" y="0" name="_bottom"/>
  <anchor x="-1" y="-183" name="bottom"/>
  <outline>
    <contour>
      <point x="-198" y="-183" type="curve"/>
      <point x="-188" y="-183" type="line"/>
      <point x="-184" y="-108"/>
      <point x="-152" y="-76"/>
      <point x="-88" y="-76" type="curve" smooth="yes"/>
      <point x="-36" y="-76"/>
      <point x="-5" y="-106"/>
      <point x="-6" y="-183" type="curve"/>
      <point x="5" y="-183" type="line"/>
      <point x="5" y="-106"/>
      <point x="37" y="-76"/>
      <point x="94" y="-76" type="curve" smooth="yes"/>
      <point x="154" y="-76"/>
      <point x="183" y="-108"/>
      <point x="187" y="-183" type="curve"/>
      <point x="197" y="-183" type="line"/>
      <point x="191" y="-104"/>
      <point x="159" y="-60"/>
      <point x="94" y="-60" type="curve" smooth="yes"/>
      <point x="49" y="-60"/>
      <point x="13" y="-85"/>
      <point x="0" y="-134" type="curve"/>
      <point x="-13" y="-85"/>
      <point x="-47" y="-60"/>
      <point x="-88" y="-60" type="curve" smooth="yes"/>
      <point x="-160" y="-60"/>
      <point x="-194" y="-104"/>
    </contour>
  </outline>
</glyph>
<glyph name="asteriskbelowcomb" format="2">
  <unicode hex="0359"/>
  <anchor x="16" y="0" name="_bottom"/>
  <anchor x="-16" y="-240" name="bottom"/>
  <outline>
    <contour>
      <point x="-26" y="-240" type="line"/>
      <point x="31" y="-240" type="line"/>
      <point x="11" y="-152" type="line"/>
      <point x="119" y="-214" type="line"/>
      <point x="149" y="-159" type="line"/>
      <point x="23" y="-135" type="line"/>
      <point x="145" y="-103" type="line"/>
      <point x="113" y="-48" type="line"/>
      <point x="9" y="-117" type="line"/>
      <point x="23" y="-30" type="line"/>
      <point x="-34" y="-30" type="line"/>
      <point x="-15" y="-117" type="line"/>
      <point x="-123" y="-56" type="line"/>
      <point x="-152" y="-111" type="line"/>
      <point x="-24" y="-135" type="line"/>
      <point x="-148" y="-167" type="line"/>
      <point x="-117" y="-222" type="line"/>
      <point x="-11" y="-152" type="line"/>
    </contour>
  </outline>
</glyph>
<glyph name="tildedoublecomb" format="2">
  <unicode hex="0360"/>
  <anchor x="0" y="536" name="_top"/>
  <anchor x="0" y="711" name="top"/>
  <outline>
    <contour>
      <point x="-432" y="620" type="curve"/>
      <point x="-422" y="620" type="line"/>
      <point x="-400" y="652"/>
      <point x="-367" y="686"/>
      <point x="-228" y="686" type="curve" smooth="yes"/>
      <point x="-77" y="686"/>
      <point x="59" y="630"/>
      <point x="214" y="630" type="curve" smooth="yes"/>
      <point x="335" y="630"/>
      <point x="425" y="656"/>
      <point x="432" y="711" type="curve"/>
      <point x="422" y="711" type="line"/>
      <point x="415" y="690"/>
      <point x="375" y="645"/>
      <point x="217" y="645" type="curve" smooth="yes"/>
      <point x="71" y="645"/>
      <point x="-56" y="701"/>
      <point x="-238" y="701" type="curve" smooth="yes"/>
      <point x="-312" y="701"/>
      <point x="-410" y="677"/>
    </contour>
  </outline>
</glyph>
<glyph name="breveinverteddoublecomb" format="2">
  <unicode hex="0361"/>
  <anchor x="-269" y="596" name="_top"/>
  <anchor x="-3" y="841" name="top"/>
  <outline>
    <contour>
      <point x="-424" y="660" type="curve"/>
      <point x="-413" y="660" type="line"/>
      <point x="-340" y="764"/>
      <point x="-197" y="826"/>
      <point x="-4" y="826" type="curve" smooth="yes"/>
      <point x="191" y="826"/>
      <point x="335" y="761"/>
      <point x="406" y="660" type="curve"/>
      <point x="417" y="660" type="line"/>
      <point x="335" y="786"/>
      <point x="197" y="841"/>
      <point x="-1" y="841" type="curve" smooth="yes"/>
      <point x="-204" y="841"/>
      <point x="-343" y="787"/>
    </contour>
  </outline>
</glyph>
<glyph name="archaicsampi" format="2">
  <advance width="609"/>
  <unicode hex="0373"/>
  <anchor x="305" y="-240" name="bottom"/>
  <anchor x="305" y="536" name="top"/>
  <outline>
    <contour>
      <point x="300" y="-240" type="curve"/>
      <point x="335" y="-240" type="line"/>
      <point x="330" y="-238"/>
      <point x="314" y="-150"/>
      <point x="314" y="-73" type="curve" smooth="yes"/>
      <point x="314" y="526" type="line"/>
      <point x="548" y="526" type="line" smooth="yes"/>
      <point x="558" y="526"/>
      <point x="559" y="498"/>
      <point x="558" y="506" type="curve" smooth="yes"/>
      <point x="560" y="440" type="line"/>
      <point x="570" y="440" type="line"/>
      <point x="570" y="536" type="line"/>
      <point x="160" y="536" type="line" smooth="yes"/>
      <point x="30" y="536"/>
      <point x="24" y="494"/>
      <point x="24" y="460" type="curve" smooth="yes"/>
      <point x="24" y="446" type="line"/>
      <point x="34" y="446" type="line"/>
      <point x="34" y="499"/>
      <point x="26" y="526"/>
      <point x="164" y="526" type="curve" smooth="yes"/>
      <point x="286" y="526" type="line"/>
      <point x="286" y="-49" type="line" smooth="yes"/>
      <point x="286" y="-150"/>
      <point x="294" y="-206"/>
    </contour>
  </outline>
</glyph>
<glyph name="Pamphyliandigamma" format="2">
  <advance width="899"/>
  <unicode hex="0376"/>
  <anchor x="455" y="0" name="bottom"/>
  <anchor x="455" y="714" name="top"/>
  <outline>
    <contour>
      <point x="177" y="0" type="line"/>
      <point x="169" y="0" type="line"/>
      <point x="721" y="627" type="line"/>
      <point x="721" y="98" type="line" smooth="yes"/>
      <point x="721" y="21"/>
      <point x="715" y="10"/>
      <point x="665" y="10" type="curve" smooth="yes"/>
      <point x="610" y="10" type="line"/>
      <point x="610" y="0" type="line"/>
      <point x="839" y="0" type="line"/>
      <point x="839" y="10" type="line"/>
      <point x="769" y="10" type="line" smooth="yes"/>
      <point x="719" y="10"/>
      <point x="713" y="21"/>
      <point x="713" y="98" type="curve" smooth="yes"/>
      <point x="713" y="616" type="line" smooth="yes"/>
      <point x="713" y="693"/>
      <point x="719" y="704"/>
      <point x="769" y="704" type="curve" smooth="yes"/>
      <point x="840" y="704" type="line"/>
      <point x="840" y="714" type="line"/>
      <point x="725" y="714" type="line"/>
      <point x="169" y="84" type="line"/>
      <point x="169" y="616" type="line" smooth="yes"/>
      <point x="169" y="693"/>
      <point x="175" y="704"/>
      <point x="225" y="704" type="curve" smooth="yes"/>
      <point x="282" y="704" type="line"/>
      <point x="282" y="714" type="line"/>
      <point x="55" y="714" type="line"/>
      <point x="55" y="704" type="line"/>
      <point x="121" y="704" type="line" smooth="yes"/>
      <point x="171" y="704"/>
      <point x="177" y="693"/>
      <point x="177" y="616" type="curve" smooth="yes"/>
    </contour>
  </outline>
</glyph>
<glyph name="Theta" format="2">
  <advance width="842"/>
  <unicode hex="0398"/>
  <anchor x="421" y="0" name="bottom"/>
  <anchor x="421" y="714" name="top"/>
  <outline>
    <contour>
      <point x="422" y="-10" type="curve" smooth="yes"/>
      <point x="686" y="-10"/>
      <point x="769" y="145"/>
      <point x="769" y="358" type="curve" smooth="yes"/>
      <point x="769" y="570"/>
      <point x="680" y="725"/>
      <point x="423" y="725" type="curve" smooth="yes"/>
      <point x="196" y="725"/>
      <point x="72" y="588"/>
      <point x="72" y="359" type="curve" smooth="yes"/>
      <point x="72" y="113"/>
      <point x="190" y="-10"/>
    </contour>
    <contour>
      <point x="422" y="0" type="curve" smooth="yes"/>
      <point x="207" y="0"/>
      <point x="100" y="118"/>
      <point x="100" y="358" type="curve" smooth="yes"/>
      <point x="100" y="587"/>
      <point x="213" y="715"/>
      <point x="423" y="715" type="curve" smooth="yes"/>
      <point x="654" y="715"/>
      <point x="741" y="587"/>
      <point x="741" y="358" type="curve" smooth="yes"/>
      <point x="741" y="129"/>
      <point x="656" y="0"/>
    </contour>
    <contour>
      <point x="242" y="292" type="line"/>
      <point x="252" y="292" type="line"/>
      <point x="252" y="307" type="line" smooth="yes"/>
      <point x="252" y="324"/>
      <point x="256" y="351"/>
      <point x="241" y="351" type="curve" smooth="yes"/>
      <point x="599" y="351" type="line" smooth="yes"/>
      <point x="581" y="351"/>
      <point x="585" y="324"/>
      <point x="585" y="307" type="curve" smooth="yes"/>
      <point x="585" y="292" type="line"/>
      <point x="595" y="292" type="line"/>
      <point x="595" y="435" type="line"/>
      <point x="585" y="435" type="line"/>
      <point x="585" y="419" type="line" smooth="yes"/>
      <point x="585" y="403"/>
      <point x="583" y="376"/>
      <point x="598" y="376" type="curve" smooth="yes"/>
      <point x="241" y="376" type="line" smooth="yes"/>
      <point x="255" y="376"/>
      <point x="252" y="404"/>
      <point x="252" y="414" type="curve" smooth="yes"/>
      <point x="252" y="435" type="line"/>
      <point x="242" y="435" type="line"/>
    </contour>
  </outline>
</glyph>
<glyph name="Omega" format="2">
  <advance width="832"/>
  <unicode hex="03A9"/>
  <anchor x="416" y="0" name="bottom"/>
  <anchor x="416" y="714" name="top"/>
  <anchor x="20" y="714" name="topleft"/>
  <outline>
    <contour>
      <point x="54" y="0" type="line"/>
      <point x="378" y="0" type="line"/>
      <point x="361" y="142" type="line"/>
      <point x="176" y="142"/>
      <point x="99" y="252"/>
      <point x="99" y="424" type="curve" smooth="yes"/>
      <point x="99" y="603"/>
      <point x="201" y="715"/>
      <point x="412" y="715" type="curve" smooth="yes"/>
      <point x="626" y="715"/>
      <point x="736" y="585"/>
      <point x="736" y="424" type="curve" smooth="yes"/>
      <point x="736" y="253"/>
      <point x="659" y="142"/>
      <point x="472" y="143" type="curve"/>
      <point x="456" y="0" type="line"/>
      <point x="776" y="0" type="line"/>
      <point x="784" y="114" type="line"/>
      <point x="774" y="114" type="line"/>
      <point x="771" y="86" type="line" smooth="yes"/>
      <point x="765" y="28"/>
      <point x="768" y="24"/>
      <point x="734" y="24" type="curve" smooth="yes"/>
      <point x="469" y="24" type="line"/>
      <point x="482" y="132" type="line"/>
      <point x="661" y="144"/>
      <point x="764" y="237"/>
      <point x="764" y="427" type="curve" smooth="yes"/>
      <point x="764" y="579"/>
      <point x="650" y="725"/>
      <point x="412" y="725" type="curve" smooth="yes"/>
      <point x="181" y="725"/>
      <point x="71" y="599"/>
      <point x="71" y="427" type="curve" smooth="yes"/>
      <point x="71" y="229"/>
      <point x="177" y="145"/>
      <point x="351" y="132" type="curve"/>
      <point x="365" y="22" type="line"/>
      <point x="76" y="22" type="line" smooth="yes"/>
      <point x="57" y="22"/>
      <point x="64" y="27"/>
      <point x="58" y="84" type="curve" smooth="yes"/>
      <point x="55" y="112" type="line"/>
      <point x="45" y="112" type="line"/>
    </contour>
  </outline>
</glyph>
<glyph name="iota" format="2">
  <advance width="330"/>
  <unicode hex="03B9"/>
  <anchor x="165" y="0" name="bottom"/>
  <anchor x="165" y="536" name="top"/>
  <outline>
    <contour>
      <point x="241" y="-10" type="curve" smooth="yes"/>
      <point x="269" y="-10"/>
      <point x="295" y="-8"/>
      <point x="320" y="3" type="curve"/>
      <point x="320" y="15" type="line"/>
      <point x="301" y="4"/>
      <point x="270" y="0"/>
      <point x="243" y="0" type="curve" smooth="yes"/>
      <point x="176" y="0"/>
      <point x="145" y="29"/>
      <point x="145" y="153" type="curve" smooth="yes"/>
      <point x="145" y="536" type="line"/>
      <point x="117" y="536" type="line"/>
      <point x="117" y="149" type="line" smooth="yes"/>
      <point x="117" y="30"/>
      <point x="140" y="-10"/>
    </contour>
  </outline>
</glyph>
<glyph name="kappa" format="2">
  <advance width="690"/>
  <unicode hex="03BA"/>
  <anchor x="345" y="0" name="bottom"/>
  <anchor x="345" y="536" name="top"/>
  <outline>
    <contour>
      <point x="148" y="0" type="line"/>
      <point x="176" y="0" type="line"/>
      <point x="176" y="187" type="line"/>
      <point x="310" y="330" type="line"/>
      <point x="524" y="31" type="line" smooth="yes"/>
      <point x="554" y="6"/>
      <point x="577" y="0"/>
      <point x="627" y="0" type="curve" smooth="yes"/>
      <point x="640" y="0" type="line"/>
      <point x="640" y="10" type="line"/>
      <point x="631" y="10" type="line" smooth="yes"/>
      <point x="606" y="10"/>
      <point x="583" y="12"/>
      <point x="555" y="42" type="curve" smooth="yes"/>
      <point x="329" y="350" type="line"/>
      <point x="400" y="422" type="line" smooth="yes"/>
      <point x="473" y="503"/>
      <point x="510" y="513"/>
      <point x="550" y="513" type="curve" smooth="yes"/>
      <point x="581" y="513"/>
      <point x="609" y="506"/>
      <point x="617" y="485" type="curve"/>
      <point x="628" y="485"/>
      <point x="636" y="489"/>
      <point x="636" y="500" type="curve" smooth="yes"/>
      <point x="636" y="511"/>
      <point x="621" y="543"/>
      <point x="548" y="543" type="curve" smooth="yes"/>
      <point x="499" y="543"/>
      <point x="461" y="519"/>
      <point x="419" y="482" type="curve" smooth="yes"/>
      <point x="175" y="202" type="line"/>
      <point x="174" y="229"/>
      <point x="176" y="297"/>
      <point x="176" y="306" type="curve" smooth="yes"/>
      <point x="176" y="536" type="line"/>
      <point x="52" y="536" type="line"/>
      <point x="52" y="526" type="line"/>
      <point x="74" y="526" type="line" smooth="yes"/>
      <point x="137" y="526"/>
      <point x="148" y="512"/>
      <point x="148" y="463" type="curve" smooth="yes"/>
    </contour>
  </outline>
</glyph>
<glyph name="pi" format="2">
  <advance width="742"/>
  <unicode hex="03C0"/>
  <anchor x="371" y="0" name="bottom"/>
  <anchor x="371" y="536" name="top"/>
  <outline>
    <contour>
      <point x="575" y="-8" type="curve" smooth="yes"/>
      <point x="603" y="-8"/>
      <point x="615" y="-7"/>
      <point x="654" y="8" type="curve"/>
      <point x="654" y="22" type="line"/>
      <point x="638" y="13"/>
      <point x="612" y="4"/>
      <point x="580" y="4" type="curve" smooth="yes"/>
      <point x="527" y="4"/>
      <point x="526" y="59"/>
      <point x="526" y="88" type="curve" smooth="yes"/>
      <point x="526" y="255"/>
      <point x="525" y="351"/>
      <point x="533" y="511" type="curve"/>
      <point x="691" y="511" type="line"/>
      <point x="691" y="536" type="line"/>
      <point x="128" y="536" type="line" smooth="yes"/>
      <point x="77" y="536"/>
      <point x="41" y="516"/>
      <point x="41" y="450" type="curve"/>
      <point x="49" y="450" type="line"/>
      <point x="59" y="506"/>
      <point x="70" y="511"/>
      <point x="100" y="511" type="curve" smooth="yes"/>
      <point x="253" y="511" type="line"/>
      <point x="215" y="218" type="line" smooth="yes"/>
      <point x="193" y="37"/>
      <point x="190" y="13"/>
      <point x="115" y="10" type="curve"/>
      <point x="115" y="0" type="line"/>
      <point x="124" y="0" type="line"/>
      <point x="198" y="0"/>
      <point x="223" y="38"/>
      <point x="233" y="143" type="curve" smooth="yes"/>
      <point x="264" y="511" type="line"/>
      <point x="522" y="511" type="line"/>
      <point x="514" y="492"/>
      <point x="496" y="127"/>
      <point x="496" y="50" type="curve" smooth="yes"/>
      <point x="496" y="21"/>
      <point x="516" y="-8"/>
    </contour>
  </outline>
</glyph>
<glyph name="sigma" format="2">
  <advance width="673"/>
  <unicode hex="03C3"/>
  <anchor x="336" y="0" name="bottom"/>
  <anchor x="336" y="536" name="top"/>
  <outline>
    <contour>
      <point x="323" y="-10" type="curve" smooth="yes"/>
      <point x="457" y="-10"/>
      <point x="584" y="88"/>
      <point x="584" y="226" type="curve" smooth="yes"/>
      <point x="584" y="411"/>
      <point x="542" y="451"/>
      <point x="485" y="514" type="curve"/>
      <point x="656" y="514" type="line"/>
      <point x="656" y="536" type="line"/>
      <point x="402" y="536" type="line" smooth="yes"/>
      <point x="204" y="536"/>
      <point x="82" y="460"/>
      <point x="82" y="226" type="curve" smooth="yes"/>
      <point x="82" y="83"/>
      <point x="171" y="-10"/>
    </contour>
    <contour>
      <point x="322" y="0" type="curve" smooth="yes"/>
      <point x="187" y="0"/>
      <point x="110" y="87"/>
      <point x="110" y="234" type="curve" smooth="yes"/>
      <point x="110" y="427"/>
      <point x="223" y="514"/>
      <point x="386" y="514" type="curve" smooth="yes"/>
      <point x="474" y="514" type="line"/>
      <point x="523" y="467"/>
      <point x="556" y="369"/>
      <point x="556" y="249" type="curve" smooth="yes"/>
      <point x="556" y="73"/>
      <point x="440" y="0"/>
    </contour>
  </outline>
</glyph>
<glyph name="omega" format="2">
  <advance width="894"/>
  <unicode hex="03C9"/>
  <anchor x="447" y="0" name="bottom"/>
  <anchor x="447" y="536" name="top"/>
  <outline>
    <contour>
      <point x="275" y="-10" type="curve" smooth="yes"/>
      <point x="375" y="-10"/>
      <point x="422" y="41"/>
      <point x="448" y="148" type="curve"/>
      <point x="471" y="56"/>
      <point x="520" y="-10"/>
      <point x="626" y="-10" type="curve" smooth="yes"/>
      <point x="750" y="-10"/>
      <point x="813" y="66"/>
      <point x="813" y="243" type="curve" smooth="yes"/>
      <point x="813" y="382"/>
      <point x="746" y="494"/>
      <point x="675" y="545" type="curve"/>
      <point x="669" y="540" type="line"/>
      <point x="737" y="458"/>
      <point x="785" y="387"/>
      <point x="785" y="244" type="curve" smooth="yes"/>
      <point x="785" y="115"/>
      <point x="744" y="0"/>
      <point x="624" y="0" type="curve" smooth="yes"/>
      <point x="516" y="0"/>
      <point x="476" y="64"/>
      <point x="456" y="151" type="curve"/>
      <point x="458" y="183"/>
      <point x="467" y="224"/>
      <point x="467" y="294" type="curve" smooth="yes"/>
      <point x="467" y="336"/>
      <point x="461" y="368"/>
      <point x="447" y="368" type="curve" smooth="yes"/>
      <point x="434" y="368"/>
      <point x="428" y="334"/>
      <point x="428" y="294" type="curve" smooth="yes"/>
      <point x="428" y="224"/>
      <point x="436" y="184"/>
      <point x="438" y="151" type="curve"/>
      <point x="419" y="65"/>
      <point x="388" y="0"/>
      <point x="277" y="0" type="curve" smooth="yes"/>
      <point x="157" y="0"/>
      <point x="110" y="115"/>
      <point x="110" y="244" type="curve" smooth="yes"/>
      <point x="110" y="386"/>
      <point x="158" y="458"/>
      <point x="226" y="540" type="curve"/>
      <point x="220" y="545" type="line"/>
      <point x="149" y="494"/>
      <point x="82" y="382"/>
      <point x="82" y="243" type="curve" smooth="yes"/>
      <point x="82" y="71"/>
      <point x="149" y="-10"/>
    </contour>
  </outline>
</glyph>
<glyph name="uni03D2" format="2">
  <advance width="670"/>
  <unicode hex="03D2"/>
  <anchor x="327" y="714" name="top"/>
  <outline>
    <contour>
      <point x="148" y="0" type="line"/>
      <point x="485" y="0" type="line"/>
      <point x="485" y="10" type="line"/>
      <point x="345" y="10" type="line" smooth="yes"/>
      <point x="347" y="10"/>
      <point x="330" y="25"/>
      <point x="330" y="110" type="curve" smooth="yes"/>
      <point x="330" y="193" type="line" smooth="yes"/>
      <point x="330" y="201"/>
      <point x="359" y="315"/>
      <point x="419" y="483" type="curve" smooth="yes"/>
      <point x="454" y="571"/>
      <point x="525" y="701"/>
      <point x="600" y="701" type="curve" smooth="yes"/>
      <point x="634" y="701"/>
      <point x="664" y="682"/>
      <point x="664" y="660" type="curve"/>
      <point x="677" y="666"/>
      <point x="677" y="670"/>
      <point x="677" y="679" type="curve" smooth="yes"/>
      <point x="677" y="712"/>
      <point x="641" y="721"/>
      <point x="604" y="721" type="curve" smooth="yes"/>
      <point x="525" y="721"/>
      <point x="471" y="650"/>
      <point x="393" y="421" type="curve" smooth="yes"/>
      <point x="344" y="276"/>
      <point x="326" y="214"/>
      <point x="322" y="223" type="curve"/>
      <point x="323" y="330"/>
      <point x="276" y="476"/>
      <point x="201" y="586" type="curve" smooth="yes"/>
      <point x="162" y="624"/>
      <point x="91" y="714"/>
      <point x="36" y="714" type="curve" smooth="yes"/>
      <point x="-14" y="714" type="line"/>
      <point x="-14" y="702" type="line"/>
      <point x="6" y="702" type="line" smooth="yes"/>
      <point x="61" y="702"/>
      <point x="126" y="623"/>
      <point x="179" y="559" type="curve" smooth="yes"/>
      <point x="268" y="440"/>
      <point x="302" y="216"/>
      <point x="302" y="193" type="curve" smooth="yes"/>
      <point x="302" y="110" type="line" smooth="yes"/>
      <point x="302" y="25"/>
      <point x="294" y="10"/>
      <point x="281" y="10" type="curve" smooth="yes"/>
      <point x="148" y="10" type="line"/>
    </contour>
  </outline>
</glyph>
<glyph name="uni03DD" format="2">
  <advance width="602"/>
  <unicode hex="03DD"/>
  <anchor x="301" y="-240" name="bottom"/>
  <anchor x="301" y="536" name="top"/>
  <outline>
    <contour>
      <point x="137" y="-240" type="line"/>
      <point x="165" y="-240" type="line"/>
      <point x="165" y="203" type="line"/>
      <point x="357" y="203" type="line" smooth="yes"/>
      <point x="376" y="203"/>
      <point x="386" y="201"/>
      <point x="391" y="129" type="curve"/>
      <point x="401" y="129" type="line"/>
      <point x="395" y="213" type="line"/>
      <point x="165" y="213" type="line"/>
      <point x="165" y="526" type="line"/>
      <point x="413" y="526" type="line" smooth="yes"/>
      <point x="494" y="526"/>
      <point x="512" y="534"/>
      <point x="517" y="483" type="curve" smooth="yes"/>
      <point x="524" y="387" type="line"/>
      <point x="534" y="387" type="line"/>
      <point x="524" y="536" type="line"/>
      <point x="23" y="536" type="line"/>
      <point x="23" y="526" type="line"/>
      <point x="81" y="526" type="line" smooth="yes"/>
      <point x="131" y="526"/>
      <point x="137" y="527"/>
      <point x="137" y="468" type="curve" smooth="yes"/>
    </contour>
  </outline>
</glyph>
<glyph name="uni03F0" format="2">
  <advance width="685"/>
  <unicode hex="03F0"/>
  <anchor x="333" y="0" name="bottom"/>
  <anchor x="333" y="536" name="top"/>
  <outline>
    <contour>
      <point x="537" y="-1" type="curve" smooth="yes"/>
      <point x="539" y="-1"/>
      <point x="557" y="-8"/>
      <point x="563" y="18" type="curve"/>
      <point x="502" y="20"/>
      <point x="493" y="83"/>
      <point x="493" y="123" type="curve" smooth="yes"/>
      <point x="493" y="265"/>
      <point x="561" y="455"/>
      <point x="592" y="536" type="curve"/>
      <point x="593" y="536" type="line"/>
      <point x="89" y="57" type="line"/>
      <point x="116" y="144"/>
      <point x="164" y="336"/>
      <point x="164" y="449" type="curve" smooth="yes"/>
      <point x="164" y="505"/>
      <point x="152" y="546"/>
      <point x="102" y="546" type="curve" smooth="yes"/>
      <point x="62" y="546"/>
      <point x="54" y="520"/>
      <point x="54" y="509" type="curve"/>
      <point x="132" y="509"/>
      <point x="152" y="498"/>
      <point x="152" y="432" type="curve" smooth="yes"/>
      <point x="152" y="319"/>
      <point x="92" y="101"/>
      <point x="64" y="0" type="curve"/>
      <point x="61" y="0" type="line"/>
      <point x="555" y="462" type="line"/>
      <point x="520" y="366"/>
      <point x="481" y="223"/>
      <point x="481" y="106" type="curve" smooth="yes"/>
      <point x="481" y="46"/>
      <point x="493" y="-1"/>
    </contour>
  </outline>
</glyph>
<glyph name="uni03FA" format="2">
  <advance width="1139"/>
  <unicode hex="03FA"/>
  <anchor x="533" y="0" name="bottom"/>
  <anchor x="533" y="714" name="top"/>
  <outline>
    <contour>
      <point x="64" y="0" type="line"/>
      <point x="288" y="0" type="line"/>
      <point x="288" y="10" type="line"/>
      <point x="240" y="10" type="line" smooth="yes"/>
      <point x="200" y="10"/>
      <point x="190" y="21"/>
      <point x="190" y="88" type="curve" smooth="yes"/>
      <point x="190" y="662" type="line"/>
      <point x="510" y="254" type="line"/>
      <point x="512" y="254" type="line"/>
      <point x="849" y="677" type="line"/>
      <point x="849" y="98" type="line" smooth="yes"/>
      <point x="849" y="21"/>
      <point x="843" y="10"/>
      <point x="791" y="10" type="curve" smooth="yes"/>
      <point x="708" y="10" type="line"/>
      <point x="708" y="0" type="line"/>
      <point x="997" y="0" type="line"/>
      <point x="997" y="10" type="line"/>
      <point x="935" y="10" type="line" smooth="yes"/>
      <point x="883" y="10"/>
      <point x="877" y="21"/>
      <point x="877" y="98" type="curve" smooth="yes"/>
      <point x="877" y="614" type="line" smooth="yes"/>
      <point x="877" y="693"/>
      <point x="883" y="704"/>
      <point x="933" y="704" type="curve" smooth="yes"/>
      <point x="997" y="704" type="line"/>
      <point x="997" y="714" type="line"/>
      <point x="863" y="714" type="line"/>
      <point x="524" y="286" type="line"/>
      <point x="191" y="714" type="line"/>
      <point x="64" y="714" type="line"/>
      <point x="64" y="704" type="line"/>
      <point x="120" y="704" type="line" smooth="yes"/>
      <point x="176" y="704"/>
      <point x="180" y="693"/>
      <point x="180" y="614" type="curve" smooth="yes"/>
      <point x="180" y="88" type="line" smooth="yes"/>
      <point x="180" y="21"/>
      <point x="174" y="10"/>
      <point x="122" y="10" type="curve" smooth="yes"/>
      <point x="64" y="10" type="line"/>
    </contour>
  </outline>
</glyph>
<glyph name="uni03FC" format="2">
  <advance width="689"/>
  <unicode hex="03FC"/>
  <anchor x="344" y="-240" name="bottom"/>
  <anchor x="344" y="536" name="top"/>
  <outline>
    <contour>
      <point x="117" y="-240" type="line"/>
      <point x="145" y="-240" type="line"/>
      <point x="145" y="-109" type="line"/>
      <point x="347" y="-109" type="line"/>
      <point x="347" y="-99" type="line"/>
      <point x="145" y="-99" type="line"/>
      <point x="145" y="-49" type="line" smooth="yes"/>
      <point x="145" y="-13"/>
      <point x="145" y="14"/>
      <point x="144" y="32" type="curve"/>
      <point x="204" y="-5"/>
      <point x="275" y="-10"/>
      <point x="327" y="-10" type="curve" smooth="yes"/>
      <point x="469" y="-10"/>
      <point x="608" y="98"/>
      <point x="608" y="266" type="curve" smooth="yes"/>
      <point x="608" y="450"/>
      <point x="527" y="542"/>
      <point x="361" y="542" type="curve" smooth="yes"/>
      <point x="201" y="542"/>
      <point x="117" y="458"/>
      <point x="117" y="337" type="curve" smooth="yes"/>
      <point x="117" y="-99" type="line"/>
      <point x="0" y="-99" type="line"/>
      <point x="0" y="-109" type="line"/>
      <point x="117" y="-109" type="line"/>
    </contour>
    <contour>
      <point x="329" y="0" type="curve" smooth="yes"/>
      <point x="244" y="0"/>
      <point x="193" y="26"/>
      <point x="145" y="43" type="curve"/>
      <point x="145" y="293" type="line" smooth="yes"/>
      <point x="145" y="426"/>
      <point x="186" y="532"/>
      <point x="359" y="532" type="curve" smooth="yes"/>
      <point x="515" y="532"/>
      <point x="580" y="430"/>
      <point x="580" y="264" type="curve" smooth="yes"/>
      <point x="580" y="89"/>
      <point x="443" y="0"/>
    </contour>
  </outline>
</glyph>
<glyph name="afii10145" format="2">
  <advance width="866"/>
  <unicode hex="040F"/>
  <anchor x="434" y="-210" name="bottom"/>
  <anchor x="434" y="714" name="top"/>
  <outline>
    <contour>
      <point x="429" y="-210" type="curve"/>
      <point x="439" y="-210" type="line"/>
      <point x="439" y="-34"/>
      <point x="457" y="0"/>
      <point x="449" y="0" type="curve" smooth="yes"/>
      <point x="797" y="0" type="line"/>
      <point x="797" y="10" type="line"/>
      <point x="739" y="10" type="line" smooth="yes"/>
      <point x="681" y="10"/>
      <point x="677" y="21"/>
      <point x="677" y="98" type="curve" smooth="yes"/>
      <point x="677" y="614" type="line" smooth="yes"/>
      <point x="677" y="693"/>
      <point x="679" y="704"/>
      <point x="739" y="704" type="curve" smooth="yes"/>
      <point x="796" y="704" type="line"/>
      <point x="796" y="714" type="line"/>
      <point x="532" y="714" type="line"/>
      <point x="532" y="704" type="line"/>
      <point x="599" y="704" type="line" smooth="yes"/>
      <point x="641" y="704"/>
      <point x="649" y="693"/>
      <point x="649" y="614" type="curve" smooth="yes"/>
      <point x="649" y="15" type="line"/>
      <point x="216" y="15" type="line"/>
      <point x="214" y="614" type="line" smooth="yes"/>
      <point x="214" y="693"/>
      <point x="218" y="704"/>
      <point x="270" y="704" type="curve" smooth="yes"/>
      <point x="325" y="704" type="line"/>
      <point x="325" y="714" type="line"/>
      <point x="63" y="714" type="line"/>
      <point x="63" y="704" type="line"/>
      <point x="132" y="704" type="line" smooth="yes"/>
      <point x="178" y="704"/>
      <point x="186" y="693"/>
      <point x="186" y="614" type="curve" smooth="yes"/>
      <point x="186" y="98" type="line" smooth="yes"/>
      <point x="186" y="21"/>
      <point x="178" y="10"/>
      <point x="134" y="10" type="curve" smooth="yes"/>
      <point x="64" y="10" type="line"/>
      <point x="64" y="0" type="line"/>
      <point x="413" y="0" type="line" smooth="yes"/>
      <point x="409" y="0"/>
      <point x="429" y="-34"/>
    </contour>
  </outline>
</glyph>
<glyph name="afii10029" format="2">
  <advance width="826"/>
  <unicode hex="041B"/>
  <anchor x="405" y="0" name="bottom"/>
  <anchor x="405" y="714" name="top"/>
  <outline>
    <contour>
      <point x="100" y="-7" type="curve" smooth="yes"/>
      <point x="234" y="-7"/>
      <point x="266" y="115"/>
      <point x="315" y="423" type="curve" smooth="yes"/>
      <point x="354" y="668"/>
      <point x="330" y="832"/>
      <point x="330" y="694" type="curve"/>
      <point x="606" y="694" type="line"/>
      <point x="606" y="98" type="line" smooth="yes"/>
      <point x="606" y="21"/>
      <point x="602" y="10"/>
      <point x="544" y="10" type="curve" smooth="yes"/>
      <point x="486" y="10" type="line"/>
      <point x="486" y="0" type="line"/>
      <point x="751" y="0" type="line"/>
      <point x="751" y="10" type="line"/>
      <point x="692" y="10" type="line" smooth="yes"/>
      <point x="638" y="10"/>
      <point x="634" y="21"/>
      <point x="634" y="98" type="curve" smooth="yes"/>
      <point x="634" y="622" type="line" smooth="yes"/>
      <point x="634" y="692"/>
      <point x="646" y="704"/>
      <point x="680" y="704" type="curve" smooth="yes"/>
      <point x="752" y="704" type="line"/>
      <point x="752" y="714" type="line"/>
      <point x="203" y="714" type="line"/>
      <point x="203" y="704" type="line"/>
      <point x="298" y="704" type="line" smooth="yes"/>
      <point x="320" y="704"/>
      <point x="317" y="694"/>
      <point x="317" y="651" type="curve" smooth="yes"/>
      <point x="317" y="598"/>
      <point x="314" y="504"/>
      <point x="293" y="376" type="curve" smooth="yes"/>
      <point x="255" y="149"/>
      <point x="214" y="15"/>
      <point x="112" y="15" type="curve" smooth="yes"/>
      <point x="62" y="15"/>
      <point x="37" y="38"/>
      <point x="31" y="88" type="curve"/>
      <point x="14" y="89"/>
      <point x="0" y="83"/>
      <point x="0" y="62" type="curve" smooth="yes"/>
      <point x="0" y="25"/>
      <point x="37" y="-7"/>
    </contour>
  </outline>
</glyph>
<glyph name="afii10042" format="2">
  <advance width="1195"/>
  <unicode hex="0428"/>
  <anchor x="598" y="0" name="bottom"/>
  <anchor x="598" y="714" name="top"/>
  <outline>
    <contour>
      <point x="64" y="0" type="line"/>
      <point x="1134" y="0" type="line"/>
      <point x="1134" y="10" type="line"/>
      <point x="1062" y="10" type="line" smooth="yes"/>
      <point x="1022" y="10"/>
      <point x="1008" y="19"/>
      <point x="1008" y="98" type="curve" smooth="yes"/>
      <point x="1008" y="614" type="line" smooth="yes"/>
      <point x="1008" y="693"/>
      <point x="1016" y="704"/>
      <point x="1058" y="704" type="curve" smooth="yes"/>
      <point x="1133" y="704" type="line"/>
      <point x="1133" y="714" type="line"/>
      <point x="869" y="714" type="line"/>
      <point x="869" y="704" type="line"/>
      <point x="932" y="704" type="line" smooth="yes"/>
      <point x="978" y="704"/>
      <point x="980" y="693"/>
      <point x="980" y="614" type="curve" smooth="yes"/>
      <point x="978" y="15" type="line"/>
      <point x="610" y="15" type="line"/>
      <point x="610" y="614" type="line" smooth="yes"/>
      <point x="610" y="693"/>
      <point x="612" y="704"/>
      <point x="656" y="704" type="curve" smooth="yes"/>
      <point x="709" y="704" type="line"/>
      <point x="709" y="714" type="line"/>
      <point x="489" y="714" type="line"/>
      <point x="489" y="704" type="line"/>
      <point x="526" y="704" type="line" smooth="yes"/>
      <point x="574" y="704"/>
      <point x="582" y="693"/>
      <point x="582" y="614" type="curve" smooth="yes"/>
      <point x="582" y="15" type="line"/>
      <point x="214" y="15" type="line"/>
      <point x="214" y="614" type="line" smooth="yes"/>
      <point x="214" y="693"/>
      <point x="216" y="704"/>
      <point x="278" y="704" type="curve" smooth="yes"/>
      <point x="325" y="704" type="line"/>
      <point x="325" y="714" type="line"/>
      <point x="63" y="714" type="line"/>
      <point x="63" y="704" type="line"/>
      <point x="130" y="704" type="line" smooth="yes"/>
      <point x="178" y="704"/>
      <point x="186" y="693"/>
      <point x="186" y="614" type="curve" smooth="yes"/>
      <point x="186" y="98" type="line" smooth="yes"/>
      <point x="186" y="21"/>
      <point x="182" y="10"/>
      <point x="126" y="10" type="curve" smooth="yes"/>
      <point x="64" y="10" type="line"/>
    </contour>
  </outline>
</glyph>
<glyph name="afii10069" format="2">
  <advance width="656"/>
  <unicode hex="0434"/>
  <anchor x="329" y="0" name="bottom"/>
  <anchor x="329" y="536" name="top"/>
  <outline>
    <contour>
      <point x="15" y="-210" type="line"/>
      <point x="25" y="-210" type="line"/>
      <point x="38" y="76" type="line" smooth="yes"/>
      <point x="39" y="15"/>
      <point x="39" y="0"/>
      <point x="14" y="0" type="curve" smooth="yes"/>
      <point x="592" y="0" type="line" smooth="yes"/>
      <point x="531" y="0"/>
      <point x="550" y="18"/>
      <point x="550" y="82" type="curve" smooth="yes"/>
      <point x="561" y="-210" type="line"/>
      <point x="571" y="-210" type="line"/>
      <point x="571" y="20" type="line"/>
      <point x="509" y="20" type="line" smooth="yes"/>
      <point x="477" y="20"/>
      <point x="469" y="44"/>
      <point x="469" y="70" type="curve" smooth="yes"/>
      <point x="469" y="454" type="line" smooth="yes"/>
      <point x="469" y="503"/>
      <point x="479" y="526"/>
      <point x="515" y="526" type="curve" smooth="yes"/>
      <point x="597" y="526" type="line"/>
      <point x="597" y="536" type="line"/>
      <point x="95" y="536" type="line"/>
      <point x="95" y="526" type="line"/>
      <point x="179" y="526" type="line" smooth="yes"/>
      <point x="217" y="526"/>
      <point x="216" y="525"/>
      <point x="216" y="534" type="curve" smooth="yes"/>
      <point x="216" y="403"/>
      <point x="191" y="308"/>
      <point x="168" y="212" type="curve" smooth="yes"/>
      <point x="153" y="146"/>
      <point x="129" y="81"/>
      <point x="109" y="15" type="curve"/>
      <point x="15" y="15" type="line"/>
    </contour>
    <contour>
      <point x="119" y="15" type="line"/>
      <point x="175" y="189"/>
      <point x="211" y="324"/>
      <point x="231" y="521" type="curve"/>
      <point x="441" y="521" type="line"/>
      <point x="441" y="15" type="line"/>
    </contour>
  </outline>
</glyph>
<glyph name="afii10078" format="2">
  <advance width="847"/>
  <unicode hex="043C"/>
  <anchor x="400" y="0" name="bottom"/>
  <anchor x="400" y="536" name="top"/>
  <outline>
    <contour>
      <point x="41" y="0" type="line"/>
      <point x="284" y="0" type="line"/>
      <point x="284" y="10" type="line"/>
      <point x="255" y="10" type="line" smooth="yes"/>
      <point x="186" y="10"/>
      <point x="180" y="12"/>
      <point x="180" y="82" type="curve" smooth="yes"/>
      <point x="180" y="450" type="line"/>
      <point x="182" y="450" type="line"/>
      <point x="383" y="0" type="line"/>
      <point x="394" y="0" type="line"/>
      <point x="601" y="416" type="line"/>
      <point x="605" y="416" type="line"/>
      <point x="605" y="84" type="line" smooth="yes"/>
      <point x="605" y="12"/>
      <point x="597" y="10"/>
      <point x="530" y="10" type="curve" smooth="yes"/>
      <point x="513" y="10" type="line"/>
      <point x="513" y="0" type="line"/>
      <point x="751" y="0" type="line"/>
      <point x="751" y="10" type="line"/>
      <point x="713" y="10" type="line" smooth="yes"/>
      <point x="637" y="10"/>
      <point x="633" y="12"/>
      <point x="633" y="84" type="curve" smooth="yes"/>
      <point x="633" y="468" type="line" smooth="yes"/>
      <point x="633" y="516"/>
      <point x="639" y="526"/>
      <point x="697" y="526" type="curve" smooth="yes"/>
      <point x="751" y="526" type="line"/>
      <point x="751" y="536" type="line"/>
      <point x="637" y="536" type="line"/>
      <point x="398" y="34" type="line"/>
      <point x="178" y="536" type="line"/>
      <point x="41" y="536" type="line"/>
      <point x="41" y="526" type="line"/>
      <point x="109" y="526" type="line" smooth="yes"/>
      <point x="164" y="526"/>
      <point x="170" y="522"/>
      <point x="170" y="454" type="curve" smooth="yes"/>
      <point x="170" y="81" type="line" smooth="yes"/>
      <point x="170" y="12"/>
      <point x="168" y="10"/>
      <point x="73" y="10" type="curve" smooth="yes"/>
      <point x="41" y="10" type="line"/>
    </contour>
  </outline>
</glyph>
<glyph name="afii10097" format="2">
  <advance width="688"/>
  <unicode hex="044F"/>
  <anchor x="344" y="0" name="bottom"/>
  <anchor x="344" y="536" name="top"/>
  <outline>
    <contour>
      <point x="15" y="0" type="line"/>
      <point x="84" y="0"/>
      <point x="114" y="-13"/>
      <point x="168" y="67" type="curve" smooth="yes"/>
      <point x="298" y="240" type="line"/>
      <point x="463" y="240" type="line"/>
      <point x="463" y="82" type="line" smooth="yes"/>
      <point x="463" y="12"/>
      <point x="453" y="10"/>
      <point x="396" y="10" type="curve" smooth="yes"/>
      <point x="358" y="10" type="line"/>
      <point x="358" y="0" type="line"/>
      <point x="613" y="0" type="line"/>
      <point x="613" y="10" type="line"/>
      <point x="559" y="10" type="line" smooth="yes"/>
      <point x="517" y="10"/>
      <point x="491" y="12"/>
      <point x="491" y="82" type="curve" smooth="yes"/>
      <point x="491" y="454" type="line" smooth="yes"/>
      <point x="491" y="522"/>
      <point x="491" y="526"/>
      <point x="576" y="526" type="curve" smooth="yes"/>
      <point x="618" y="526" type="line"/>
      <point x="618" y="536" type="line"/>
      <point x="304" y="536" type="line" smooth="yes"/>
      <point x="163" y="536"/>
      <point x="88" y="485"/>
      <point x="88" y="371" type="curve" smooth="yes"/>
      <point x="88" y="265"/>
      <point x="169" y="244"/>
      <point x="260" y="239" type="curve"/>
      <point x="148" y="91" type="line" smooth="yes"/>
      <point x="94" y="11"/>
      <point x="84" y="10"/>
      <point x="40" y="10" type="curve" smooth="yes"/>
      <point x="15" y="10" type="line"/>
    </contour>
    <contour>
      <point x="301" y="250" type="line" smooth="yes"/>
      <point x="168" y="250"/>
      <point x="116" y="273"/>
      <point x="116" y="369" type="curve" smooth="yes"/>
      <point x="116" y="504"/>
      <point x="173" y="526"/>
      <point x="362" y="526" type="curve" smooth="yes"/>
      <point x="463" y="526" type="line"/>
      <point x="463" y="250" type="line"/>
    </contour>
  </outline>
</glyph>
<glyph name="afii10099" format="2">
  <advance width="690"/>
  <unicode hex="0452"/>
  <anchor x="345" y="-240" name="bottom"/>
  <anchor x="345" y="760" name="top"/>
  <outline>
    <contour>
      <point x="397" y="-240" type="line"/>
      <point x="421" y="-240" type="line" smooth="yes"/>
      <point x="519" y="-240"/>
      <point x="584" y="-169"/>
      <point x="584" y="4" type="curve" smooth="yes"/>
      <point x="584" y="350" type="line" smooth="yes"/>
      <point x="584" y="486"/>
      <point x="518" y="532"/>
      <point x="389" y="532" type="curve" smooth="yes"/>
      <point x="281" y="532"/>
      <point x="203" y="463"/>
      <point x="177" y="396" type="curve"/>
      <point x="175" y="396" type="line"/>
      <point x="176" y="448"/>
      <point x="176" y="446"/>
      <point x="176" y="459" type="curve" smooth="yes"/>
      <point x="176" y="620" type="line"/>
      <point x="405" y="620" type="line"/>
      <point x="405" y="630" type="line"/>
      <point x="176" y="630" type="line"/>
      <point x="176" y="760" type="line"/>
      <point x="25" y="760" type="line"/>
      <point x="25" y="750" type="line"/>
      <point x="73" y="750" type="line" smooth="yes"/>
      <point x="141" y="750"/>
      <point x="148" y="751"/>
      <point x="148" y="670" type="curve" smooth="yes"/>
      <point x="148" y="630" type="line"/>
      <point x="30" y="630" type="line"/>
      <point x="30" y="620" type="line"/>
      <point x="148" y="620" type="line"/>
      <point x="148" y="82" type="line" smooth="yes"/>
      <point x="148" y="12"/>
      <point x="144" y="10"/>
      <point x="67" y="10" type="curve" smooth="yes"/>
      <point x="20" y="10" type="line"/>
      <point x="20" y="0" type="line"/>
      <point x="297" y="0" type="line"/>
      <point x="297" y="10" type="line"/>
      <point x="260" y="10" type="line" smooth="yes"/>
      <point x="180" y="10"/>
      <point x="176" y="12"/>
      <point x="176" y="82" type="curve" smooth="yes"/>
      <point x="176" y="345" type="line" smooth="yes"/>
      <point x="176" y="443"/>
      <point x="269" y="517"/>
      <point x="395" y="517" type="curve" smooth="yes"/>
      <point x="503" y="517"/>
      <point x="556" y="474"/>
      <point x="556" y="346" type="curve" smooth="yes"/>
      <point x="556" y="4" type="line" smooth="yes"/>
      <point x="556" y="-174"/>
      <point x="501" y="-230"/>
      <point x="414" y="-230" type="curve" smooth="yes"/>
      <point x="397" y="-230" type="line"/>
    </contour>
  </outline>
</glyph>
<glyph name="afii10101" format="2">
  <advance width="561"/>
  <unicode hex="0454"/>
  <anchor x="280" y="0" name="bottom"/>
  <anchor x="280" y="536" name="top"/>
  <outline>
    <contour>
      <point x="309" y="-10" type="curve" smooth="yes"/>
      <point x="438" y="-10"/>
      <point x="496" y="55"/>
      <point x="496" y="78" type="curve" smooth="yes"/>
      <point x="496" y="99"/>
      <point x="485" y="117"/>
      <point x="475" y="116" type="curve"/>
      <point x="439" y="4"/>
      <point x="379" y="0"/>
      <point x="308" y="0" type="curve" smooth="yes"/>
      <point x="188" y="0"/>
      <point x="109" y="131"/>
      <point x="110" y="262" type="curve"/>
      <point x="470" y="262" type="line"/>
      <point x="470" y="272" type="line"/>
      <point x="110" y="272" type="line"/>
      <point x="121" y="436"/>
      <point x="197" y="532"/>
      <point x="319" y="532" type="curve" smooth="yes"/>
      <point x="428" y="532"/>
      <point x="467" y="460"/>
      <point x="467" y="408" type="curve"/>
      <point x="487" y="408"/>
      <point x="493" y="422"/>
      <point x="493" y="439" type="curve" smooth="yes"/>
      <point x="493" y="519"/>
      <point x="410" y="542"/>
      <point x="322" y="542" type="curve" smooth="yes"/>
      <point x="186" y="542"/>
      <point x="82" y="451"/>
      <point x="82" y="261" type="curve" smooth="yes"/>
      <point x="82" y="101"/>
      <point x="165" y="-10"/>
    </contour>
  </outline>
</glyph>
<glyph name="uni0460" format="2">
  <advance width="1068"/>
  <unicode hex="0460"/>
  <anchor x="534" y="0" name="bottom"/>
  <anchor x="534" y="714" name="top"/>
  <outline>
    <contour>
      <point x="380" y="0" type="curve"/>
      <point x="379" y="0" type="line"/>
      <point x="620" y="400" type="line"/>
      <point x="647" y="359"/>
      <point x="733" y="127"/>
      <point x="766" y="0" type="curve"/>
      <point x="758" y="0" type="line"/>
      <point x="882" y="256"/>
      <point x="996" y="425"/>
      <point x="996" y="603" type="curve" smooth="yes"/>
      <point x="996" y="671"/>
      <point x="971" y="727"/>
      <point x="900" y="727" type="curve" smooth="yes"/>
      <point x="855" y="727"/>
      <point x="852" y="706"/>
      <point x="850" y="701" type="curve"/>
      <point x="940" y="701"/>
      <point x="976" y="633"/>
      <point x="976" y="583" type="curve" smooth="yes"/>
      <point x="976" y="419"/>
      <point x="891" y="284"/>
      <point x="775" y="61" type="curve"/>
      <point x="697" y="314"/>
      <point x="594" y="570"/>
      <point x="522" y="714" type="curve"/>
      <point x="482" y="714" type="line"/>
      <point x="538" y="607"/>
      <point x="568" y="544"/>
      <point x="615" y="406" type="curve"/>
      <point x="392" y="42" type="line"/>
      <point x="181" y="707"/>
      <point x="154" y="726"/>
      <point x="78" y="726" type="curve" smooth="yes"/>
      <point x="46" y="726"/>
      <point x="36" y="729"/>
      <point x="-11" y="689" type="curve"/>
      <point x="-3" y="681" type="line"/>
      <point x="36" y="723"/>
      <point x="48" y="722"/>
      <point x="65" y="722" type="curve" smooth="yes"/>
      <point x="113" y="722"/>
      <point x="156" y="793"/>
    </contour>
  </outline>
</glyph>
<glyph name="uni0465" format="2">
  <advance width="871"/>
  <unicode hex="0465"/>
  <anchor x="435" y="0" name="bottom"/>
  <anchor x="435" y="536" name="top"/>
  <outline>
    <contour>
      <point x="639" y="-10" type="curve" smooth="yes"/>
      <point x="768" y="-10"/>
      <point x="825" y="55"/>
      <point x="825" y="78" type="curve" smooth="yes"/>
      <point x="825" y="103"/>
      <point x="812" y="117"/>
      <point x="804" y="116" type="curve"/>
      <point x="768" y="4"/>
      <point x="708" y="0"/>
      <point x="637" y="0" type="curve" smooth="yes"/>
      <point x="517" y="0"/>
      <point x="438" y="129"/>
      <point x="439" y="256" type="curve"/>
      <point x="795" y="256" type="line"/>
      <point x="795" y="266" type="line"/>
      <point x="439" y="266" type="line"/>
      <point x="450" y="443"/>
      <point x="530" y="532"/>
      <point x="647" y="532" type="curve" smooth="yes"/>
      <point x="757" y="532"/>
      <point x="796" y="460"/>
      <point x="796" y="408" type="curve"/>
      <point x="816" y="408"/>
      <point x="822" y="422"/>
      <point x="822" y="439" type="curve" smooth="yes"/>
      <point x="822" y="518"/>
      <point x="740" y="542"/>
      <point x="650" y="542" type="curve" smooth="yes"/>
      <point x="514" y="542"/>
      <point x="417" y="452"/>
      <point x="411" y="266" type="curve"/>
      <point x="209" y="266" type="line"/>
      <point x="209" y="454" type="line" smooth="yes"/>
      <point x="209" y="522"/>
      <point x="209" y="526"/>
      <point x="293" y="526" type="curve" smooth="yes"/>
      <point x="336" y="526" type="line"/>
      <point x="336" y="536" type="line"/>
      <point x="49" y="536" type="line"/>
      <point x="49" y="526" type="line"/>
      <point x="96" y="526" type="line" smooth="yes"/>
      <point x="179" y="526"/>
      <point x="181" y="522"/>
      <point x="181" y="454" type="curve" smooth="yes"/>
      <point x="181" y="82" type="line" smooth="yes"/>
      <point x="181" y="13"/>
      <point x="179" y="10"/>
      <point x="96" y="10" type="curve" smooth="yes"/>
      <point x="49" y="10" type="line"/>
      <point x="49" y="0" type="line"/>
      <point x="336" y="0" type="line"/>
      <point x="336" y="10" type="line"/>
      <point x="290" y="10" type="line" smooth="yes"/>
      <point x="212" y="10"/>
      <point x="209" y="13"/>
      <point x="209" y="82" type="curve" smooth="yes"/>
      <point x="209" y="256" type="line"/>
      <point x="411" y="256" type="line"/>
      <point x="414" y="97"/>
      <point x="495" y="-10"/>
    </contour>
  </outline>
</glyph>
